<svg width="720" height="445" viewBox="0 0 720 445" fill="none" xmlns="http://www.w3.org/2000/svg">
<g filter="url(#filter0_d_1480_7321)">
<ellipse rx="137.439" ry="137.495" transform="matrix(1 0 0 -1 312.197 253.495)" fill="white"/>
</g>
<mask id="path-2-inside-1_1480_7321" fill="white">
<path d="M382.028 334.95C384.503 337.85 385.74 339.3 385.545 341.025C385.35 342.75 383.891 343.834 380.974 346.003C365.683 357.367 347.776 364.768 328.849 367.482C309.925 370.195 290.668 368.123 272.814 361.513C269.404 360.25 267.698 359.619 267.027 358.017C266.356 356.415 267.138 354.675 268.702 351.197L287.928 308.441C289.415 305.135 290.158 303.481 291.498 302.852C292.839 302.222 294.807 302.767 298.742 303.856C305.619 305.76 312.842 306.233 319.961 305.212C327.08 304.192 333.881 301.708 339.95 297.949C343.423 295.798 345.159 294.722 346.623 294.95C348.087 295.179 349.264 296.559 351.619 299.318L382.028 334.95Z"/>
</mask>
<path d="M382.028 334.95C384.503 337.85 385.74 339.3 385.545 341.025C385.35 342.75 383.891 343.834 380.974 346.003C365.683 357.367 347.776 364.768 328.849 367.482C309.925 370.195 290.668 368.123 272.814 361.513C269.404 360.25 267.698 359.619 267.027 358.017C266.356 356.415 267.138 354.675 268.702 351.197L287.928 308.441C289.415 305.135 290.158 303.481 291.498 302.852C292.839 302.222 294.807 302.767 298.742 303.856C305.619 305.76 312.842 306.233 319.961 305.212C327.08 304.192 333.881 301.708 339.95 297.949C343.423 295.798 345.159 294.722 346.623 294.95C348.087 295.179 349.264 296.559 351.619 299.318L382.028 334.95Z" fill="#19D184" stroke="white" stroke-width="2" mask="url(#path-2-inside-1_1480_7321)"/>
<mask id="path-3-inside-2_1480_7321" fill="white">
<path d="M208.054 275.453C204.312 276.235 202.441 276.626 201.02 275.623C199.598 274.62 199.351 272.814 198.857 269.202C195.944 247.887 199.047 226.122 207.894 206.403C216.739 186.691 230.921 169.926 248.756 157.966C251.786 155.934 253.302 154.918 254.997 155.316C256.693 155.714 257.641 157.376 259.539 160.698L282.97 201.723C284.762 204.86 285.658 206.428 285.381 207.879C285.105 209.329 283.516 210.602 280.338 213.148C273.964 218.255 268.856 224.828 265.479 232.355C262.101 239.884 260.583 248.077 261.002 256.246C261.211 260.315 261.315 262.35 260.413 263.52C259.51 264.691 257.74 265.061 254.2 265.801L208.054 275.453Z"/>
</mask>
<path d="M208.054 275.453C204.312 276.235 202.441 276.626 201.02 275.623C199.598 274.62 199.351 272.814 198.857 269.202C195.944 247.887 199.047 226.122 207.894 206.403C216.739 186.691 230.921 169.926 248.756 157.966C251.786 155.934 253.302 154.918 254.997 155.316C256.693 155.714 257.641 157.376 259.539 160.698L282.97 201.723C284.762 204.86 285.658 206.428 285.381 207.879C285.105 209.329 283.516 210.602 280.338 213.148C273.964 218.255 268.856 224.828 265.479 232.355C262.101 239.884 260.583 248.077 261.002 256.246C261.211 260.315 261.315 262.35 260.413 263.52C259.51 264.691 257.74 265.061 254.2 265.801L208.054 275.453Z" fill="#8C19C2" stroke="white" stroke-width="2" mask="url(#path-3-inside-2_1480_7321)"/>
<mask id="path-4-inside-3_1480_7321" fill="white">
<path d="M259.404 160.741C257.509 157.432 256.561 155.778 257.073 154.118C257.584 152.459 259.219 151.664 262.489 150.074C279.068 142.013 297.378 138.054 315.876 138.584C337.038 139.191 357.621 145.651 375.349 157.25C393.077 168.849 407.259 185.136 416.327 204.309C424.252 221.066 428.002 239.458 427.31 257.91C427.173 261.552 427.105 263.373 425.789 264.511C424.473 265.648 422.574 265.444 418.775 265.034L371.906 259.982C368.309 259.594 366.51 259.401 365.496 258.324C364.483 257.248 364.387 255.212 364.194 251.14C363.872 244.329 362.21 237.622 359.273 231.413C355.193 222.785 348.811 215.456 340.833 210.237C332.856 205.017 323.593 202.11 314.07 201.837C307.228 201.641 300.443 202.81 294.101 205.246C290.286 206.712 288.379 207.445 286.985 206.949C285.591 206.453 284.69 204.88 282.888 201.735L259.404 160.741Z"/>
</mask>
<path d="M259.404 160.741C257.509 157.432 256.561 155.778 257.073 154.118C257.584 152.459 259.219 151.664 262.489 150.074C279.068 142.013 297.378 138.054 315.876 138.584C337.038 139.191 357.621 145.651 375.349 157.25C393.077 168.849 407.259 185.136 416.327 204.309C424.252 221.066 428.002 239.458 427.31 257.91C427.173 261.552 427.105 263.373 425.789 264.511C424.473 265.648 422.574 265.444 418.775 265.034L371.906 259.982C368.309 259.594 366.51 259.401 365.496 258.324C364.483 257.248 364.387 255.212 364.194 251.14C363.872 244.329 362.21 237.622 359.273 231.413C355.193 222.785 348.811 215.456 340.833 210.237C332.856 205.017 323.593 202.11 314.07 201.837C307.228 201.641 300.443 202.81 294.101 205.246C290.286 206.712 288.379 207.445 286.985 206.949C285.591 206.453 284.69 204.88 282.888 201.735L259.404 160.741Z" fill="#F49A2F" stroke="white" stroke-width="2" mask="url(#path-4-inside-3_1480_7321)"/>
<mask id="path-5-inside-4_1480_7321" fill="white">
<path d="M418.723 265.578C422.516 266.007 424.413 266.221 425.449 267.617C426.485 269.012 426.157 270.803 425.5 274.385C421.216 297.752 409.812 319.225 392.865 335.838C390.259 338.392 388.955 339.67 387.216 339.59C385.476 339.51 384.238 338.05 381.762 335.132L351.217 299.122C348.88 296.368 347.712 294.99 347.717 293.514C347.723 292.038 349.051 290.495 351.707 287.41C356.732 281.572 360.395 274.679 362.424 267.242C363.497 263.306 364.034 261.338 365.258 260.507C366.483 259.677 368.282 259.88 371.88 260.287L418.723 265.578Z"/>
</mask>
<path d="M418.723 265.578C422.516 266.007 424.413 266.221 425.449 267.617C426.485 269.012 426.157 270.803 425.5 274.385C421.216 297.752 409.812 319.225 392.865 335.838C390.259 338.392 388.955 339.67 387.216 339.59C385.476 339.51 384.238 338.05 381.762 335.132L351.217 299.122C348.88 296.368 347.712 294.99 347.717 293.514C347.723 292.038 349.051 290.495 351.707 287.41C356.732 281.572 360.395 274.679 362.424 267.242C363.497 263.306 364.034 261.338 365.258 260.507C366.483 259.677 368.282 259.88 371.88 260.287L418.723 265.578Z" fill="#33B6FF" stroke="white" stroke-width="2" mask="url(#path-5-inside-4_1480_7321)"/>
<mask id="path-6-inside-5_1480_7321" fill="white">
<path d="M268.624 351.133C267.052 354.62 266.266 356.364 264.617 356.922C262.967 357.48 261.362 356.614 258.152 354.881C244.606 347.568 232.639 337.586 222.987 325.506C213.328 313.418 206.221 299.522 202.062 284.663C201.081 281.158 200.59 279.406 201.494 277.921C202.397 276.437 204.266 276.05 208.003 275.275L254.165 265.703C257.712 264.968 259.486 264.6 260.781 265.315C262.077 266.03 262.792 267.941 264.222 271.764C266.134 276.874 268.846 281.666 272.27 285.952C275.697 290.24 279.772 293.941 284.333 296.928C287.74 299.16 289.444 300.276 289.857 301.693C290.271 303.111 289.528 304.758 288.043 308.052L268.624 351.133Z"/>
</mask>
<path d="M268.624 351.133C267.052 354.62 266.266 356.364 264.617 356.922C262.967 357.48 261.362 356.614 258.152 354.881C244.606 347.568 232.639 337.586 222.987 325.506C213.328 313.418 206.221 299.522 202.062 284.663C201.081 281.158 200.59 279.406 201.494 277.921C202.397 276.437 204.266 276.05 208.003 275.275L254.165 265.703C257.712 264.968 259.486 264.6 260.781 265.315C262.077 266.03 262.792 267.941 264.222 271.764C266.134 276.874 268.846 281.666 272.27 285.952C275.697 290.24 279.772 293.941 284.333 296.928C287.74 299.16 289.444 300.276 289.857 301.693C290.271 303.111 289.528 304.758 288.043 308.052L268.624 351.133Z" fill="#0703E8" stroke="white" stroke-width="2" mask="url(#path-6-inside-5_1480_7321)"/>
<path d="M125.516 154.953H186.598L212.11 178.001" stroke="#636770" stroke-width="2" stroke-dasharray="2 2"/>
<path d="M85.625 154.111V152.018L91.1797 146.572C91.7109 146.036 92.1536 145.559 92.5078 145.143C92.862 144.726 93.1276 144.322 93.3047 143.932C93.4818 143.541 93.5703 143.124 93.5703 142.682C93.5703 142.176 93.4557 141.744 93.2266 141.385C92.9974 141.02 92.6823 140.739 92.2812 140.541C91.8802 140.343 91.4245 140.244 90.9141 140.244C90.388 140.244 89.9271 140.354 89.5312 140.572C89.1354 140.786 88.8281 141.09 88.6094 141.486C88.3958 141.882 88.2891 142.354 88.2891 142.9H85.5313C85.5313 141.885 85.763 141.002 86.2266 140.252C86.6901 139.502 87.3281 138.921 88.1406 138.51C88.9583 138.098 89.8958 137.893 90.9531 137.893C92.026 137.893 92.9688 138.093 93.7813 138.494C94.5938 138.895 95.224 139.445 95.6719 140.143C96.125 140.84 96.3516 141.637 96.3516 142.533C96.3516 143.132 96.237 143.721 96.0078 144.299C95.7786 144.877 95.375 145.518 94.7969 146.221C94.224 146.924 93.4193 147.775 92.3828 148.775L89.625 151.58V151.689H96.5938V154.111H85.625ZM105.203 154.416C103.917 154.416 102.813 154.09 101.891 153.439C100.974 152.783 100.268 151.838 99.7734 150.604C99.2839 149.364 99.0391 147.872 99.0391 146.127C99.0443 144.382 99.2917 142.898 99.7813 141.674C100.276 140.445 100.982 139.507 101.898 138.861C102.82 138.215 103.922 137.893 105.203 137.893C106.484 137.893 107.586 138.215 108.508 138.861C109.43 139.507 110.135 140.445 110.625 141.674C111.12 142.903 111.367 144.387 111.367 146.127C111.367 147.877 111.12 149.372 110.625 150.611C110.135 151.846 109.43 152.788 108.508 153.439C107.591 154.09 106.49 154.416 105.203 154.416ZM105.203 151.971C106.203 151.971 106.992 151.479 107.57 150.494C108.154 149.505 108.445 148.049 108.445 146.127C108.445 144.856 108.313 143.788 108.047 142.924C107.781 142.059 107.406 141.408 106.922 140.971C106.438 140.528 105.865 140.307 105.203 140.307C104.208 140.307 103.422 140.801 102.844 141.791C102.266 142.775 101.974 144.221 101.969 146.127C101.964 147.403 102.091 148.476 102.352 149.346C102.617 150.215 102.992 150.872 103.477 151.314C103.961 151.752 104.536 151.971 105.203 151.971ZM94.1797 181.111V180.268C94.1797 179.648 94.3099 179.077 94.5703 178.557C94.8359 178.036 95.2214 177.617 95.7266 177.299C96.2318 176.981 96.8437 176.822 97.5625 176.822C98.3021 176.822 98.9219 176.981 99.4219 177.299C99.9219 177.611 100.299 178.028 100.555 178.549C100.815 179.07 100.945 179.643 100.945 180.268V181.111C100.945 181.731 100.815 182.301 100.555 182.822C100.294 183.343 99.9115 183.762 99.4063 184.08C98.9063 184.398 98.2917 184.557 97.5625 184.557C96.8333 184.557 96.2161 184.398 95.7109 184.08C95.2057 183.762 94.8229 183.343 94.5625 182.822C94.3073 182.301 94.1797 181.731 94.1797 181.111ZM96.2188 180.268V181.111C96.2188 181.523 96.3177 181.9 96.5156 182.244C96.7135 182.588 97.0625 182.76 97.5625 182.76C98.0677 182.76 98.4141 182.59 98.6016 182.252C98.7943 181.908 98.8906 181.528 98.8906 181.111V180.268C98.8906 179.851 98.7995 179.471 98.6172 179.127C98.4349 178.778 98.0833 178.604 97.5625 178.604C97.0729 178.604 96.7266 178.778 96.5234 179.127C96.3203 179.471 96.2188 179.851 96.2188 180.268ZM86.0469 171.955V171.111C86.0469 170.486 86.1797 169.913 86.4453 169.393C86.7109 168.872 87.0964 168.455 87.6016 168.143C88.1068 167.825 88.7188 167.666 89.4375 167.666C90.1719 167.666 90.7891 167.825 91.2891 168.143C91.7943 168.455 92.1745 168.872 92.4297 169.393C92.6849 169.913 92.8125 170.486 92.8125 171.111V171.955C92.8125 172.58 92.6823 173.153 92.4219 173.674C92.1667 174.189 91.7865 174.604 91.2813 174.916C90.776 175.229 90.1615 175.385 89.4375 175.385C88.7031 175.385 88.0833 175.229 87.5781 174.916C87.0781 174.604 86.6979 174.187 86.4375 173.666C86.1771 173.145 86.0469 172.575 86.0469 171.955ZM88.1016 171.111V171.955C88.1016 172.372 88.1979 172.752 88.3906 173.096C88.5885 173.434 88.9375 173.604 89.4375 173.604C89.9375 173.604 90.2813 173.434 90.4688 173.096C90.6615 172.752 90.7578 172.372 90.7578 171.955V171.111C90.7578 170.695 90.6667 170.314 90.4844 169.971C90.3021 169.622 89.9531 169.447 89.4375 169.447C88.9427 169.447 88.5964 169.622 88.3984 169.971C88.2005 170.32 88.1016 170.7 88.1016 171.111ZM86.9375 184.111L97.9375 168.111H99.8906L88.8906 184.111H86.9375Z" fill="#13316B"/>
<path d="M15.2536 177.953V163.408H20.1683C21.3094 163.408 22.2422 163.614 22.9666 164.026C23.6958 164.433 24.2356 164.984 24.5859 165.68C24.9363 166.376 25.1115 167.153 25.1115 168.01C25.1115 168.867 24.9363 169.646 24.5859 170.347C24.2403 171.047 23.7053 171.606 22.9808 172.023C22.2564 172.435 21.3284 172.641 20.1967 172.641H16.674V171.078H20.1399C20.9212 171.078 21.5485 170.943 22.022 170.673C22.4955 170.403 22.8388 170.039 23.0518 169.58C23.2696 169.116 23.3786 168.592 23.3786 168.01C23.3786 167.428 23.2696 166.907 23.0518 166.447C22.8388 165.988 22.4931 165.628 22.0149 165.368C21.5367 165.103 20.9022 164.97 20.1115 164.97H17.0149V177.953H15.2536ZM27.7216 177.953V167.044H29.3409V168.692H29.4545C29.6534 168.152 30.0133 167.714 30.5341 167.378C31.0549 167.042 31.642 166.874 32.2955 166.874C32.4186 166.874 32.5724 166.876 32.7571 166.881C32.9418 166.885 33.0814 166.893 33.1761 166.902V168.607C33.1193 168.592 32.9891 168.571 32.7855 168.543C32.5866 168.509 32.3759 168.493 32.1534 168.493C31.6231 168.493 31.1496 168.604 30.733 168.827C30.321 169.045 29.9943 169.348 29.7528 169.736C29.5161 170.119 29.3977 170.557 29.3977 171.05V177.953H27.7216ZM39.4048 178.18C38.3537 178.18 37.447 177.948 36.6847 177.484C35.9271 177.016 35.3423 176.362 34.9304 175.524C34.5232 174.681 34.3196 173.701 34.3196 172.584C34.3196 171.466 34.5232 170.482 34.9304 169.629C35.3423 168.772 35.9152 168.105 36.6491 167.626C37.3878 167.143 38.2495 166.902 39.2344 166.902C39.8026 166.902 40.3636 166.997 40.9176 167.186C41.4716 167.375 41.9759 167.683 42.4304 168.109C42.8849 168.531 43.2472 169.089 43.517 169.786C43.7869 170.482 43.9219 171.339 43.9219 172.357V173.067H35.5128V171.618H42.2173C42.2173 171.002 42.0942 170.453 41.848 169.97C41.6065 169.487 41.2609 169.106 40.8111 168.827C40.366 168.547 39.8404 168.408 39.2344 168.408C38.5668 168.408 37.9891 168.573 37.5014 168.905C37.0185 169.232 36.6468 169.658 36.3864 170.183C36.1259 170.709 35.9957 171.272 35.9957 171.874V172.839C35.9957 173.663 36.1378 174.362 36.4219 174.935C36.7107 175.503 37.1108 175.936 37.6222 176.234C38.1335 176.528 38.7277 176.675 39.4048 176.675C39.8452 176.675 40.2429 176.613 40.598 176.49C40.9579 176.362 41.268 176.173 41.5284 175.922C41.7888 175.666 41.9901 175.349 42.1321 174.97L43.7514 175.425C43.581 175.974 43.2945 176.457 42.892 176.874C42.4896 177.286 41.9924 177.607 41.4006 177.839C40.8087 178.067 40.1435 178.18 39.4048 178.18ZM54.1989 169.487L52.6932 169.913C52.5985 169.662 52.4588 169.419 52.2741 169.182C52.0942 168.94 51.848 168.741 51.5355 168.585C51.223 168.429 50.8229 168.351 50.3352 168.351C49.6676 168.351 49.1113 168.505 48.6662 168.812C48.2259 169.116 48.0057 169.501 48.0057 169.97C48.0057 170.387 48.1572 170.716 48.4602 170.957C48.7633 171.199 49.2367 171.4 49.8807 171.561L51.5 171.959C52.4754 172.196 53.2022 172.558 53.6804 173.045C54.1586 173.528 54.3977 174.151 54.3977 174.913C54.3977 175.538 54.2178 176.097 53.858 176.589C53.5028 177.082 53.0057 177.47 52.3665 177.754C51.7273 178.038 50.9839 178.18 50.1364 178.18C49.0237 178.18 48.1027 177.939 47.3736 177.456C46.6444 176.973 46.1828 176.268 45.9886 175.339L47.5795 174.942C47.7311 175.529 48.0175 175.969 48.4389 176.263C48.8651 176.556 49.4214 176.703 50.108 176.703C50.8892 176.703 51.5095 176.537 51.9688 176.206C52.4328 175.87 52.6648 175.467 52.6648 174.999C52.6648 174.62 52.5322 174.303 52.267 174.047C52.0019 173.786 51.5947 173.592 51.0455 173.464L49.2273 173.038C48.2282 172.802 47.4943 172.435 47.0256 171.938C46.5616 171.436 46.3295 170.808 46.3295 170.055C46.3295 169.44 46.5024 168.895 46.848 168.422C47.1984 167.948 47.6742 167.577 48.2756 167.307C48.8816 167.037 49.5682 166.902 50.3352 166.902C51.4148 166.902 52.2623 167.139 52.8778 167.612C53.4981 168.086 53.9384 168.711 54.1989 169.487ZM60.131 178.209C59.4397 178.209 58.8124 178.079 58.2489 177.818C57.6855 177.553 57.238 177.172 56.9066 176.675C56.5752 176.173 56.4094 175.567 56.4094 174.857C56.4094 174.232 56.5326 173.725 56.7788 173.337C57.025 172.944 57.354 172.636 57.766 172.413C58.1779 172.191 58.6325 172.025 59.1296 171.916C59.6315 171.803 60.1358 171.713 60.6424 171.646C61.3053 171.561 61.8427 171.497 62.2546 171.455C62.6713 171.407 62.9743 171.329 63.1637 171.22C63.3578 171.111 63.4549 170.922 63.4549 170.652V170.595C63.4549 169.894 63.2631 169.35 62.8796 168.962C62.5008 168.573 61.9255 168.379 61.1538 168.379C60.3536 168.379 59.7262 168.554 59.2717 168.905C58.8171 169.255 58.4975 169.629 58.3129 170.027L56.7219 169.459C57.006 168.796 57.3848 168.28 57.8583 167.911C58.3365 167.536 58.8574 167.276 59.4208 167.129C59.989 166.978 60.5477 166.902 61.0969 166.902C61.4473 166.902 61.8498 166.945 62.3043 167.03C62.7636 167.11 63.2063 167.278 63.6325 167.534C64.0633 167.79 64.4208 168.176 64.7049 168.692C64.989 169.208 65.131 169.899 65.131 170.766V177.953H63.4549V176.476H63.3697C63.256 176.713 63.0666 176.966 62.8015 177.236C62.5363 177.506 62.1836 177.735 61.7433 177.925C61.3029 178.114 60.7655 178.209 60.131 178.209ZM60.3867 176.703C61.0496 176.703 61.6083 176.573 62.0629 176.312C62.5221 176.052 62.8678 175.716 63.0998 175.304C63.3365 174.892 63.4549 174.459 63.4549 174.004V172.47C63.3839 172.555 63.2276 172.634 62.9862 172.705C62.7494 172.771 62.4748 172.83 62.1623 172.882C61.8545 172.929 61.5539 172.972 61.2603 173.01C60.9715 173.043 60.7371 173.071 60.5572 173.095C60.1216 173.152 59.7144 173.244 59.3356 173.372C58.9615 173.495 58.6585 173.682 58.4265 173.933C58.1992 174.179 58.0856 174.516 58.0856 174.942C58.0856 175.524 58.301 175.964 58.7319 176.263C59.1675 176.556 59.7191 176.703 60.3867 176.703ZM69.8665 163.408V177.953H68.1903V163.408H69.8665ZM77.5103 178.18C76.4592 178.18 75.5524 177.948 74.7901 177.484C74.0326 177.016 73.4478 176.362 73.0359 175.524C72.6287 174.681 72.4251 173.701 72.4251 172.584C72.4251 171.466 72.6287 170.482 73.0359 169.629C73.4478 168.772 74.0207 168.105 74.7546 167.626C75.4933 167.143 76.355 166.902 77.3398 166.902C77.908 166.902 78.4691 166.997 79.0231 167.186C79.5771 167.375 80.0813 167.683 80.5359 168.109C80.9904 168.531 81.3526 169.089 81.6225 169.786C81.8924 170.482 82.0273 171.339 82.0273 172.357V173.067H73.6183V171.618H80.3228C80.3228 171.002 80.1997 170.453 79.9535 169.97C79.712 169.487 79.3664 169.106 78.9165 168.827C78.4715 168.547 77.9459 168.408 77.3398 168.408C76.6722 168.408 76.0946 168.573 75.6069 168.905C75.1239 169.232 74.7522 169.658 74.4918 170.183C74.2314 170.709 74.1012 171.272 74.1012 171.874V172.839C74.1012 173.663 74.2433 174.362 74.5273 174.935C74.8162 175.503 75.2163 175.936 75.7276 176.234C76.239 176.528 76.8332 176.675 77.5103 176.675C77.9506 176.675 78.3484 176.613 78.7035 176.49C79.0633 176.362 79.3735 176.173 79.6339 175.922C79.8943 175.666 80.0955 175.349 80.2376 174.97L81.8569 175.425C81.6864 175.974 81.4 176.457 80.9975 176.874C80.5951 177.286 80.0979 177.607 79.506 177.839C78.9142 178.067 78.2489 178.18 77.5103 178.18ZM14.4581 196.97V195.408H25.3672V196.97H20.7933V209.953H19.032V196.97H14.4581ZM30.7081 210.18C29.7232 210.18 28.8591 209.946 28.1158 209.477C27.3771 209.009 26.7995 208.353 26.3828 207.51C25.9709 206.667 25.7649 205.682 25.7649 204.555C25.7649 203.419 25.9709 202.427 26.3828 201.58C26.7995 200.732 27.3771 200.074 28.1158 199.605C28.8591 199.136 29.7232 198.902 30.7081 198.902C31.6929 198.902 32.5547 199.136 33.2933 199.605C34.0367 200.074 34.6143 200.732 35.0263 201.58C35.4429 202.427 35.6513 203.419 35.6513 204.555C35.6513 205.682 35.4429 206.667 35.0263 207.51C34.6143 208.353 34.0367 209.009 33.2933 209.477C32.5547 209.946 31.6929 210.18 30.7081 210.18ZM30.7081 208.675C31.4562 208.675 32.0717 208.483 32.5547 208.099C33.0376 207.716 33.3951 207.212 33.6271 206.587C33.8591 205.962 33.9751 205.285 33.9751 204.555C33.9751 203.826 33.8591 203.147 33.6271 202.517C33.3951 201.887 33.0376 201.378 32.5547 200.99C32.0717 200.602 31.4562 200.408 30.7081 200.408C29.96 200.408 29.3445 200.602 28.8615 200.99C28.3786 201.378 28.0211 201.887 27.7891 202.517C27.5571 203.147 27.4411 203.826 27.4411 204.555C27.4411 205.285 27.5571 205.962 27.7891 206.587C28.0211 207.212 28.3786 207.716 28.8615 208.099C29.3445 208.483 29.96 208.675 30.7081 208.675ZM39.7724 205.976L39.744 203.902H40.0849L44.8576 199.044H46.9315L41.8462 204.186H41.7042L39.7724 205.976ZM38.2099 209.953V195.408H39.886V209.953H38.2099ZM45.1417 209.953L40.8803 204.555L42.0735 203.391L47.2724 209.953H45.1417ZM53.2134 210.18C52.1623 210.18 51.2556 209.948 50.4933 209.484C49.7357 209.016 49.1509 208.362 48.739 207.524C48.3318 206.681 48.1282 205.701 48.1282 204.584C48.1282 203.466 48.3318 202.482 48.739 201.629C49.1509 200.772 49.7238 200.105 50.4577 199.626C51.1964 199.143 52.0581 198.902 53.043 198.902C53.6112 198.902 54.1722 198.997 54.7262 199.186C55.2802 199.375 55.7844 199.683 56.239 200.109C56.6935 200.531 57.0558 201.089 57.3256 201.786C57.5955 202.482 57.7305 203.339 57.7305 204.357V205.067H49.3214V203.618H56.0259C56.0259 203.002 55.9028 202.453 55.6566 201.97C55.4151 201.487 55.0695 201.106 54.6197 200.827C54.1746 200.547 53.649 200.408 53.043 200.408C52.3754 200.408 51.7977 200.573 51.31 200.905C50.8271 201.232 50.4554 201.658 50.195 202.183C49.9345 202.709 49.8043 203.272 49.8043 203.874V204.839C49.8043 205.663 49.9464 206.362 50.2305 206.935C50.5193 207.503 50.9194 207.936 51.4308 208.234C51.9421 208.528 52.5363 208.675 53.2134 208.675C53.6538 208.675 54.0515 208.613 54.4066 208.49C54.7665 208.362 55.0766 208.173 55.337 207.922C55.5974 207.666 55.7987 207.349 55.9407 206.97L57.56 207.425C57.3896 207.974 57.1031 208.457 56.7006 208.874C56.2982 209.286 55.801 209.607 55.2092 209.839C54.6173 210.067 53.9521 210.18 53.2134 210.18ZM61.9563 203.391V209.953H60.2802V199.044H61.8995V200.749H62.0415C62.2972 200.195 62.6855 199.75 63.2063 199.413C63.7272 199.072 64.3995 198.902 65.2234 198.902C65.962 198.902 66.6083 199.054 67.1623 199.357C67.7163 199.655 68.1471 200.109 68.4549 200.72C68.7627 201.326 68.9165 202.093 68.9165 203.021V209.953H67.2404V203.135C67.2404 202.278 67.0179 201.61 66.5728 201.132C66.1277 200.649 65.5169 200.408 64.7404 200.408C64.2054 200.408 63.7272 200.524 63.3058 200.756C62.8891 200.988 62.56 201.326 62.3185 201.771C62.0771 202.216 61.9563 202.756 61.9563 203.391Z" fill="#13316B"/>
<path d="M458.57 309.143L508.181 309.143L550.771 309.143" stroke="#636770" stroke-width="2" stroke-dasharray="2 2"/>
<path d="M568.273 295.479V311.479H565.375V298.299H565.281L561.539 300.689V298.033L565.516 295.479H568.273ZM572.336 311.479V309.385L577.891 303.939C578.422 303.403 578.865 302.926 579.219 302.51C579.573 302.093 579.839 301.689 580.016 301.299C580.193 300.908 580.281 300.492 580.281 300.049C580.281 299.544 580.167 299.111 579.938 298.752C579.708 298.387 579.393 298.106 578.992 297.908C578.591 297.71 578.135 297.611 577.625 297.611C577.099 297.611 576.638 297.721 576.242 297.939C575.846 298.153 575.539 298.458 575.32 298.854C575.107 299.249 575 299.721 575 300.268H572.242C572.242 299.252 572.474 298.369 572.938 297.619C573.401 296.869 574.039 296.288 574.852 295.877C575.669 295.465 576.607 295.26 577.664 295.26C578.737 295.26 579.68 295.46 580.492 295.861C581.305 296.262 581.935 296.812 582.383 297.51C582.836 298.208 583.063 299.005 583.063 299.9C583.063 300.499 582.948 301.088 582.719 301.666C582.49 302.244 582.086 302.885 581.508 303.588C580.935 304.291 580.13 305.143 579.094 306.143L576.336 308.947V309.057H583.305V311.479H572.336ZM594.555 308.479V307.635C594.555 307.015 594.685 306.445 594.945 305.924C595.211 305.403 595.596 304.984 596.102 304.666C596.607 304.348 597.219 304.189 597.937 304.189C598.677 304.189 599.297 304.348 599.797 304.666C600.297 304.979 600.674 305.395 600.93 305.916C601.19 306.437 601.32 307.01 601.32 307.635V308.479C601.32 309.098 601.19 309.669 600.93 310.189C600.669 310.71 600.286 311.13 599.781 311.447C599.281 311.765 598.667 311.924 597.937 311.924C597.208 311.924 596.591 311.765 596.086 311.447C595.581 311.13 595.198 310.71 594.938 310.189C594.682 309.669 594.555 309.098 594.555 308.479ZM596.594 307.635V308.479C596.594 308.89 596.693 309.268 596.891 309.611C597.089 309.955 597.438 310.127 597.937 310.127C598.443 310.127 598.789 309.958 598.977 309.619C599.169 309.275 599.266 308.895 599.266 308.479V307.635C599.266 307.218 599.174 306.838 598.992 306.494C598.81 306.145 598.458 305.971 597.937 305.971C597.448 305.971 597.102 306.145 596.898 306.494C596.695 306.838 596.594 307.218 596.594 307.635ZM586.422 299.322V298.479C586.422 297.854 586.555 297.281 586.82 296.76C587.086 296.239 587.471 295.822 587.977 295.51C588.482 295.192 589.094 295.033 589.813 295.033C590.547 295.033 591.164 295.192 591.664 295.51C592.169 295.822 592.549 296.239 592.805 296.76C593.06 297.281 593.188 297.854 593.188 298.479V299.322C593.188 299.947 593.057 300.52 592.797 301.041C592.542 301.557 592.161 301.971 591.656 302.283C591.151 302.596 590.536 302.752 589.813 302.752C589.078 302.752 588.458 302.596 587.953 302.283C587.453 301.971 587.073 301.554 586.812 301.033C586.552 300.512 586.422 299.942 586.422 299.322ZM588.477 298.479V299.322C588.477 299.739 588.573 300.119 588.766 300.463C588.964 300.801 589.313 300.971 589.813 300.971C590.313 300.971 590.656 300.801 590.844 300.463C591.036 300.119 591.133 299.739 591.133 299.322V298.479C591.133 298.062 591.042 297.682 590.859 297.338C590.677 296.989 590.328 296.814 589.813 296.814C589.318 296.814 588.971 296.989 588.773 297.338C588.576 297.687 588.477 298.067 588.477 298.479ZM587.313 311.479L598.313 295.479H600.266L589.266 311.479H587.313Z" fill="#13316B"/>
<path d="M562.105 335.32V320.775H567.02C568.161 320.775 569.094 320.981 569.818 321.393C570.547 321.8 571.087 322.352 571.438 323.048C571.788 323.744 571.963 324.52 571.963 325.377C571.963 326.234 571.788 327.013 571.438 327.714C571.092 328.415 570.557 328.973 569.832 329.39C569.108 329.802 568.18 330.008 567.048 330.008H563.526V328.445H566.991C567.773 328.445 568.4 328.31 568.874 328.04C569.347 327.771 569.69 327.406 569.903 326.947C570.121 326.483 570.23 325.96 570.23 325.377C570.23 324.795 570.121 324.274 569.903 323.815C569.69 323.355 569.345 322.996 568.866 322.735C568.388 322.47 567.754 322.337 566.963 322.337H563.866V335.32H562.105ZM574.573 335.32V324.411H576.192V326.059H576.306C576.505 325.519 576.865 325.081 577.386 324.745C577.906 324.409 578.494 324.241 579.147 324.241C579.27 324.241 579.424 324.243 579.609 324.248C579.793 324.253 579.933 324.26 580.028 324.269V325.974C579.971 325.96 579.841 325.938 579.637 325.91C579.438 325.877 579.228 325.86 579.005 325.86C578.475 325.86 578.001 325.971 577.585 326.194C577.173 326.412 576.846 326.715 576.604 327.103C576.368 327.487 576.249 327.924 576.249 328.417V335.32H574.573ZM586.256 335.548C585.205 335.548 584.299 335.316 583.536 334.852C582.779 334.383 582.194 333.729 581.782 332.891C581.375 332.049 581.171 331.068 581.171 329.951C581.171 328.834 581.375 327.849 581.782 326.996C582.194 326.139 582.767 325.472 583.501 324.994C584.239 324.511 585.101 324.269 586.086 324.269C586.654 324.269 587.215 324.364 587.769 324.553C588.323 324.743 588.827 325.05 589.282 325.477C589.737 325.898 590.099 326.457 590.369 327.153C590.638 327.849 590.773 328.706 590.773 329.724V330.434H582.364V328.985H589.069C589.069 328.37 588.946 327.82 588.7 327.337C588.458 326.854 588.112 326.473 587.663 326.194C587.218 325.915 586.692 325.775 586.086 325.775C585.418 325.775 584.841 325.941 584.353 326.272C583.87 326.599 583.498 327.025 583.238 327.55C582.978 328.076 582.847 328.639 582.847 329.241V330.207C582.847 331.031 582.989 331.729 583.273 332.302C583.562 332.87 583.962 333.303 584.474 333.602C584.985 333.895 585.579 334.042 586.256 334.042C586.697 334.042 587.094 333.98 587.45 333.857C587.809 333.729 588.12 333.54 588.38 333.289C588.64 333.033 588.842 332.716 588.984 332.337L590.603 332.792C590.433 333.341 590.146 333.824 589.744 334.241C589.341 334.653 588.844 334.975 588.252 335.207C587.66 335.434 586.995 335.548 586.256 335.548ZM601.05 326.854L599.545 327.281C599.45 327.03 599.31 326.786 599.126 326.549C598.946 326.308 598.7 326.109 598.387 325.952C598.075 325.796 597.674 325.718 597.187 325.718C596.519 325.718 595.963 325.872 595.518 326.18C595.077 326.483 594.857 326.869 594.857 327.337C594.857 327.754 595.009 328.083 595.312 328.325C595.615 328.566 596.088 328.767 596.732 328.928L598.352 329.326C599.327 329.563 600.054 329.925 600.532 330.413C601.01 330.896 601.249 331.518 601.249 332.281C601.249 332.906 601.069 333.464 600.71 333.957C600.354 334.449 599.857 334.837 599.218 335.121C598.579 335.406 597.835 335.548 596.988 335.548C595.875 335.548 594.954 335.306 594.225 334.823C593.496 334.34 593.034 333.635 592.84 332.707L594.431 332.309C594.583 332.896 594.869 333.336 595.29 333.63C595.717 333.924 596.273 334.07 596.96 334.07C597.741 334.07 598.361 333.905 598.82 333.573C599.284 333.237 599.516 332.835 599.516 332.366C599.516 331.987 599.384 331.67 599.119 331.414C598.853 331.154 598.446 330.96 597.897 330.832L596.079 330.406C595.08 330.169 594.346 329.802 593.877 329.305C593.413 328.803 593.181 328.175 593.181 327.423C593.181 326.807 593.354 326.263 593.7 325.789C594.05 325.316 594.526 324.944 595.127 324.674C595.733 324.404 596.42 324.269 597.187 324.269C598.266 324.269 599.114 324.506 599.729 324.979C600.35 325.453 600.79 326.078 601.05 326.854ZM606.983 335.576C606.291 335.576 605.664 335.446 605.1 335.185C604.537 334.92 604.09 334.539 603.758 334.042C603.427 333.54 603.261 332.934 603.261 332.224C603.261 331.599 603.384 331.092 603.63 330.704C603.877 330.311 604.206 330.003 604.618 329.781C605.029 329.558 605.484 329.392 605.981 329.283C606.483 329.17 606.987 329.08 607.494 329.013C608.157 328.928 608.694 328.864 609.106 328.822C609.523 328.774 609.826 328.696 610.015 328.587C610.209 328.478 610.306 328.289 610.306 328.019V327.962C610.306 327.262 610.115 326.717 609.731 326.329C609.352 325.941 608.777 325.746 608.005 325.746C607.205 325.746 606.578 325.922 606.123 326.272C605.669 326.622 605.349 326.996 605.164 327.394L603.574 326.826C603.858 326.163 604.236 325.647 604.71 325.278C605.188 324.904 605.709 324.643 606.272 324.496C606.841 324.345 607.399 324.269 607.949 324.269C608.299 324.269 608.701 324.312 609.156 324.397C609.615 324.478 610.058 324.646 610.484 324.901C610.915 325.157 611.272 325.543 611.556 326.059C611.841 326.575 611.983 327.266 611.983 328.133V335.32H610.306V333.843H610.221C610.108 334.08 609.918 334.333 609.653 334.603C609.388 334.873 609.035 335.103 608.595 335.292C608.154 335.481 607.617 335.576 606.983 335.576ZM607.238 334.07C607.901 334.07 608.46 333.94 608.914 333.68C609.374 333.419 609.719 333.083 609.951 332.671C610.188 332.259 610.306 331.826 610.306 331.371V329.837C610.235 329.923 610.079 330.001 609.838 330.072C609.601 330.138 609.326 330.197 609.014 330.249C608.706 330.297 608.405 330.339 608.112 330.377C607.823 330.41 607.589 330.439 607.409 330.462C606.973 330.519 606.566 330.612 606.187 330.739C605.813 330.862 605.51 331.049 605.278 331.3C605.051 331.547 604.937 331.883 604.937 332.309C604.937 332.891 605.153 333.332 605.583 333.63C606.019 333.924 606.571 334.07 607.238 334.07ZM616.718 320.775V335.32H615.042V320.775H616.718ZM624.362 335.548C623.311 335.548 622.404 335.316 621.642 334.852C620.884 334.383 620.299 333.729 619.887 332.891C619.48 332.049 619.277 331.068 619.277 329.951C619.277 328.834 619.48 327.849 619.887 326.996C620.299 326.139 620.872 325.472 621.606 324.994C622.345 324.511 623.207 324.269 624.191 324.269C624.76 324.269 625.321 324.364 625.875 324.553C626.429 324.743 626.933 325.05 627.387 325.477C627.842 325.898 628.204 326.457 628.474 327.153C628.744 327.849 628.879 328.706 628.879 329.724V330.434H620.47V328.985H627.174C627.174 328.37 627.051 327.82 626.805 327.337C626.564 326.854 626.218 326.473 625.768 326.194C625.323 325.915 624.797 325.775 624.191 325.775C623.524 325.775 622.946 325.941 622.458 326.272C621.975 326.599 621.604 327.025 621.343 327.55C621.083 328.076 620.953 328.639 620.953 329.241V330.207C620.953 331.031 621.095 331.729 621.379 332.302C621.668 332.87 622.068 333.303 622.579 333.602C623.091 333.895 623.685 334.042 624.362 334.042C624.802 334.042 625.2 333.98 625.555 333.857C625.915 333.729 626.225 333.54 626.485 333.289C626.746 333.033 626.947 332.716 627.089 332.337L628.708 332.792C628.538 333.341 628.252 333.824 627.849 334.241C627.447 334.653 626.949 334.975 626.358 335.207C625.766 335.434 625.1 335.548 624.362 335.548ZM636.485 322.337V320.775H647.395V322.337H642.821V335.32H641.059V322.337H636.485ZM652.735 335.548C651.751 335.548 650.886 335.313 650.143 334.844C649.404 334.376 648.827 333.72 648.41 332.877C647.998 332.034 647.792 331.049 647.792 329.923C647.792 328.786 647.998 327.794 648.41 326.947C648.827 326.099 649.404 325.441 650.143 324.972C650.886 324.504 651.751 324.269 652.735 324.269C653.72 324.269 654.582 324.504 655.321 324.972C656.064 325.441 656.642 326.099 657.054 326.947C657.47 327.794 657.679 328.786 657.679 329.923C657.679 331.049 657.47 332.034 657.054 332.877C656.642 333.72 656.064 334.376 655.321 334.844C654.582 335.313 653.72 335.548 652.735 335.548ZM652.735 334.042C653.484 334.042 654.099 333.85 654.582 333.467C655.065 333.083 655.422 332.579 655.654 331.954C655.886 331.329 656.002 330.652 656.002 329.923C656.002 329.193 655.886 328.514 655.654 327.884C655.422 327.254 655.065 326.746 654.582 326.357C654.099 325.969 653.484 325.775 652.735 325.775C651.987 325.775 651.372 325.969 650.889 326.357C650.406 326.746 650.048 327.254 649.816 327.884C649.584 328.514 649.468 329.193 649.468 329.923C649.468 330.652 649.584 331.329 649.816 331.954C650.048 332.579 650.406 333.083 650.889 333.467C651.372 333.85 651.987 334.042 652.735 334.042ZM661.8 331.343L661.771 329.269H662.112L666.885 324.411H668.959L663.874 329.553H663.732L661.8 331.343ZM660.237 335.32V320.775H661.913V335.32H660.237ZM667.169 335.32L662.908 329.923L664.101 328.758L669.3 335.32H667.169ZM675.241 335.548C674.19 335.548 673.283 335.316 672.521 334.852C671.763 334.383 671.178 333.729 670.766 332.891C670.359 332.049 670.156 331.068 670.156 329.951C670.156 328.834 670.359 327.849 670.766 326.996C671.178 326.139 671.751 325.472 672.485 324.994C673.224 324.511 674.085 324.269 675.07 324.269C675.638 324.269 676.2 324.364 676.754 324.553C677.308 324.743 677.812 325.05 678.266 325.477C678.721 325.898 679.083 326.457 679.353 327.153C679.623 327.849 679.758 328.706 679.758 329.724V330.434H671.349V328.985H678.053C678.053 328.37 677.93 327.82 677.684 327.337C677.442 326.854 677.097 326.473 676.647 326.194C676.202 325.915 675.676 325.775 675.07 325.775C674.403 325.775 673.825 325.941 673.337 326.272C672.854 326.599 672.483 327.025 672.222 327.55C671.962 328.076 671.832 328.639 671.832 329.241V330.207C671.832 331.031 671.974 331.729 672.258 332.302C672.547 332.87 672.947 333.303 673.458 333.602C673.969 333.895 674.564 334.042 675.241 334.042C675.681 334.042 676.079 333.98 676.434 333.857C676.794 333.729 677.104 333.54 677.364 333.289C677.625 333.033 677.826 332.716 677.968 332.337L679.587 332.792C679.417 333.341 679.13 333.824 678.728 334.241C678.326 334.653 677.828 334.975 677.237 335.207C676.645 335.434 675.979 335.548 675.241 335.548ZM683.984 328.758V335.32H682.308V324.411H683.927V326.116H684.069C684.325 325.562 684.713 325.117 685.234 324.781C685.754 324.44 686.427 324.269 687.251 324.269C687.989 324.269 688.636 324.421 689.19 324.724C689.744 325.022 690.174 325.477 690.482 326.087C690.79 326.693 690.944 327.46 690.944 328.388V335.32H689.268V328.502C689.268 327.645 689.045 326.978 688.6 326.499C688.155 326.016 687.544 325.775 686.768 325.775C686.233 325.775 685.754 325.891 685.333 326.123C684.916 326.355 684.587 326.693 684.346 327.138C684.104 327.584 683.984 328.123 683.984 328.758Z" fill="#13316B"/>
<path d="M124.719 313.115H174.99H205.752" stroke="#636770" stroke-width="2" stroke-dasharray="2 2"/>
<path d="M88.9609 298.658V314.658H86.0625V301.479H85.9688L82.2266 303.869V301.213L86.2031 298.658H88.9609ZM98.5859 314.877C97.5443 314.877 96.612 314.682 95.7891 314.291C94.9661 313.895 94.3125 313.354 93.8281 312.666C93.349 311.979 93.0938 311.192 93.0625 310.307H95.875C95.9271 310.963 96.2109 311.499 96.7266 311.916C97.2422 312.327 97.862 312.533 98.5859 312.533C99.1536 312.533 99.6589 312.403 100.102 312.143C100.544 311.882 100.893 311.52 101.148 311.057C101.404 310.593 101.529 310.064 101.523 309.471C101.529 308.867 101.401 308.33 101.141 307.861C100.88 307.393 100.523 307.025 100.07 306.76C99.6172 306.489 99.0964 306.354 98.5078 306.354C98.0286 306.348 97.5573 306.437 97.0938 306.619C96.6302 306.801 96.263 307.041 95.9922 307.338L93.375 306.908L94.2109 298.658H103.492V301.08H96.6094L96.1484 305.322H96.2422C96.5391 304.973 96.9583 304.684 97.5 304.455C98.0417 304.221 98.6354 304.104 99.2813 304.104C100.25 304.104 101.115 304.333 101.875 304.791C102.635 305.244 103.234 305.869 103.672 306.666C104.109 307.463 104.328 308.374 104.328 309.4C104.328 310.458 104.083 311.4 103.594 312.229C103.109 313.051 102.435 313.7 101.57 314.174C100.711 314.643 99.7161 314.877 98.5859 314.877ZM91.0078 341.658V340.814C91.0078 340.195 91.138 339.624 91.3984 339.104C91.6641 338.583 92.0495 338.163 92.5547 337.846C93.0599 337.528 93.6719 337.369 94.3906 337.369C95.1302 337.369 95.75 337.528 96.25 337.846C96.75 338.158 97.1276 338.575 97.3828 339.096C97.6432 339.617 97.7734 340.189 97.7734 340.814V341.658C97.7734 342.278 97.6432 342.848 97.3828 343.369C97.1224 343.89 96.7396 344.309 96.2344 344.627C95.7344 344.945 95.1198 345.104 94.3906 345.104C93.6615 345.104 93.0443 344.945 92.5391 344.627C92.0339 344.309 91.651 343.89 91.3906 343.369C91.1354 342.848 91.0078 342.278 91.0078 341.658ZM93.0469 340.814V341.658C93.0469 342.07 93.1458 342.447 93.3438 342.791C93.5417 343.135 93.8906 343.307 94.3906 343.307C94.8958 343.307 95.2422 343.137 95.4297 342.799C95.6224 342.455 95.7188 342.075 95.7188 341.658V340.814C95.7188 340.398 95.6276 340.018 95.4453 339.674C95.263 339.325 94.9115 339.15 94.3906 339.15C93.901 339.15 93.5547 339.325 93.3516 339.674C93.1484 340.018 93.0469 340.398 93.0469 340.814ZM82.875 332.502V331.658C82.875 331.033 83.0078 330.46 83.2734 329.939C83.5391 329.419 83.9245 329.002 84.4297 328.689C84.9349 328.372 85.5469 328.213 86.2656 328.213C87 328.213 87.6172 328.372 88.1172 328.689C88.6224 329.002 89.0026 329.419 89.2578 329.939C89.513 330.46 89.6406 331.033 89.6406 331.658V332.502C89.6406 333.127 89.5104 333.7 89.25 334.221C88.9948 334.736 88.6146 335.15 88.1094 335.463C87.6042 335.775 86.9896 335.932 86.2656 335.932C85.5313 335.932 84.9115 335.775 84.4063 335.463C83.9063 335.15 83.526 334.734 83.2656 334.213C83.0052 333.692 82.875 333.122 82.875 332.502ZM84.9297 331.658V332.502C84.9297 332.919 85.026 333.299 85.2188 333.643C85.4167 333.981 85.7656 334.15 86.2656 334.15C86.7656 334.15 87.1094 333.981 87.2969 333.643C87.4896 333.299 87.5859 332.919 87.5859 332.502V331.658C87.5859 331.242 87.4948 330.861 87.3125 330.518C87.1302 330.169 86.7813 329.994 86.2656 329.994C85.7708 329.994 85.4245 330.169 85.2266 330.518C85.0286 330.867 84.9297 331.247 84.9297 331.658ZM83.7656 344.658L94.7656 328.658H96.7188L85.7188 344.658H83.7656Z" fill="#13316B"/>
<path d="M0.965909 326.312V324.749H11.875V326.312H7.30114V339.295H5.53977V326.312H0.965909ZM17.358 339.522C16.3068 339.522 15.4001 339.29 14.6378 338.826C13.8802 338.357 13.2955 337.704 12.8835 336.866C12.4763 336.023 12.2727 335.043 12.2727 333.926C12.2727 332.808 12.4763 331.823 12.8835 330.971C13.2955 330.114 13.8684 329.446 14.6023 328.968C15.3409 328.485 16.2027 328.244 17.1875 328.244C17.7557 328.244 18.3168 328.338 18.8707 328.528C19.4247 328.717 19.929 329.025 20.3835 329.451C20.8381 329.873 21.2003 330.431 21.4702 331.127C21.7401 331.823 21.875 332.68 21.875 333.698V334.409H13.4659V332.96H20.1705C20.1705 332.344 20.0473 331.795 19.8011 331.312C19.5597 330.829 19.214 330.448 18.7642 330.169C18.3191 329.889 17.7936 329.749 17.1875 329.749C16.5199 329.749 15.9422 329.915 15.4545 330.247C14.9716 330.573 14.5999 330.999 14.3395 331.525C14.0791 332.051 13.9489 332.614 13.9489 333.215V334.181C13.9489 335.005 14.0909 335.704 14.375 336.276C14.6638 336.845 15.0639 337.278 15.5753 337.576C16.0866 337.87 16.6809 338.017 17.358 338.017C17.7983 338.017 18.196 337.955 18.5511 337.832C18.911 337.704 19.2211 337.515 19.4815 337.264C19.742 337.008 19.9432 336.691 20.0852 336.312L21.7045 336.767C21.5341 337.316 21.2476 337.799 20.8452 338.215C20.4427 338.627 19.9455 338.949 19.3537 339.181C18.7618 339.409 18.0966 339.522 17.358 339.522ZM27.6349 339.551C26.9437 339.551 26.3163 339.42 25.7528 339.16C25.1894 338.895 24.742 338.514 24.4105 338.017C24.0791 337.515 23.9134 336.909 23.9134 336.198C23.9134 335.573 24.0365 335.067 24.2827 334.678C24.5289 334.285 24.858 333.978 25.2699 333.755C25.6818 333.533 26.1364 333.367 26.6335 333.258C27.1354 333.144 27.6397 333.054 28.1463 332.988C28.8092 332.903 29.3466 332.839 29.7585 332.796C30.1752 332.749 30.4782 332.671 30.6676 332.562C30.8617 332.453 30.9588 332.264 30.9588 331.994V331.937C30.9588 331.236 30.767 330.692 30.3835 330.303C30.0047 329.915 29.4295 329.721 28.6577 329.721C27.8575 329.721 27.2301 329.896 26.7756 330.247C26.321 330.597 26.0014 330.971 25.8168 331.369L24.2259 330.801C24.5099 330.138 24.8887 329.622 25.3622 329.252C25.8404 328.878 26.3613 328.618 26.9247 328.471C27.4929 328.32 28.0516 328.244 28.6009 328.244C28.9512 328.244 29.3537 328.286 29.8082 328.372C30.2675 328.452 30.7102 328.62 31.1364 328.876C31.5672 329.132 31.9247 329.517 32.2088 330.034C32.4929 330.55 32.6349 331.241 32.6349 332.107V339.295H30.9588V337.818H30.8736C30.7599 338.054 30.5705 338.308 30.3054 338.578C30.0402 338.847 29.6875 339.077 29.2472 339.267C28.8068 339.456 28.2694 339.551 27.6349 339.551ZM27.8906 338.045C28.5535 338.045 29.1122 337.915 29.5668 337.654C30.026 337.394 30.3717 337.058 30.6037 336.646C30.8404 336.234 30.9588 335.801 30.9588 335.346V333.812C30.8878 333.897 30.7315 333.975 30.4901 334.046C30.2533 334.113 29.9787 334.172 29.6662 334.224C29.3584 334.271 29.0578 334.314 28.7642 334.352C28.4754 334.385 28.241 334.413 28.0611 334.437C27.6255 334.494 27.2183 334.586 26.8395 334.714C26.4654 334.837 26.1624 335.024 25.9304 335.275C25.7031 335.521 25.5895 335.857 25.5895 336.284C25.5895 336.866 25.8049 337.306 26.2358 337.605C26.6714 337.898 27.223 338.045 27.8906 338.045ZM35.6942 339.295V328.386H37.3136V330.09H37.4556C37.6829 329.508 38.0498 329.056 38.5565 328.734C39.0631 328.407 39.6715 328.244 40.3817 328.244C41.1014 328.244 41.7004 328.407 42.1786 328.734C42.6616 329.056 43.038 329.508 43.3079 330.09H43.4215C43.7009 329.527 44.1199 329.079 44.6786 328.748C45.2373 328.412 45.9073 328.244 46.6886 328.244C47.6639 328.244 48.4618 328.549 49.082 329.16C49.7023 329.766 50.0124 330.711 50.0124 331.994V339.295H48.3363V331.994C48.3363 331.189 48.1161 330.614 47.6758 330.268C47.2354 329.922 46.717 329.749 46.1204 329.749C45.3533 329.749 44.7591 329.981 44.3377 330.445C43.9163 330.905 43.7056 331.487 43.7056 332.193V339.295H42.0011V331.823C42.0011 331.203 41.7998 330.704 41.3974 330.325C40.9949 329.941 40.4764 329.749 39.842 329.749C39.4064 329.749 38.9992 329.865 38.6204 330.097C38.2463 330.329 37.9433 330.651 37.7113 331.063C37.484 331.471 37.3704 331.942 37.3704 332.477V339.295H35.6942ZM62.8214 339.494C61.8649 339.494 61.0411 339.319 60.3498 338.968C59.6585 338.618 59.1258 338.137 58.7518 337.526C58.3777 336.916 58.1907 336.217 58.1907 335.431C58.1907 334.825 58.3185 334.288 58.5742 333.819C58.8346 333.346 59.1921 332.908 59.6467 332.505C60.1059 332.098 60.6339 331.691 61.2305 331.284L63.3327 329.721C63.7447 329.451 64.0737 329.162 64.32 328.855C64.5709 328.547 64.6964 328.144 64.6964 327.647C64.6964 327.278 64.533 326.92 64.2063 326.575C63.8844 326.229 63.4606 326.056 62.935 326.056C62.5657 326.056 62.239 326.151 61.9549 326.34C61.6755 326.525 61.4554 326.762 61.2944 327.051C61.1381 327.335 61.06 327.628 61.06 327.931C61.06 328.272 61.1523 328.618 61.337 328.968C61.5264 329.314 61.7655 329.669 62.0543 330.034C62.3479 330.393 62.6509 330.763 62.9634 331.142L69.6396 339.295H67.6225L62.1112 332.647C61.5998 332.032 61.1358 331.473 60.7191 330.971C60.3024 330.469 59.971 329.974 59.7248 329.487C59.4786 328.999 59.3555 328.471 59.3555 327.903C59.3555 327.249 59.4999 326.677 59.7887 326.184C60.0823 325.687 60.4918 325.301 61.0174 325.026C61.5477 324.747 62.168 324.607 62.8782 324.607C63.6074 324.607 64.2347 324.749 64.7603 325.034C65.2859 325.313 65.6907 325.685 65.9748 326.149C66.2589 326.608 66.4009 327.107 66.4009 327.647C66.4009 328.343 66.2281 328.947 65.8825 329.458C65.5368 329.97 65.0657 330.445 64.4691 330.886L61.5714 333.045C60.918 333.528 60.4753 333.997 60.2433 334.451C60.0112 334.906 59.8952 335.232 59.8952 335.431C59.8952 335.886 60.0136 336.31 60.2504 336.703C60.4871 337.096 60.8209 337.413 61.2518 337.654C61.6826 337.896 62.1869 338.017 62.7646 338.017C63.3138 338.017 63.8488 337.901 64.3697 337.669C64.8905 337.432 65.3616 337.091 65.783 336.646C66.2092 336.201 66.5453 335.666 66.7915 335.041C67.0425 334.416 67.168 333.713 67.168 332.931H68.7873C68.7873 333.897 68.676 334.686 68.4535 335.296C68.2309 335.907 67.98 336.385 67.7006 336.731C67.4213 337.077 67.1964 337.335 67.0259 337.505C66.9691 337.576 66.917 337.647 66.8697 337.718C66.8223 337.789 66.7702 337.86 66.7134 337.931C66.2447 338.457 65.6528 338.85 64.9379 339.11C64.2229 339.366 63.5174 339.494 62.8214 339.494ZM2.35795 371.295H0.511364L5.85227 356.749H7.67045L13.0114 371.295H11.1648L6.81818 359.051H6.70455L2.35795 371.295ZM3.03977 365.613H10.483V367.176H3.03977V365.613ZM19.169 371.522C18.2599 371.522 17.4574 371.293 16.7614 370.833C16.0653 370.369 15.5208 369.716 15.1278 368.873C14.7348 368.026 14.5384 367.024 14.5384 365.869C14.5384 364.723 14.7348 363.729 15.1278 362.886C15.5208 362.043 16.0677 361.392 16.7685 360.933C17.4692 360.473 18.2789 360.244 19.1974 360.244C19.9077 360.244 20.4688 360.362 20.8807 360.599C21.2973 360.831 21.6146 361.096 21.8324 361.394C22.0549 361.688 22.2277 361.929 22.3509 362.119H22.4929V356.749H24.169V371.295H22.5497V369.619H22.3509C22.2277 369.818 22.0526 370.069 21.8253 370.372C21.598 370.67 21.2737 370.937 20.8523 371.174C20.4309 371.406 19.8698 371.522 19.169 371.522ZM19.3963 370.017C20.0687 370.017 20.6368 369.841 21.1009 369.491C21.5649 369.136 21.9176 368.646 22.1591 368.021C22.4006 367.391 22.5213 366.664 22.5213 365.84C22.5213 365.026 22.4029 364.313 22.1662 363.703C21.9295 363.087 21.5791 362.609 21.1151 362.268C20.651 361.922 20.0781 361.749 19.3963 361.749C18.6861 361.749 18.0942 361.932 17.6207 362.296C17.152 362.656 16.7992 363.146 16.5625 363.767C16.3305 364.382 16.2145 365.073 16.2145 365.84C16.2145 366.617 16.3329 367.322 16.5696 367.957C16.8111 368.587 17.1662 369.088 17.6349 369.463C18.1084 369.832 18.6955 370.017 19.3963 370.017ZM36.392 360.386L32.358 371.295H30.6534L26.6193 360.386H28.4375L31.4489 369.079H31.5625L34.5739 360.386H36.392ZM38.6044 371.295V360.386H40.2805V371.295H38.6044ZM39.4567 358.568C39.13 358.568 38.8482 358.456 38.6115 358.234C38.3795 358.011 38.2635 357.744 38.2635 357.431C38.2635 357.119 38.3795 356.851 38.6115 356.629C38.8482 356.406 39.13 356.295 39.4567 356.295C39.7834 356.295 40.0627 356.406 40.2947 356.629C40.5315 356.851 40.6499 357.119 40.6499 357.431C40.6499 357.744 40.5315 358.011 40.2947 358.234C40.0627 358.456 39.7834 358.568 39.4567 358.568ZM51.0778 362.829L49.5721 363.255C49.4774 363.004 49.3377 362.76 49.1531 362.524C48.9731 362.282 48.7269 362.083 48.4144 361.927C48.1019 361.771 47.7018 361.693 47.2141 361.693C46.5465 361.693 45.9902 361.847 45.5451 362.154C45.1048 362.457 44.8846 362.843 44.8846 363.312C44.8846 363.729 45.0361 364.058 45.3391 364.299C45.6422 364.541 46.1156 364.742 46.7596 364.903L48.3789 365.301C49.3543 365.537 50.0811 365.9 50.5593 366.387C51.0375 366.87 51.2766 367.493 51.2766 368.255C51.2766 368.88 51.0967 369.439 50.7369 369.931C50.3817 370.424 49.8846 370.812 49.2454 371.096C48.6062 371.38 47.8628 371.522 47.0153 371.522C45.9026 371.522 44.9817 371.281 44.2525 370.798C43.5233 370.315 43.0617 369.609 42.8675 368.681L44.4585 368.284C44.61 368.871 44.8964 369.311 45.3178 369.605C45.744 369.898 46.3003 370.045 46.9869 370.045C47.7681 370.045 48.3884 369.879 48.8477 369.548C49.3117 369.212 49.5437 368.809 49.5437 368.34C49.5437 367.962 49.4111 367.644 49.146 367.389C48.8808 367.128 48.4736 366.934 47.9244 366.806L46.1062 366.38C45.1071 366.143 44.3732 365.776 43.9045 365.279C43.4405 364.777 43.2085 364.15 43.2085 363.397C43.2085 362.782 43.3813 362.237 43.7269 361.764C44.0773 361.29 44.5531 360.919 45.1545 360.649C45.7605 360.379 46.4471 360.244 47.2141 360.244C48.2937 360.244 49.1412 360.481 49.7567 360.954C50.377 361.427 50.8174 362.052 51.0778 362.829ZM58.2315 371.522C57.2467 371.522 56.3826 371.288 55.6392 370.819C54.9006 370.35 54.3229 369.695 53.9062 368.852C53.4943 368.009 53.2884 367.024 53.2884 365.897C53.2884 364.761 53.4943 363.769 53.9062 362.921C54.3229 362.074 54.9006 361.416 55.6392 360.947C56.3826 360.478 57.2467 360.244 58.2315 360.244C59.2164 360.244 60.0781 360.478 60.8168 360.947C61.5601 361.416 62.1378 362.074 62.5497 362.921C62.9664 363.769 63.1747 364.761 63.1747 365.897C63.1747 367.024 62.9664 368.009 62.5497 368.852C62.1378 369.695 61.5601 370.35 60.8168 370.819C60.0781 371.288 59.2164 371.522 58.2315 371.522ZM58.2315 370.017C58.9796 370.017 59.5952 369.825 60.0781 369.441C60.5611 369.058 60.9186 368.553 61.1506 367.928C61.3826 367.303 61.4986 366.626 61.4986 365.897C61.4986 365.168 61.3826 364.489 61.1506 363.859C60.9186 363.229 60.5611 362.72 60.0781 362.332C59.5952 361.944 58.9796 361.749 58.2315 361.749C57.4834 361.749 56.8679 361.944 56.3849 362.332C55.902 362.72 55.5445 363.229 55.3125 363.859C55.0805 364.489 54.9645 365.168 54.9645 365.897C54.9645 366.626 55.0805 367.303 55.3125 367.928C55.5445 368.553 55.902 369.058 56.3849 369.441C56.8679 369.825 57.4834 370.017 58.2315 370.017ZM65.7333 371.295V360.386H67.3526V362.034H67.4663C67.6651 361.494 68.025 361.056 68.5458 360.72C69.0666 360.383 69.6538 360.215 70.3072 360.215C70.4303 360.215 70.5842 360.218 70.7688 360.222C70.9535 360.227 71.0932 360.234 71.1879 360.244V361.948C71.131 361.934 71.0008 361.913 70.7972 361.884C70.5984 361.851 70.3877 361.835 70.1651 361.835C69.6348 361.835 69.1613 361.946 68.7447 362.169C68.3327 362.386 68.006 362.689 67.7646 363.078C67.5278 363.461 67.4094 363.899 67.4094 364.392V371.295H65.7333Z" fill="#13316B"/>
<path d="M508.859 147.803H471.17H433.48L401.996 170.851" stroke="#636770" stroke-width="2" stroke-dasharray="2 2"/>
<path d="M525.953 145.59C524.828 145.59 523.828 145.397 522.953 145.012C522.083 144.626 521.396 144.09 520.891 143.402C520.385 142.715 520.117 141.921 520.086 141.02H523.023C523.049 141.452 523.193 141.829 523.453 142.152C523.714 142.47 524.06 142.717 524.492 142.895C524.924 143.072 525.409 143.16 525.945 143.16C526.518 143.16 527.026 143.061 527.469 142.863C527.911 142.66 528.258 142.379 528.508 142.02C528.758 141.66 528.88 141.246 528.875 140.777C528.88 140.293 528.755 139.866 528.5 139.496C528.245 139.126 527.875 138.837 527.391 138.629C526.911 138.421 526.333 138.316 525.656 138.316H524.242V136.082H525.656C526.214 136.082 526.701 135.986 527.117 135.793C527.539 135.6 527.87 135.329 528.109 134.98C528.349 134.626 528.466 134.217 528.461 133.754C528.466 133.301 528.365 132.908 528.156 132.574C527.953 132.236 527.664 131.973 527.289 131.785C526.919 131.598 526.484 131.504 525.984 131.504C525.495 131.504 525.042 131.592 524.625 131.77C524.208 131.947 523.872 132.199 523.617 132.527C523.362 132.85 523.227 133.236 523.211 133.684H520.422C520.443 132.788 520.701 132.001 521.195 131.324C521.695 130.642 522.362 130.111 523.195 129.73C524.029 129.345 524.964 129.152 526 129.152C527.068 129.152 527.995 129.353 528.781 129.754C529.573 130.15 530.185 130.684 530.617 131.355C531.049 132.027 531.266 132.77 531.266 133.582C531.271 134.483 531.005 135.238 530.469 135.848C529.938 136.457 529.24 136.855 528.375 137.043V137.168C529.5 137.324 530.362 137.741 530.961 138.418C531.565 139.09 531.865 139.926 531.859 140.926C531.859 141.822 531.604 142.624 531.094 143.332C530.589 144.035 529.891 144.587 529 144.988C528.115 145.389 527.099 145.59 525.953 145.59ZM540.104 145.59C539.062 145.59 538.13 145.395 537.307 145.004C536.484 144.608 535.83 144.066 535.346 143.379C534.867 142.691 534.611 141.905 534.58 141.02H537.393C537.445 141.676 537.729 142.212 538.244 142.629C538.76 143.04 539.38 143.246 540.104 143.246C540.671 143.246 541.176 143.116 541.619 142.855C542.062 142.595 542.411 142.233 542.666 141.77C542.921 141.306 543.046 140.777 543.041 140.184C543.046 139.579 542.919 139.043 542.658 138.574C542.398 138.105 542.041 137.738 541.588 137.473C541.135 137.202 540.614 137.066 540.025 137.066C539.546 137.061 539.075 137.15 538.611 137.332C538.148 137.514 537.781 137.754 537.51 138.051L534.893 137.621L535.729 129.371H545.01V131.793H538.127L537.666 136.035H537.76C538.057 135.686 538.476 135.397 539.018 135.168C539.559 134.934 540.153 134.816 540.799 134.816C541.768 134.816 542.632 135.046 543.393 135.504C544.153 135.957 544.752 136.582 545.189 137.379C545.627 138.176 545.846 139.087 545.846 140.113C545.846 141.171 545.601 142.113 545.111 142.941C544.627 143.764 543.952 144.413 543.088 144.887C542.229 145.355 541.234 145.59 540.104 145.59ZM557.018 142.371V141.527C557.018 140.908 557.148 140.337 557.408 139.816C557.674 139.296 558.059 138.876 558.564 138.559C559.07 138.241 559.682 138.082 560.4 138.082C561.14 138.082 561.76 138.241 562.26 138.559C562.76 138.871 563.137 139.288 563.393 139.809C563.653 140.329 563.783 140.902 563.783 141.527V142.371C563.783 142.991 563.653 143.561 563.393 144.082C563.132 144.603 562.749 145.022 562.244 145.34C561.744 145.658 561.13 145.816 560.4 145.816C559.671 145.816 559.054 145.658 558.549 145.34C558.044 145.022 557.661 144.603 557.4 144.082C557.145 143.561 557.018 142.991 557.018 142.371ZM559.057 141.527V142.371C559.057 142.783 559.156 143.16 559.354 143.504C559.551 143.848 559.9 144.02 560.4 144.02C560.906 144.02 561.252 143.85 561.439 143.512C561.632 143.168 561.729 142.788 561.729 142.371V141.527C561.729 141.111 561.637 140.73 561.455 140.387C561.273 140.038 560.921 139.863 560.4 139.863C559.911 139.863 559.564 140.038 559.361 140.387C559.158 140.73 559.057 141.111 559.057 141.527ZM548.885 133.215V132.371C548.885 131.746 549.018 131.173 549.283 130.652C549.549 130.132 549.934 129.715 550.439 129.402C550.945 129.085 551.557 128.926 552.275 128.926C553.01 128.926 553.627 129.085 554.127 129.402C554.632 129.715 555.012 130.132 555.268 130.652C555.523 131.173 555.65 131.746 555.65 132.371V133.215C555.65 133.84 555.52 134.413 555.26 134.934C555.005 135.449 554.624 135.863 554.119 136.176C553.614 136.488 552.999 136.645 552.275 136.645C551.541 136.645 550.921 136.488 550.416 136.176C549.916 135.863 549.536 135.447 549.275 134.926C549.015 134.405 548.885 133.835 548.885 133.215ZM550.939 132.371V133.215C550.939 133.632 551.036 134.012 551.229 134.355C551.426 134.694 551.775 134.863 552.275 134.863C552.775 134.863 553.119 134.694 553.307 134.355C553.499 134.012 553.596 133.632 553.596 133.215V132.371C553.596 131.954 553.505 131.574 553.322 131.23C553.14 130.882 552.791 130.707 552.275 130.707C551.781 130.707 551.434 130.882 551.236 131.23C551.038 131.579 550.939 131.96 550.939 132.371ZM549.775 145.371L560.775 129.371H562.729L551.729 145.371H549.775Z" fill="#13316B"/>
<path d="M522.312 154.667V169.213H520.55V154.667H522.312ZM537.548 159.213H535.787C535.682 158.706 535.5 158.261 535.24 157.878C534.984 157.494 534.672 157.172 534.302 156.912C533.938 156.647 533.533 156.448 533.088 156.315C532.643 156.183 532.179 156.116 531.696 156.116C530.815 156.116 530.017 156.339 529.302 156.784C528.592 157.229 528.026 157.885 527.605 158.751C527.188 159.618 526.98 160.681 526.98 161.94C526.98 163.2 527.188 164.263 527.605 165.129C528.026 165.996 528.592 166.651 529.302 167.096C530.017 167.541 530.815 167.764 531.696 167.764C532.179 167.764 532.643 167.698 533.088 167.565C533.533 167.433 533.938 167.236 534.302 166.976C534.672 166.711 534.984 166.386 535.24 166.003C535.5 165.614 535.682 165.169 535.787 164.667H537.548C537.415 165.411 537.174 166.076 536.824 166.663C536.473 167.25 536.038 167.75 535.517 168.162C534.996 168.569 534.411 168.879 533.762 169.092C533.118 169.305 532.43 169.412 531.696 169.412C530.455 169.412 529.352 169.109 528.386 168.503C527.42 167.897 526.66 167.035 526.106 165.917C525.552 164.8 525.275 163.474 525.275 161.94C525.275 160.406 525.552 159.08 526.106 157.963C526.66 156.845 527.42 155.984 528.386 155.378C529.352 154.772 530.455 154.469 531.696 154.469C532.43 154.469 533.118 154.575 533.762 154.788C534.411 155.001 534.996 155.314 535.517 155.726C536.038 156.133 536.473 156.63 536.824 157.217C537.174 157.8 537.415 158.465 537.548 159.213ZM552.667 161.94C552.667 163.474 552.39 164.8 551.836 165.917C551.282 167.035 550.522 167.897 549.556 168.503C548.59 169.109 547.487 169.412 546.246 169.412C545.006 169.412 543.903 169.109 542.937 168.503C541.971 167.897 541.211 167.035 540.657 165.917C540.103 164.8 539.826 163.474 539.826 161.94C539.826 160.406 540.103 159.08 540.657 157.963C541.211 156.845 541.971 155.984 542.937 155.378C543.903 154.772 545.006 154.469 546.246 154.469C547.487 154.469 548.59 154.772 549.556 155.378C550.522 155.984 551.282 156.845 551.836 157.963C552.39 159.08 552.667 160.406 552.667 161.94ZM550.962 161.94C550.962 160.681 550.752 159.618 550.33 158.751C549.914 157.885 549.348 157.229 548.633 156.784C547.923 156.339 547.127 156.116 546.246 156.116C545.366 156.116 544.568 156.339 543.853 156.784C543.143 157.229 542.577 157.885 542.156 158.751C541.739 159.618 541.531 160.681 541.531 161.94C541.531 163.2 541.739 164.263 542.156 165.129C542.577 165.996 543.143 166.651 543.853 167.096C544.568 167.541 545.366 167.764 546.246 167.764C547.127 167.764 547.923 167.541 548.633 167.096C549.348 166.651 549.914 165.996 550.33 165.129C550.752 164.263 550.962 163.2 550.962 161.94ZM560.458 156.23V154.667H571.367V156.23H566.793V169.213H565.032V156.23H560.458ZM576.708 169.44C575.723 169.44 574.859 169.206 574.116 168.737C573.377 168.268 572.799 167.613 572.383 166.77C571.971 165.927 571.765 164.942 571.765 163.815C571.765 162.679 571.971 161.687 572.383 160.839C572.799 159.992 573.377 159.334 574.116 158.865C574.859 158.396 575.723 158.162 576.708 158.162C577.693 158.162 578.555 158.396 579.293 158.865C580.037 159.334 580.614 159.992 581.026 160.839C581.443 161.687 581.651 162.679 581.651 163.815C581.651 164.942 581.443 165.927 581.026 166.77C580.614 167.613 580.037 168.268 579.293 168.737C578.555 169.206 577.693 169.44 576.708 169.44ZM576.708 167.934C577.456 167.934 578.072 167.743 578.555 167.359C579.038 166.976 579.395 166.471 579.627 165.846C579.859 165.221 579.975 164.544 579.975 163.815C579.975 163.086 579.859 162.407 579.627 161.777C579.395 161.147 579.038 160.638 578.555 160.25C578.072 159.862 577.456 159.667 576.708 159.667C575.96 159.667 575.344 159.862 574.862 160.25C574.379 160.638 574.021 161.147 573.789 161.777C573.557 162.407 573.441 163.086 573.441 163.815C573.441 164.544 573.557 165.221 573.789 165.846C574.021 166.471 574.379 166.976 574.862 167.359C575.344 167.743 575.96 167.934 576.708 167.934ZM585.772 165.236L585.744 163.162H586.085L590.858 158.304H592.931L587.846 163.446H587.704L585.772 165.236ZM584.21 169.213V154.667H585.886V169.213H584.21ZM591.142 169.213L586.88 163.815L588.074 162.65L593.272 169.213H591.142ZM599.213 169.44C598.162 169.44 597.256 169.208 596.493 168.744C595.736 168.275 595.151 167.622 594.739 166.784C594.332 165.941 594.128 164.961 594.128 163.844C594.128 162.726 594.332 161.741 594.739 160.889C595.151 160.032 595.724 159.364 596.458 158.886C597.196 158.403 598.058 158.162 599.043 158.162C599.611 158.162 600.172 158.256 600.726 158.446C601.28 158.635 601.784 158.943 602.239 159.369C602.694 159.791 603.056 160.349 603.326 161.045C603.596 161.741 603.73 162.598 603.73 163.616V164.327H595.321V162.878H602.026C602.026 162.262 601.903 161.713 601.657 161.23C601.415 160.747 601.069 160.366 600.62 160.086C600.175 159.807 599.649 159.667 599.043 159.667C598.375 159.667 597.798 159.833 597.31 160.165C596.827 160.491 596.455 160.917 596.195 161.443C595.935 161.969 595.804 162.532 595.804 163.133V164.099C595.804 164.923 595.946 165.622 596.23 166.194C596.519 166.763 596.919 167.196 597.431 167.494C597.942 167.788 598.536 167.934 599.213 167.934C599.654 167.934 600.051 167.873 600.407 167.75C600.766 167.622 601.077 167.433 601.337 167.182C601.597 166.926 601.799 166.609 601.941 166.23L603.56 166.684C603.39 167.234 603.103 167.717 602.701 168.133C602.298 168.545 601.801 168.867 601.209 169.099C600.617 169.327 599.952 169.44 599.213 169.44ZM607.956 162.65V169.213H606.28V158.304H607.9V160.008H608.042C608.297 159.454 608.685 159.009 609.206 158.673C609.727 158.332 610.4 158.162 611.223 158.162C611.962 158.162 612.608 158.313 613.162 158.616C613.716 158.915 614.147 159.369 614.455 159.98C614.763 160.586 614.917 161.353 614.917 162.281V169.213H613.24V162.395C613.24 161.538 613.018 160.87 612.573 160.392C612.128 159.909 611.517 159.667 610.74 159.667C610.205 159.667 609.727 159.783 609.306 160.015C608.889 160.247 608.56 160.586 608.319 161.031C608.077 161.476 607.956 162.016 607.956 162.65ZM528.505 190.304C528.42 189.584 528.074 189.025 527.468 188.628C526.862 188.23 526.119 188.031 525.238 188.031C524.594 188.031 524.031 188.135 523.548 188.344C523.069 188.552 522.695 188.838 522.425 189.203C522.16 189.568 522.028 189.982 522.028 190.446C522.028 190.834 522.12 191.168 522.305 191.447C522.494 191.722 522.736 191.952 523.029 192.136C523.323 192.316 523.63 192.465 523.952 192.584C524.274 192.697 524.57 192.79 524.84 192.861L526.317 193.258C526.696 193.358 527.118 193.495 527.582 193.67C528.05 193.845 528.498 194.085 528.924 194.388C529.355 194.686 529.71 195.069 529.989 195.538C530.269 196.007 530.408 196.582 530.408 197.264C530.408 198.05 530.202 198.76 529.79 199.395C529.383 200.029 528.787 200.533 528.001 200.907C527.219 201.282 526.27 201.469 525.153 201.469C524.111 201.469 523.209 201.3 522.447 200.964C521.689 200.628 521.093 200.159 520.657 199.558C520.226 198.957 519.982 198.258 519.925 197.463H521.744C521.791 198.012 521.976 198.467 522.298 198.827C522.624 199.182 523.036 199.447 523.533 199.622C524.035 199.792 524.575 199.878 525.153 199.878C525.825 199.878 526.429 199.769 526.964 199.551C527.499 199.328 527.923 199.021 528.235 198.628C528.548 198.23 528.704 197.766 528.704 197.236C528.704 196.753 528.569 196.36 528.299 196.057C528.029 195.754 527.674 195.507 527.234 195.318C526.793 195.129 526.317 194.963 525.806 194.821L524.016 194.309C522.88 193.983 521.98 193.516 521.317 192.91C520.655 192.304 520.323 191.511 520.323 190.531C520.323 189.717 520.543 189.006 520.984 188.4C521.429 187.79 522.025 187.316 522.773 186.98C523.526 186.639 524.367 186.469 525.295 186.469C526.232 186.469 527.066 186.637 527.795 186.973C528.524 187.304 529.102 187.759 529.528 188.336C529.959 188.914 530.186 189.57 530.21 190.304H528.505ZM536.287 201.469C535.596 201.469 534.969 201.338 534.405 201.078C533.842 200.813 533.394 200.432 533.063 199.934C532.731 199.433 532.566 198.827 532.566 198.116C532.566 197.491 532.689 196.985 532.935 196.596C533.181 196.203 533.51 195.896 533.922 195.673C534.334 195.451 534.789 195.285 535.286 195.176C535.788 195.062 536.292 194.972 536.799 194.906C537.462 194.821 537.999 194.757 538.411 194.714C538.828 194.667 539.131 194.589 539.32 194.48C539.514 194.371 539.611 194.182 539.611 193.912V193.855C539.611 193.154 539.419 192.61 539.036 192.221C538.657 191.833 538.082 191.639 537.31 191.639C536.51 191.639 535.882 191.814 535.428 192.165C534.973 192.515 534.654 192.889 534.469 193.287L532.878 192.719C533.162 192.056 533.541 191.54 534.015 191.17C534.493 190.796 535.014 190.536 535.577 190.389C536.145 190.238 536.704 190.162 537.253 190.162C537.604 190.162 538.006 190.204 538.461 190.29C538.92 190.37 539.363 190.538 539.789 190.794C540.22 191.05 540.577 191.435 540.861 191.952C541.145 192.468 541.287 193.159 541.287 194.025V201.213H539.611V199.736H539.526C539.412 199.972 539.223 200.226 538.958 200.496C538.693 200.765 538.34 200.995 537.9 201.184C537.459 201.374 536.922 201.469 536.287 201.469ZM536.543 199.963C537.206 199.963 537.765 199.833 538.219 199.572C538.678 199.312 539.024 198.976 539.256 198.564C539.493 198.152 539.611 197.719 539.611 197.264V195.73C539.54 195.815 539.384 195.893 539.142 195.964C538.906 196.031 538.631 196.09 538.319 196.142C538.011 196.189 537.71 196.232 537.417 196.27C537.128 196.303 536.893 196.331 536.713 196.355C536.278 196.412 535.871 196.504 535.492 196.632C535.118 196.755 534.815 196.942 534.583 197.193C534.355 197.439 534.242 197.775 534.242 198.202C534.242 198.784 534.457 199.224 534.888 199.523C535.324 199.816 535.875 199.963 536.543 199.963ZM546.023 186.667V201.213H544.347V186.667H546.023ZM553.667 201.44C552.615 201.44 551.709 201.208 550.946 200.744C550.189 200.275 549.604 199.622 549.192 198.784C548.785 197.941 548.581 196.961 548.581 195.844C548.581 194.726 548.785 193.741 549.192 192.889C549.604 192.032 550.177 191.364 550.911 190.886C551.65 190.403 552.511 190.162 553.496 190.162C554.064 190.162 554.625 190.256 555.179 190.446C555.733 190.635 556.238 190.943 556.692 191.369C557.147 191.791 557.509 192.349 557.779 193.045C558.049 193.741 558.184 194.598 558.184 195.616V196.327H549.775V194.878H556.479C556.479 194.262 556.356 193.713 556.11 193.23C555.868 192.747 555.523 192.366 555.073 192.086C554.628 191.807 554.102 191.667 553.496 191.667C552.828 191.667 552.251 191.833 551.763 192.165C551.28 192.491 550.908 192.917 550.648 193.443C550.388 193.969 550.257 194.532 550.257 195.133V196.099C550.257 196.923 550.4 197.622 550.684 198.194C550.972 198.763 551.373 199.196 551.884 199.494C552.395 199.788 552.989 199.934 553.667 199.934C554.107 199.934 554.505 199.873 554.86 199.75C555.22 199.622 555.53 199.433 555.79 199.182C556.051 198.926 556.252 198.609 556.394 198.23L558.013 198.684C557.843 199.234 557.556 199.717 557.154 200.133C556.751 200.545 556.254 200.867 555.662 201.099C555.07 201.327 554.405 201.44 553.667 201.44ZM568.461 192.747L566.955 193.173C566.86 192.922 566.721 192.678 566.536 192.442C566.356 192.2 566.11 192.001 565.797 191.845C565.485 191.689 565.085 191.611 564.597 191.611C563.929 191.611 563.373 191.765 562.928 192.072C562.488 192.375 562.267 192.761 562.267 193.23C562.267 193.647 562.419 193.976 562.722 194.217C563.025 194.459 563.498 194.66 564.142 194.821L565.762 195.219C566.737 195.455 567.464 195.818 567.942 196.305C568.42 196.788 568.659 197.411 568.659 198.173C568.659 198.798 568.48 199.357 568.12 199.849C567.765 200.342 567.267 200.73 566.628 201.014C565.989 201.298 565.246 201.44 564.398 201.44C563.285 201.44 562.364 201.199 561.635 200.716C560.906 200.233 560.444 199.527 560.25 198.599L561.841 198.202C561.993 198.789 562.279 199.229 562.701 199.523C563.127 199.816 563.683 199.963 564.37 199.963C565.151 199.963 565.771 199.797 566.23 199.466C566.694 199.13 566.926 198.727 566.926 198.258C566.926 197.88 566.794 197.562 566.529 197.307C566.264 197.046 565.856 196.852 565.307 196.724L563.489 196.298C562.49 196.061 561.756 195.694 561.287 195.197C560.823 194.695 560.591 194.068 560.591 193.315C560.591 192.7 560.764 192.155 561.11 191.682C561.46 191.208 561.936 190.836 562.537 190.567C563.143 190.297 563.83 190.162 564.597 190.162C565.676 190.162 566.524 190.398 567.14 190.872C567.76 191.345 568.2 191.97 568.461 192.747Z" fill="#13316B"/>
<path d="M550.188 388.16H439.878L397.186 364.51" stroke="#636770" stroke-width="2" stroke-dasharray="2 2"/>
<path d="M570.633 371.51V387.51H567.734V374.33H567.641L563.898 376.721V374.064L567.875 371.51H570.633ZM580.383 387.729C579.221 387.729 578.19 387.533 577.289 387.143C576.393 386.752 575.69 386.218 575.18 385.541C574.674 384.859 574.424 384.085 574.43 383.221C574.424 382.549 574.57 381.932 574.867 381.369C575.164 380.807 575.565 380.338 576.07 379.963C576.581 379.583 577.148 379.34 577.773 379.236V379.127C576.951 378.945 576.284 378.525 575.773 377.869C575.268 377.208 575.018 376.445 575.023 375.58C575.018 374.757 575.247 374.023 575.711 373.377C576.174 372.731 576.81 372.223 577.617 371.854C578.424 371.479 579.346 371.291 580.383 371.291C581.409 371.291 582.323 371.479 583.125 371.854C583.932 372.223 584.568 372.731 585.031 373.377C585.5 374.023 585.734 374.757 585.734 375.58C585.734 376.445 585.477 377.208 584.961 377.869C584.451 378.525 583.792 378.945 582.984 379.127V379.236C583.609 379.34 584.172 379.583 584.672 379.963C585.177 380.338 585.578 380.807 585.875 381.369C586.177 381.932 586.328 382.549 586.328 383.221C586.328 384.085 586.073 384.859 585.562 385.541C585.052 386.218 584.349 386.752 583.453 387.143C582.563 387.533 581.539 387.729 580.383 387.729ZM580.383 385.494C580.982 385.494 581.503 385.393 581.945 385.189C582.388 384.981 582.732 384.689 582.977 384.314C583.221 383.939 583.346 383.507 583.352 383.018C583.346 382.507 583.214 382.057 582.953 381.666C582.698 381.27 582.346 380.96 581.898 380.736C581.456 380.512 580.951 380.4 580.383 380.4C579.81 380.4 579.299 380.512 578.852 380.736C578.404 380.96 578.049 381.27 577.789 381.666C577.534 382.057 577.409 382.507 577.414 383.018C577.409 383.507 577.529 383.939 577.773 384.314C578.018 384.684 578.362 384.973 578.805 385.182C579.253 385.39 579.779 385.494 580.383 385.494ZM580.383 378.205C580.872 378.205 581.305 378.106 581.68 377.908C582.06 377.71 582.359 377.434 582.578 377.08C582.797 376.726 582.909 376.317 582.914 375.854C582.909 375.395 582.799 374.994 582.586 374.65C582.372 374.301 582.076 374.033 581.695 373.846C581.315 373.653 580.878 373.557 580.383 373.557C579.878 373.557 579.432 373.653 579.047 373.846C578.667 374.033 578.37 374.301 578.156 374.65C577.948 374.994 577.846 375.395 577.852 375.854C577.846 376.317 577.951 376.726 578.164 377.08C578.383 377.429 578.682 377.705 579.063 377.908C579.448 378.106 579.888 378.205 580.383 378.205ZM597.451 384.51V383.666C597.451 383.046 597.581 382.476 597.842 381.955C598.107 381.434 598.493 381.015 598.998 380.697C599.503 380.38 600.115 380.221 600.834 380.221C601.574 380.221 602.193 380.38 602.693 380.697C603.193 381.01 603.571 381.426 603.826 381.947C604.087 382.468 604.217 383.041 604.217 383.666V384.51C604.217 385.13 604.087 385.7 603.826 386.221C603.566 386.742 603.183 387.161 602.678 387.479C602.178 387.796 601.563 387.955 600.834 387.955C600.105 387.955 599.488 387.796 598.982 387.479C598.477 387.161 598.094 386.742 597.834 386.221C597.579 385.7 597.451 385.13 597.451 384.51ZM599.49 383.666V384.51C599.49 384.921 599.589 385.299 599.787 385.643C599.985 385.986 600.334 386.158 600.834 386.158C601.339 386.158 601.686 385.989 601.873 385.65C602.066 385.307 602.162 384.926 602.162 384.51V383.666C602.162 383.249 602.071 382.869 601.889 382.525C601.706 382.176 601.355 382.002 600.834 382.002C600.344 382.002 599.998 382.176 599.795 382.525C599.592 382.869 599.49 383.249 599.49 383.666ZM589.318 375.354V374.51C589.318 373.885 589.451 373.312 589.717 372.791C589.982 372.27 590.368 371.854 590.873 371.541C591.378 371.223 591.99 371.064 592.709 371.064C593.443 371.064 594.061 371.223 594.561 371.541C595.066 371.854 595.446 372.27 595.701 372.791C595.956 373.312 596.084 373.885 596.084 374.51V375.354C596.084 375.979 595.954 376.551 595.693 377.072C595.438 377.588 595.058 378.002 594.553 378.314C594.048 378.627 593.433 378.783 592.709 378.783C591.975 378.783 591.355 378.627 590.85 378.314C590.35 378.002 589.969 377.585 589.709 377.064C589.449 376.544 589.318 375.973 589.318 375.354ZM591.373 374.51V375.354C591.373 375.77 591.469 376.15 591.662 376.494C591.86 376.833 592.209 377.002 592.709 377.002C593.209 377.002 593.553 376.833 593.74 376.494C593.933 376.15 594.029 375.77 594.029 375.354V374.51C594.029 374.093 593.938 373.713 593.756 373.369C593.574 373.02 593.225 372.846 592.709 372.846C592.214 372.846 591.868 373.02 591.67 373.369C591.472 373.718 591.373 374.098 591.373 374.51ZM590.209 387.51L601.209 371.51H603.162L592.162 387.51H590.209Z" fill="#13316B"/>
<path d="M564.464 413.787V399.242H569.379C570.516 399.242 571.448 399.436 572.178 399.824C572.907 400.208 573.446 400.735 573.797 401.408C574.147 402.08 574.322 402.845 574.322 403.702C574.322 404.559 574.147 405.319 573.797 405.982C573.446 406.645 572.909 407.165 572.185 407.544C571.46 407.918 570.535 408.105 569.408 408.105H565.43V406.514H569.351C570.127 406.514 570.752 406.401 571.226 406.173C571.704 405.946 572.05 405.624 572.263 405.208C572.481 404.786 572.589 404.284 572.589 403.702C572.589 403.119 572.481 402.61 572.263 402.175C572.045 401.739 571.697 401.403 571.219 401.166C570.741 400.925 570.108 400.804 569.322 400.804H566.226V413.787H564.464ZM571.311 407.253L574.891 413.787H572.845L569.322 407.253H571.311ZM581.487 414.014C580.436 414.014 579.529 413.782 578.767 413.318C578.009 412.85 577.424 412.196 577.012 411.358C576.605 410.515 576.402 409.535 576.402 408.418C576.402 407.3 576.605 406.316 577.012 405.463C577.424 404.606 577.997 403.939 578.731 403.46C579.47 402.977 580.332 402.736 581.316 402.736C581.885 402.736 582.446 402.831 583 403.02C583.554 403.209 584.058 403.517 584.512 403.943C584.967 404.365 585.329 404.923 585.599 405.619C585.869 406.316 586.004 407.173 586.004 408.191V408.901H577.595V407.452H584.299C584.299 406.836 584.176 406.287 583.93 405.804C583.689 405.321 583.343 404.94 582.893 404.661C582.448 404.381 581.922 404.242 581.316 404.242C580.649 404.242 580.071 404.407 579.583 404.739C579.1 405.066 578.729 405.492 578.468 406.017C578.208 406.543 578.078 407.106 578.078 407.708V408.673C578.078 409.497 578.22 410.196 578.504 410.769C578.793 411.337 579.193 411.77 579.704 412.068C580.216 412.362 580.81 412.509 581.487 412.509C581.927 412.509 582.325 412.447 582.68 412.324C583.04 412.196 583.35 412.007 583.61 411.756C583.871 411.5 584.072 411.183 584.214 410.804L585.833 411.259C585.663 411.808 585.377 412.291 584.974 412.708C584.572 413.119 584.074 413.441 583.483 413.673C582.891 413.901 582.225 414.014 581.487 414.014ZM596.281 405.321L594.775 405.747C594.681 405.496 594.541 405.253 594.356 405.016C594.176 404.774 593.93 404.575 593.618 404.419C593.305 404.263 592.905 404.185 592.417 404.185C591.75 404.185 591.193 404.339 590.748 404.646C590.308 404.95 590.088 405.335 590.088 405.804C590.088 406.221 590.239 406.55 590.542 406.791C590.845 407.033 591.319 407.234 591.963 407.395L593.582 407.793C594.557 408.03 595.284 408.392 595.762 408.879C596.241 409.362 596.48 409.985 596.48 410.747C596.48 411.372 596.3 411.931 595.94 412.423C595.585 412.916 595.088 413.304 594.449 413.588C593.809 413.872 593.066 414.014 592.218 414.014C591.106 414.014 590.185 413.773 589.456 413.29C588.726 412.807 588.265 412.102 588.071 411.173L589.662 410.776C589.813 411.363 590.1 411.803 590.521 412.097C590.947 412.39 591.503 412.537 592.19 412.537C592.971 412.537 593.592 412.371 594.051 412.04C594.515 411.704 594.747 411.301 594.747 410.833C594.747 410.454 594.614 410.137 594.349 409.881C594.084 409.62 593.677 409.426 593.127 409.298L591.309 408.872C590.31 408.636 589.576 408.269 589.108 407.771C588.644 407.27 588.412 406.642 588.412 405.889C588.412 405.274 588.584 404.729 588.93 404.256C589.28 403.782 589.756 403.411 590.358 403.141C590.964 402.871 591.65 402.736 592.417 402.736C593.497 402.736 594.344 402.973 594.96 403.446C595.58 403.92 596.02 404.545 596.281 405.321ZM603.577 414.014C602.526 414.014 601.619 413.782 600.857 413.318C600.099 412.85 599.514 412.196 599.102 411.358C598.695 410.515 598.491 409.535 598.491 408.418C598.491 407.3 598.695 406.316 599.102 405.463C599.514 404.606 600.087 403.939 600.821 403.46C601.56 402.977 602.421 402.736 603.406 402.736C603.974 402.736 604.536 402.831 605.089 403.02C605.643 403.209 606.148 403.517 606.602 403.943C607.057 404.365 607.419 404.923 607.689 405.619C607.959 406.316 608.094 407.173 608.094 408.191V408.901H599.685V407.452H606.389C606.389 406.836 606.266 406.287 606.02 405.804C605.778 405.321 605.433 404.94 604.983 404.661C604.538 404.381 604.012 404.242 603.406 404.242C602.739 404.242 602.161 404.407 601.673 404.739C601.19 405.066 600.819 405.492 600.558 406.017C600.298 406.543 600.168 407.106 600.168 407.708V408.673C600.168 409.497 600.31 410.196 600.594 410.769C600.883 411.337 601.283 411.77 601.794 412.068C602.305 412.362 602.9 412.509 603.577 412.509C604.017 412.509 604.415 412.447 604.77 412.324C605.13 412.196 605.44 412.007 605.7 411.756C605.961 411.5 606.162 411.183 606.304 410.804L607.923 411.259C607.753 411.808 607.466 412.291 607.064 412.708C606.661 413.119 606.164 413.441 605.572 413.673C604.981 413.901 604.315 414.014 603.577 414.014ZM610.643 413.787V402.878H612.263V404.526H612.376C612.575 403.986 612.935 403.548 613.456 403.212C613.977 402.876 614.564 402.708 615.217 402.708C615.34 402.708 615.494 402.71 615.679 402.715C615.864 402.719 616.003 402.727 616.098 402.736V404.441C616.041 404.426 615.911 404.405 615.707 404.377C615.509 404.343 615.298 404.327 615.075 404.327C614.545 404.327 614.071 404.438 613.655 404.661C613.243 404.878 612.916 405.182 612.675 405.57C612.438 405.953 612.32 406.391 612.32 406.884V413.787H610.643ZM627.337 402.878L623.303 413.787H621.599L617.565 402.878H619.383L622.394 411.571H622.508L625.519 402.878H627.337ZM633.733 414.014C632.682 414.014 631.775 413.782 631.013 413.318C630.255 412.85 629.67 412.196 629.259 411.358C628.851 410.515 628.648 409.535 628.648 408.418C628.648 407.3 628.851 406.316 629.259 405.463C629.67 404.606 630.243 403.939 630.977 403.46C631.716 402.977 632.578 402.736 633.562 402.736C634.131 402.736 634.692 402.831 635.246 403.02C635.8 403.209 636.304 403.517 636.759 403.943C637.213 404.365 637.575 404.923 637.845 405.619C638.115 406.316 638.25 407.173 638.25 408.191V408.901H629.841V407.452H636.545C636.545 406.836 636.422 406.287 636.176 405.804C635.935 405.321 635.589 404.94 635.139 404.661C634.694 404.381 634.169 404.242 633.562 404.242C632.895 404.242 632.317 404.407 631.83 404.739C631.347 405.066 630.975 405.492 630.714 406.017C630.454 406.543 630.324 407.106 630.324 407.708V408.673C630.324 409.497 630.466 410.196 630.75 410.769C631.039 411.337 631.439 411.77 631.95 412.068C632.462 412.362 633.056 412.509 633.733 412.509C634.173 412.509 634.571 412.447 634.926 412.324C635.286 412.196 635.596 412.007 635.857 411.756C636.117 411.5 636.318 411.183 636.46 410.804L638.08 411.259C637.909 411.808 637.623 412.291 637.22 412.708C636.818 413.119 636.321 413.441 635.729 413.673C635.137 413.901 634.472 414.014 633.733 414.014ZM646.652 413.787V399.242H655.374V400.804H648.413V405.719H654.72V407.281H648.413V413.787H646.652ZM664.354 409.327V402.878H666.031V413.787H664.354V411.941H664.241C663.985 412.494 663.587 412.966 663.048 413.354C662.508 413.737 661.826 413.929 661.002 413.929C660.32 413.929 659.714 413.78 659.184 413.482C658.654 413.179 658.237 412.724 657.934 412.118C657.631 411.507 657.479 410.738 657.479 409.81V402.878H659.156V409.696C659.156 410.492 659.378 411.126 659.823 411.6C660.273 412.073 660.846 412.31 661.542 412.31C661.959 412.31 662.382 412.203 662.813 411.99C663.249 411.777 663.613 411.45 663.907 411.01C664.205 410.57 664.354 410.009 664.354 409.327ZM670.777 407.225V413.787H669.1V402.878H670.72V404.583H670.862C671.118 404.029 671.506 403.584 672.027 403.247C672.547 402.906 673.22 402.736 674.044 402.736C674.782 402.736 675.429 402.887 675.983 403.191C676.537 403.489 676.967 403.943 677.275 404.554C677.583 405.16 677.737 405.927 677.737 406.855V413.787H676.061V406.969C676.061 406.112 675.838 405.444 675.393 404.966C674.948 404.483 674.337 404.242 673.561 404.242C673.026 404.242 672.547 404.358 672.126 404.59C671.709 404.822 671.38 405.16 671.139 405.605C670.897 406.05 670.777 406.59 670.777 407.225ZM684.919 414.014C684.01 414.014 683.207 413.785 682.511 413.325C681.815 412.861 681.271 412.208 680.878 411.365C680.485 410.518 680.288 409.516 680.288 408.361C680.288 407.215 680.485 406.221 680.878 405.378C681.271 404.535 681.818 403.884 682.518 403.425C683.219 402.966 684.029 402.736 684.947 402.736C685.658 402.736 686.219 402.854 686.631 403.091C687.047 403.323 687.365 403.588 687.582 403.887C687.805 404.18 687.978 404.422 688.101 404.611H688.243V399.242H689.919V413.787H688.3V412.111H688.101C687.978 412.31 687.803 412.561 687.575 412.864C687.348 413.162 687.024 413.43 686.602 413.666C686.181 413.898 685.62 414.014 684.919 414.014ZM685.146 412.509C685.819 412.509 686.387 412.334 686.851 411.983C687.315 411.628 687.668 411.138 687.909 410.513C688.151 409.883 688.271 409.156 688.271 408.333C688.271 407.518 688.153 406.806 687.916 406.195C687.679 405.579 687.329 405.101 686.865 404.76C686.401 404.414 685.828 404.242 685.146 404.242C684.436 404.242 683.844 404.424 683.371 404.789C682.902 405.148 682.549 405.638 682.312 406.259C682.08 406.874 681.964 407.566 681.964 408.333C681.964 409.109 682.083 409.815 682.32 410.449C682.561 411.079 682.916 411.581 683.385 411.955C683.858 412.324 684.446 412.509 685.146 412.509Z" fill="#13316B"/>
<path d="M238.448 35H233.385L242.603 8.81818H248.458L257.688 35H252.625L245.633 14.1875H245.428L238.448 35ZM238.614 24.7344H252.421V28.544H238.614V24.7344ZM265.56 8.81818V35H260.932V8.81818H265.56ZM274.947 8.81818V35H270.319V8.81818H274.947ZM288.271 35.3835C286.353 35.3835 284.691 34.9616 283.285 34.1179C281.879 33.2741 280.788 32.0937 280.012 30.5767C279.245 29.0597 278.862 27.2869 278.862 25.2585C278.862 23.2301 279.245 21.4531 280.012 19.9276C280.788 18.402 281.879 17.2173 283.285 16.3736C284.691 15.5298 286.353 15.108 288.271 15.108C290.188 15.108 291.85 15.5298 293.257 16.3736C294.663 17.2173 295.749 18.402 296.516 19.9276C297.292 21.4531 297.68 23.2301 297.68 25.2585C297.68 27.2869 297.292 29.0597 296.516 30.5767C295.749 32.0937 294.663 33.2741 293.257 34.1179C291.85 34.9616 290.188 35.3835 288.271 35.3835ZM288.296 31.6761C289.336 31.6761 290.205 31.3906 290.904 30.8196C291.603 30.2401 292.123 29.4645 292.464 28.4929C292.813 27.5213 292.988 26.4389 292.988 25.2457C292.988 24.044 292.813 22.9574 292.464 21.9858C292.123 21.0057 291.603 20.2259 290.904 19.6463C290.205 19.0668 289.336 18.777 288.296 18.777C287.231 18.777 286.345 19.0668 285.637 19.6463C284.938 20.2259 284.414 21.0057 284.065 21.9858C283.724 22.9574 283.553 24.044 283.553 25.2457C283.553 26.4389 283.724 27.5213 284.065 28.4929C284.414 29.4645 284.938 30.2401 285.637 30.8196C286.345 31.3906 287.231 31.6761 288.296 31.6761ZM310.173 35.3835C308.213 35.3835 306.53 34.9531 305.123 34.0923C303.726 33.2315 302.648 32.0426 301.889 30.5256C301.139 29 300.764 27.2443 300.764 25.2585C300.764 23.2642 301.148 21.5043 301.915 19.9787C302.682 18.4446 303.764 17.2514 305.162 16.3991C306.568 15.5384 308.23 15.108 310.148 15.108C311.741 15.108 313.152 15.402 314.379 15.9901C315.615 16.5696 316.599 17.392 317.332 18.4574C318.065 19.5142 318.483 20.75 318.585 22.1648H314.162C313.983 21.2187 313.557 20.4304 312.883 19.7997C312.219 19.1605 311.328 18.8409 310.211 18.8409C309.265 18.8409 308.434 19.0966 307.719 19.608C307.003 20.1108 306.444 20.8352 306.044 21.7812C305.652 22.7273 305.456 23.8608 305.456 25.1818C305.456 26.5199 305.652 27.6705 306.044 28.6335C306.436 29.5881 306.986 30.3253 307.693 30.8452C308.409 31.3565 309.248 31.6122 310.211 31.6122C310.893 31.6122 311.503 31.4844 312.04 31.2287C312.585 30.9645 313.041 30.5852 313.407 30.0909C313.774 29.5966 314.025 28.9957 314.162 28.2884H318.585C318.474 29.6776 318.065 30.9091 317.358 31.983C316.65 33.0483 315.687 33.8835 314.469 34.4886C313.25 35.0852 311.818 35.3835 310.173 35.3835ZM328.036 35.3963C326.791 35.3963 325.671 35.1747 324.673 34.7315C323.685 34.2798 322.901 33.6151 322.321 32.7372C321.75 31.8594 321.465 30.777 321.465 29.4901C321.465 28.3821 321.669 27.4659 322.078 26.7415C322.487 26.017 323.046 25.4375 323.753 25.0028C324.46 24.5682 325.257 24.2401 326.144 24.0185C327.038 23.7884 327.963 23.6222 328.918 23.5199C330.068 23.4006 331.002 23.294 331.717 23.2003C332.433 23.098 332.953 22.9446 333.277 22.7401C333.61 22.527 333.776 22.1989 333.776 21.7557V21.679C333.776 20.7159 333.49 19.9702 332.919 19.4418C332.348 18.9134 331.526 18.6491 330.452 18.6491C329.318 18.6491 328.419 18.8963 327.754 19.3906C327.098 19.8849 326.655 20.4687 326.425 21.142L322.104 20.5284C322.445 19.3352 323.007 18.3381 323.791 17.5369C324.575 16.7273 325.534 16.1222 326.668 15.7216C327.801 15.3125 329.054 15.108 330.426 15.108C331.372 15.108 332.314 15.2188 333.252 15.4403C334.189 15.6619 335.046 16.0284 335.821 16.5398C336.597 17.0426 337.219 17.7287 337.688 18.598C338.165 19.4673 338.404 20.554 338.404 21.858V35H333.955V32.3026H333.801C333.52 32.848 333.124 33.3594 332.612 33.8366C332.11 34.3054 331.475 34.6847 330.708 34.9744C329.949 35.2557 329.058 35.3963 328.036 35.3963ZM329.237 31.9957C330.166 31.9957 330.972 31.8125 331.654 31.446C332.335 31.071 332.86 30.5767 333.226 29.9631C333.601 29.3494 333.788 28.6804 333.788 27.956V25.642C333.644 25.7614 333.396 25.8722 333.047 25.9744C332.706 26.0767 332.323 26.1662 331.896 26.2429C331.47 26.3196 331.048 26.3878 330.631 26.4474C330.213 26.5071 329.851 26.5582 329.544 26.6009C328.854 26.6946 328.236 26.848 327.69 27.0611C327.145 27.2741 326.715 27.5724 326.399 27.956C326.084 28.331 325.926 28.8168 325.926 29.4134C325.926 30.2656 326.237 30.9091 326.86 31.3438C327.482 31.7784 328.274 31.9957 329.237 31.9957ZM352.862 15.3636V18.9432H341.574V15.3636H352.862ZM344.361 10.6591H348.989V29.0938C348.989 29.7159 349.083 30.1932 349.27 30.5256C349.466 30.8494 349.722 31.071 350.037 31.1903C350.352 31.3097 350.702 31.3693 351.085 31.3693C351.375 31.3693 351.639 31.348 351.878 31.3054C352.125 31.2628 352.313 31.2244 352.44 31.1903L353.22 34.8082C352.973 34.8935 352.619 34.9872 352.159 35.0895C351.708 35.1918 351.154 35.2514 350.497 35.2685C349.338 35.3026 348.294 35.1278 347.365 34.7443C346.436 34.3523 345.699 33.7472 345.154 32.929C344.617 32.1108 344.352 31.0881 344.361 29.8608V10.6591ZM356.733 35V15.3636H361.361V35H356.733ZM359.059 12.5767C358.326 12.5767 357.696 12.3338 357.167 11.848C356.639 11.3537 356.375 10.7614 356.375 10.071C356.375 9.37216 356.639 8.77983 357.167 8.29403C357.696 7.79971 358.326 7.55256 359.059 7.55256C359.801 7.55256 360.432 7.79971 360.951 8.29403C361.48 8.77983 361.744 9.37216 361.744 10.071C361.744 10.7614 361.48 11.3537 360.951 11.848C360.432 12.3338 359.801 12.5767 359.059 12.5767ZM374.685 35.3835C372.767 35.3835 371.105 34.9616 369.699 34.1179C368.293 33.2741 367.202 32.0937 366.426 30.5767C365.659 29.0597 365.276 27.2869 365.276 25.2585C365.276 23.2301 365.659 21.4531 366.426 19.9276C367.202 18.402 368.293 17.2173 369.699 16.3736C371.105 15.5298 372.767 15.108 374.685 15.108C376.602 15.108 378.264 15.5298 379.671 16.3736C381.077 17.2173 382.163 18.402 382.931 19.9276C383.706 21.4531 384.094 23.2301 384.094 25.2585C384.094 27.2869 383.706 29.0597 382.931 30.5767C382.163 32.0937 381.077 33.2741 379.671 34.1179C378.264 34.9616 376.602 35.3835 374.685 35.3835ZM374.71 31.6761C375.75 31.6761 376.619 31.3906 377.318 30.8196C378.017 30.2401 378.537 29.4645 378.878 28.4929C379.227 27.5213 379.402 26.4389 379.402 25.2457C379.402 24.044 379.227 22.9574 378.878 21.9858C378.537 21.0057 378.017 20.2259 377.318 19.6463C376.619 19.0668 375.75 18.777 374.71 18.777C373.645 18.777 372.759 19.0668 372.051 19.6463C371.352 20.2259 370.828 21.0057 370.479 21.9858C370.138 22.9574 369.967 24.044 369.967 25.2457C369.967 26.4389 370.138 27.5213 370.479 28.4929C370.828 29.4645 371.352 30.2401 372.051 30.8196C372.759 31.3906 373.645 31.6761 374.71 31.6761ZM392.65 23.4943V35H388.022V15.3636H392.445V18.7003H392.675C393.127 17.6009 393.847 16.7273 394.836 16.0795C395.833 15.4318 397.064 15.108 398.53 15.108C399.885 15.108 401.066 15.3977 402.072 15.9773C403.086 16.5568 403.87 17.3963 404.424 18.4957C404.986 19.5952 405.263 20.929 405.255 22.4972V35H400.627V23.2131C400.627 21.9006 400.286 20.8736 399.604 20.1321C398.931 19.3906 397.998 19.0199 396.804 19.0199C395.995 19.0199 395.275 19.1989 394.644 19.5568C394.022 19.9062 393.532 20.4134 393.174 21.0781C392.824 21.7429 392.65 22.5483 392.65 23.4943Z" fill="#002B7E"/>
<defs>
<filter id="filter0_d_1480_7321" x="124.758" y="70" width="374.875" height="374.99" filterUnits="userSpaceOnUse" color-interpolation-filters="sRGB">
<feFlood flood-opacity="0" result="BackgroundImageFix"/>
<feColorMatrix in="SourceAlpha" type="matrix" values="0 0 0 0 0 0 0 0 0 0 0 0 0 0 0 0 0 0 127 0" result="hardAlpha"/>
<feOffset dy="4"/>
<feGaussianBlur stdDeviation="25"/>
<feComposite in2="hardAlpha" operator="out"/>
<feColorMatrix type="matrix" values="0 0 0 0 0 0 0 0 0 0 0 0 0 0 0 0 0 0 0.08 0"/>
<feBlend mode="normal" in2="BackgroundImageFix" result="effect1_dropShadow_1480_7321"/>
<feBlend mode="normal" in="SourceGraphic" in2="effect1_dropShadow_1480_7321" result="shape"/>
</filter>
</defs>
</svg>
