<svg width="156" height="109" viewBox="0 0 156 109" fill="none" xmlns="http://www.w3.org/2000/svg">
<rect x="1.72966" y="2.05583" width="151.664" height="105.215" rx="2.27034" fill="white" stroke="#F3F3F3" stroke-width="3.45932"/>
<path fill-rule="evenodd" clip-rule="evenodd" d="M47.0245 40.8787C45.8961 42.25 44.0908 43.3316 42.2855 43.177C42.0598 41.3229 42.9437 39.3528 43.978 38.1361C45.1063 36.7261 47.0809 35.7218 48.6793 35.6445C48.8674 37.5759 48.134 39.4687 47.0245 40.8787ZM48.6566 43.5434C47.0661 43.4494 45.6149 44.0347 44.4427 44.5074C43.6884 44.8116 43.0496 45.0692 42.5636 45.0692C42.0183 45.0692 41.3531 44.7979 40.6063 44.4931C39.6277 44.0939 38.5089 43.6374 37.3357 43.6593C34.6466 43.6979 32.1454 45.2624 30.7726 47.7539C27.9518 52.737 30.0392 60.1149 32.766 64.1709C34.1012 66.1796 35.6997 68.3814 37.8059 68.3041C38.7325 68.2682 39.399 67.9777 40.0888 67.6771C40.883 67.331 41.708 66.9715 42.9961 66.9715C44.2396 66.9715 45.0286 67.3216 45.7859 67.6578C46.506 67.9774 47.1975 68.2843 48.224 68.2655C50.4055 68.2269 51.7782 66.2568 53.1134 64.2482C54.5543 62.0923 55.1875 59.9883 55.2836 59.669C55.2891 59.6508 55.2928 59.6384 55.2948 59.6321C55.2925 59.6297 55.2748 59.6214 55.2435 59.6067L55.2434 59.6066L55.2433 59.6066C54.7617 59.3801 51.0801 57.6491 51.0448 53.0074C51.0094 49.1113 53.9649 47.1373 54.4302 46.8265C54.4585 46.8076 54.4776 46.7949 54.4862 46.7882C52.6057 43.9297 49.672 43.6207 48.6566 43.5434ZM63.7656 68.0534V37.9427H74.7668C80.446 37.9427 84.4139 41.96 84.4139 47.8315C84.4139 53.703 80.3708 57.759 74.6163 57.759H68.3165V68.0534H63.7656ZM68.3047 41.8824H73.5514C77.5005 41.8824 79.7571 44.0455 79.7571 47.8504C79.7571 51.6553 77.5005 53.8378 73.5326 53.8378H68.3047V41.8824ZM99.4284 64.443C98.2249 66.7993 95.5733 68.2865 92.7149 68.2865C88.4837 68.2865 85.5312 65.6984 85.5312 61.7969C85.5312 57.9341 88.3897 55.713 93.674 55.3847L99.3532 55.037V53.376C99.3532 50.9231 97.7923 49.5904 95.0092 49.5904C92.7149 49.5904 91.0412 50.8072 90.7027 52.6614H86.6032C86.7348 48.7599 90.3078 45.9207 95.1408 45.9207C100.35 45.9207 103.735 48.7213 103.735 53.067V68.0547H99.5224V64.443H99.4284ZM93.9445 64.7139C91.5186 64.7139 89.9766 63.5165 89.9766 61.6816C89.9766 59.7888 91.4622 58.6879 94.3018 58.5141L99.3604 58.1858V59.8854C99.3604 62.7053 97.0286 64.7139 93.9445 64.7139ZM117.72 69.2316C115.896 74.5044 113.809 76.2427 109.371 76.2427C109.032 76.2427 107.904 76.204 107.641 76.1268V72.515C107.923 72.5537 108.619 72.5923 108.976 72.5923C110.988 72.5923 112.116 71.7232 112.812 69.4634L113.226 68.1307L105.516 46.2092H110.273L115.633 63.9975H115.727L121.086 46.2092H125.713L117.72 69.2316Z" fill="black"/>
</svg>
