<svg width="16" height="17" viewBox="0 0 16 17" fill="none" xmlns="http://www.w3.org/2000/svg">
<path fill-rule="evenodd" clip-rule="evenodd" d="M10.6693 4.17904H5.33594C4.96775 4.17904 4.66927 4.47751 4.66927 4.8457V7.51237C4.66927 9.35332 6.16166 10.8457 8.0026 10.8457C9.84355 10.8457 11.3359 9.35332 11.3359 7.51237V4.8457C11.3359 4.47751 11.0375 4.17904 10.6693 4.17904ZM5.33594 2.8457C4.23137 2.8457 3.33594 3.74113 3.33594 4.8457V7.51237C3.33594 10.0897 5.42528 12.179 8.0026 12.179C10.5799 12.179 12.6693 10.0897 12.6693 7.51237V4.8457C12.6693 3.74113 11.7738 2.8457 10.6693 2.8457H5.33594Z" fill="#FCFCFD"/>
<path fill-rule="evenodd" clip-rule="evenodd" d="M0.664062 6.17969C0.664062 5.07512 1.55949 4.17969 2.66406 4.17969H4.66406V9.51302H3.33073C1.85797 9.51302 0.664062 8.31911 0.664062 6.84635V6.17969ZM2.66406 5.51302H3.33073V8.17969C2.59435 8.17969 1.9974 7.58273 1.9974 6.84635V6.17969C1.9974 5.8115 2.29587 5.51302 2.66406 5.51302Z" fill="#FCFCFD"/>
<path fill-rule="evenodd" clip-rule="evenodd" d="M15.3307 6.17969C15.3307 5.07512 14.4353 4.17969 13.3307 4.17969H11.3307V9.51302H12.6641C14.1368 9.51302 15.3307 8.31911 15.3307 6.84635V6.17969ZM13.3307 5.51302H12.6641V8.17969C13.4004 8.17969 13.9974 7.58273 13.9974 6.84635V6.17969C13.9974 5.8115 13.6989 5.51302 13.3307 5.51302Z" fill="#FCFCFD"/>
<path d="M8.0026 10.8457C7.63441 10.8457 7.33594 11.1442 7.33594 11.5124V13.5124H6.0026C5.63441 13.5124 5.33594 13.8108 5.33594 14.179C5.33594 14.5472 5.63441 14.8457 6.0026 14.8457H10.0026C10.3708 14.8457 10.6693 14.5472 10.6693 14.179C10.6693 13.8108 10.3708 13.5124 10.0026 13.5124H8.66927V11.5124C8.66927 11.1442 8.37079 10.8457 8.0026 10.8457Z" fill="#FCFCFD"/>
</svg>
