<svg width="711" height="447" viewBox="0 0 711 447" fill="none" xmlns="http://www.w3.org/2000/svg">
<g filter="url(#filter0_d_1480_7280)">
<ellipse cx="366.01" cy="254.822" rx="137.439" ry="137.744" fill="white"/>
</g>
<mask id="path-2-inside-1_1480_7280" fill="white">
<path d="M388.908 359.878C389.711 363.609 390.112 365.475 389.119 366.901C388.126 368.328 386.325 368.587 382.723 369.106C361.476 372.164 339.739 369.196 320.008 360.458C300.27 351.717 283.442 337.602 271.391 319.791C269.354 316.779 268.335 315.273 268.721 313.58C269.107 311.887 270.755 310.928 274.049 309.009L314.49 285.457C317.624 283.631 319.191 282.719 320.649 282.987C322.106 283.256 323.388 284.844 325.953 288.022C331.13 294.435 337.777 299.557 345.375 302.921C352.972 306.286 361.225 307.763 369.441 307.282C373.515 307.043 375.552 306.924 376.73 307.82C377.908 308.716 378.289 310.487 379.05 314.029L388.908 359.878Z"/>
</mask>
<path d="M388.908 359.878C389.711 363.609 390.112 365.475 389.119 366.901C388.126 368.328 386.325 368.587 382.723 369.106C361.476 372.164 339.739 369.196 320.008 360.458C300.27 351.717 283.442 337.602 271.391 319.791C269.354 316.779 268.335 315.273 268.721 313.58C269.107 311.887 270.755 310.928 274.049 309.009L314.49 285.457C317.624 283.631 319.191 282.719 320.649 282.987C322.106 283.256 323.388 284.844 325.953 288.022C331.13 294.435 337.777 299.557 345.375 302.921C352.972 306.286 361.225 307.763 369.441 307.282C373.515 307.043 375.552 306.924 376.73 307.82C377.908 308.716 378.289 310.487 379.05 314.029L388.908 359.878Z" fill="#19D184" stroke="white" stroke-width="2" mask="url(#path-2-inside-1_1480_7280)"/>
<mask id="path-3-inside-2_1480_7280" fill="white">
<path d="M268.64 212.104C265.15 210.565 263.405 209.796 262.832 208.156C262.26 206.517 263.104 204.906 264.794 201.685C273.546 185 286.257 170.724 301.803 160.117C304.818 158.06 306.325 157.032 308.023 157.416C309.722 157.801 310.684 159.454 312.608 162.762L336.367 203.596C338.184 206.718 339.093 208.28 338.828 209.732C338.564 211.185 336.985 212.47 333.827 215.042C329.555 218.521 325.865 222.663 322.897 227.309C320.699 230.751 319.599 232.472 318.182 232.901C316.765 233.329 315.107 232.598 311.791 231.135L268.64 212.104Z"/>
</mask>
<path d="M268.64 212.104C265.15 210.565 263.405 209.796 262.832 208.156C262.26 206.517 263.104 204.906 264.794 201.685C273.546 185 286.257 170.724 301.803 160.117C304.818 158.06 306.325 157.032 308.023 157.416C309.722 157.801 310.684 159.454 312.608 162.762L336.367 203.596C338.184 206.718 339.093 208.28 338.828 209.732C338.564 211.185 336.985 212.47 333.827 215.042C329.555 218.521 325.865 222.663 322.897 227.309C320.699 230.751 319.599 232.472 318.182 232.901C316.765 233.329 315.107 232.598 311.791 231.135L268.64 212.104Z" fill="#8C19C2" stroke="white" stroke-width="2" mask="url(#path-3-inside-2_1480_7280)"/>
<mask id="path-4-inside-3_1480_7280" fill="white">
<path d="M313.216 162.374C311.321 159.065 310.373 157.411 310.885 155.751C311.397 154.091 313.032 153.296 316.301 151.707C330.154 144.972 345.243 141.086 360.675 140.313C378.768 139.407 396.819 142.805 413.351 150.23C429.884 157.655 444.428 168.896 455.794 183.034C465.49 195.093 472.639 208.967 476.843 223.813C477.834 227.315 478.33 229.066 477.431 230.554C476.532 232.041 474.665 232.434 470.93 233.22L424.797 242.931C421.252 243.677 419.48 244.05 418.182 243.339C416.884 242.628 416.163 240.719 414.722 236.901C412.795 231.796 410.068 227.013 406.631 222.737C401.516 216.375 394.971 211.317 387.531 207.976C380.092 204.634 371.969 203.105 363.827 203.513C358.362 203.787 352.992 204.928 347.914 206.879C344.099 208.345 342.191 209.078 340.797 208.582C339.403 208.085 338.502 206.513 336.7 203.367L313.216 162.374Z"/>
</mask>
<path d="M313.216 162.374C311.321 159.065 310.373 157.411 310.885 155.751C311.397 154.091 313.032 153.296 316.301 151.707C330.154 144.972 345.243 141.086 360.675 140.313C378.768 139.407 396.819 142.805 413.351 150.23C429.884 157.655 444.428 168.896 455.794 183.034C465.49 195.093 472.639 208.967 476.843 223.813C477.834 227.315 478.33 229.066 477.431 230.554C476.532 232.041 474.665 232.434 470.93 233.22L424.797 242.931C421.252 243.677 419.48 244.05 418.182 243.339C416.884 242.628 416.163 240.719 414.722 236.901C412.795 231.796 410.068 227.013 406.631 222.737C401.516 216.375 394.971 211.317 387.531 207.976C380.092 204.634 371.969 203.105 363.827 203.513C358.362 203.787 352.992 204.928 347.914 206.879C344.099 208.345 342.191 209.078 340.797 208.582C339.403 208.085 338.502 206.513 336.7 203.367L313.216 162.374Z" fill="#F49A2F" stroke="white" stroke-width="2" mask="url(#path-4-inside-3_1480_7280)"/>
<mask id="path-5-inside-4_1480_7280" fill="white">
<path d="M470.861 232.959C474.599 232.162 476.469 231.764 477.894 232.761C479.32 233.759 479.574 235.564 480.081 239.174C481.807 251.453 481.543 263.949 479.283 276.177C476.537 291.033 470.899 305.202 462.689 317.874C454.48 330.546 443.86 341.474 431.437 350.033C421.217 357.074 409.94 362.399 398.052 365.816C394.548 366.823 392.797 367.326 391.305 366.43C389.813 365.534 389.416 363.664 388.623 359.924L378.81 313.681C378.06 310.144 377.685 308.376 378.391 307.079C379.097 305.781 381 305.054 384.808 303.599C388.634 302.137 392.281 300.222 395.67 297.887C401.26 294.035 406.039 289.118 409.733 283.415C413.427 277.713 415.965 271.337 417.2 264.652C417.95 260.594 418.212 256.47 417.986 252.368C417.762 248.3 417.65 246.265 418.548 245.091C419.446 243.917 421.214 243.54 424.752 242.786L470.861 232.959Z"/>
</mask>
<path d="M470.861 232.959C474.599 232.162 476.469 231.764 477.894 232.761C479.32 233.759 479.574 235.564 480.081 239.174C481.807 251.453 481.543 263.949 479.283 276.177C476.537 291.033 470.899 305.202 462.689 317.874C454.48 330.546 443.86 341.474 431.437 350.033C421.217 357.074 409.94 362.399 398.052 365.816C394.548 366.823 392.797 367.326 391.305 366.43C389.813 365.534 389.416 363.664 388.623 359.924L378.81 313.681C378.06 310.144 377.685 308.376 378.391 307.079C379.097 305.781 381 305.054 384.808 303.599C388.634 302.137 392.281 300.222 395.67 297.887C401.26 294.035 406.039 289.118 409.733 283.415C413.427 277.713 415.965 271.337 417.2 264.652C417.95 260.594 418.212 256.47 417.986 252.368C417.762 248.3 417.65 246.265 418.548 245.091C419.446 243.917 421.214 243.54 424.752 242.786L470.861 232.959Z" fill="#33B6FF" stroke="white" stroke-width="2" mask="url(#path-5-inside-4_1480_7280)"/>
<mask id="path-6-inside-5_1480_7280" fill="white">
<path d="M274.271 309.328C270.972 311.266 269.322 312.235 267.653 311.737C265.985 311.238 265.176 309.603 263.558 306.332C256.721 292.514 252.714 277.433 251.806 261.982C250.899 246.529 253.113 231.08 258.286 216.552C259.51 213.116 260.122 211.397 261.72 210.707C263.318 210.017 265.07 210.785 268.573 212.321L311.764 231.261C315.074 232.712 316.729 233.438 317.372 234.768C318.014 236.099 317.496 238.067 316.458 242.005C315.067 247.288 314.514 252.776 314.836 258.264C315.158 263.753 316.35 269.137 318.351 274.221C319.842 278.009 320.587 279.903 320.105 281.299C319.623 282.695 318.065 283.61 314.95 285.44L274.271 309.328Z"/>
</mask>
<path d="M274.271 309.328C270.972 311.266 269.322 312.235 267.653 311.737C265.985 311.238 265.176 309.603 263.558 306.332C256.721 292.514 252.714 277.433 251.806 261.982C250.899 246.529 253.113 231.08 258.286 216.552C259.51 213.116 260.122 211.397 261.72 210.707C263.318 210.017 265.07 210.785 268.573 212.321L311.764 231.261C315.074 232.712 316.729 233.438 317.372 234.768C318.014 236.099 317.496 238.067 316.458 242.005C315.067 247.288 314.514 252.776 314.836 258.264C315.158 263.753 316.35 269.137 318.351 274.221C319.842 278.009 320.587 279.903 320.105 281.299C319.623 282.695 318.065 283.61 314.95 285.44L274.271 309.328Z" fill="#0703E8" stroke="white" stroke-width="2" mask="url(#path-6-inside-5_1480_7280)"/>
<path d="M199.07 139.123H258.277L283.006 163.467" stroke="#636770" stroke-width="2" stroke-dasharray="2 2"/>
<path d="M142.133 120.939V136.939H139.234V123.76H139.141L135.398 126.15V123.494L139.375 120.939H142.133ZM152.109 137.244C150.823 137.244 149.719 136.919 148.797 136.268C147.88 135.611 147.174 134.666 146.68 133.432C146.19 132.192 145.945 130.7 145.945 128.955C145.951 127.21 146.198 125.726 146.688 124.502C147.182 123.273 147.888 122.335 148.805 121.689C149.727 121.044 150.828 120.721 152.109 120.721C153.391 120.721 154.492 121.044 155.414 121.689C156.336 122.335 157.042 123.273 157.531 124.502C158.026 125.731 158.273 127.215 158.273 128.955C158.273 130.705 158.026 132.2 157.531 133.439C157.042 134.674 156.336 135.617 155.414 136.268C154.497 136.919 153.396 137.244 152.109 137.244ZM152.109 134.799C153.109 134.799 153.898 134.307 154.477 133.322C155.06 132.333 155.352 130.877 155.352 128.955C155.352 127.684 155.219 126.617 154.953 125.752C154.688 124.887 154.313 124.236 153.828 123.799C153.344 123.356 152.771 123.135 152.109 123.135C151.115 123.135 150.328 123.63 149.75 124.619C149.172 125.604 148.88 127.049 148.875 128.955C148.87 130.231 148.997 131.304 149.258 132.174C149.523 133.044 149.898 133.7 150.383 134.143C150.867 134.58 151.443 134.799 152.109 134.799ZM169.424 133.939V133.096C169.424 132.476 169.554 131.906 169.814 131.385C170.08 130.864 170.465 130.445 170.971 130.127C171.476 129.809 172.088 129.65 172.807 129.65C173.546 129.65 174.166 129.809 174.666 130.127C175.166 130.439 175.544 130.856 175.799 131.377C176.059 131.898 176.189 132.471 176.189 133.096V133.939C176.189 134.559 176.059 135.13 175.799 135.65C175.538 136.171 175.156 136.59 174.65 136.908C174.15 137.226 173.536 137.385 172.807 137.385C172.077 137.385 171.46 137.226 170.955 136.908C170.45 136.59 170.067 136.171 169.807 135.65C169.551 135.13 169.424 134.559 169.424 133.939ZM171.463 133.096V133.939C171.463 134.351 171.562 134.729 171.76 135.072C171.958 135.416 172.307 135.588 172.807 135.588C173.312 135.588 173.658 135.419 173.846 135.08C174.038 134.736 174.135 134.356 174.135 133.939V133.096C174.135 132.679 174.044 132.299 173.861 131.955C173.679 131.606 173.327 131.432 172.807 131.432C172.317 131.432 171.971 131.606 171.768 131.955C171.564 132.299 171.463 132.679 171.463 133.096ZM161.291 124.783V123.939C161.291 123.314 161.424 122.742 161.689 122.221C161.955 121.7 162.34 121.283 162.846 120.971C163.351 120.653 163.963 120.494 164.682 120.494C165.416 120.494 166.033 120.653 166.533 120.971C167.038 121.283 167.419 121.7 167.674 122.221C167.929 122.742 168.057 123.314 168.057 123.939V124.783C168.057 125.408 167.926 125.981 167.666 126.502C167.411 127.018 167.031 127.432 166.525 127.744C166.02 128.057 165.406 128.213 164.682 128.213C163.947 128.213 163.327 128.057 162.822 127.744C162.322 127.432 161.942 127.015 161.682 126.494C161.421 125.973 161.291 125.403 161.291 124.783ZM163.346 123.939V124.783C163.346 125.2 163.442 125.58 163.635 125.924C163.833 126.262 164.182 126.432 164.682 126.432C165.182 126.432 165.525 126.262 165.713 125.924C165.906 125.58 166.002 125.2 166.002 124.783V123.939C166.002 123.523 165.911 123.143 165.729 122.799C165.546 122.45 165.197 122.275 164.682 122.275C164.187 122.275 163.84 122.45 163.643 122.799C163.445 123.148 163.346 123.528 163.346 123.939ZM162.182 136.939L173.182 120.939H175.135L164.135 136.939H162.182Z" fill="#13316B"/>
<path d="M17.2067 162.125V147.58H22.1214C23.2625 147.58 24.1953 147.786 24.9197 148.197C25.6489 148.605 26.1887 149.156 26.5391 149.852C26.8894 150.548 27.0646 151.325 27.0646 152.182C27.0646 153.039 26.8894 153.818 26.5391 154.518C26.1934 155.219 25.6584 155.778 24.9339 156.195C24.2095 156.607 23.2815 156.812 22.1499 156.812H18.6271V155.25H22.093C22.8743 155.25 23.5017 155.115 23.9751 154.845C24.4486 154.575 24.7919 154.211 25.005 153.751C25.2228 153.287 25.3317 152.764 25.3317 152.182C25.3317 151.599 25.2228 151.079 25.005 150.619C24.7919 150.16 24.4463 149.8 23.968 149.54C23.4898 149.275 22.8554 149.142 22.0646 149.142H18.968V162.125H17.2067ZM29.6747 162.125V151.216H31.294V152.864H31.4077C31.6065 152.324 31.9664 151.886 32.4872 151.55C33.008 151.214 33.5952 151.045 34.2486 151.045C34.3717 151.045 34.5256 151.048 34.7102 151.053C34.8949 151.057 35.0346 151.064 35.1293 151.074V152.778C35.0724 152.764 34.9422 152.743 34.7386 152.714C34.5398 152.681 34.3291 152.665 34.1065 152.665C33.5762 152.665 33.1027 152.776 32.6861 152.999C32.2741 153.216 31.9474 153.519 31.706 153.908C31.4692 154.291 31.3509 154.729 31.3509 155.222V162.125H29.6747ZM41.358 162.352C40.3068 162.352 39.4001 162.12 38.6378 161.656C37.8802 161.188 37.2955 160.534 36.8835 159.696C36.4763 158.853 36.2727 157.873 36.2727 156.756C36.2727 155.638 36.4763 154.653 36.8835 153.801C37.2955 152.944 37.8684 152.277 38.6023 151.798C39.3409 151.315 40.2027 151.074 41.1875 151.074C41.7557 151.074 42.3168 151.169 42.8707 151.358C43.4247 151.547 43.929 151.855 44.3835 152.281C44.8381 152.703 45.2003 153.261 45.4702 153.957C45.7401 154.653 45.875 155.51 45.875 156.528V157.239H37.4659V155.79H44.1705C44.1705 155.174 44.0473 154.625 43.8011 154.142C43.5597 153.659 43.214 153.278 42.7642 152.999C42.3191 152.719 41.7936 152.58 41.1875 152.58C40.5199 152.58 39.9422 152.745 39.4545 153.077C38.9716 153.403 38.5999 153.83 38.3395 154.355C38.0791 154.881 37.9489 155.444 37.9489 156.045V157.011C37.9489 157.835 38.0909 158.534 38.375 159.107C38.6638 159.675 39.0639 160.108 39.5753 160.406C40.0866 160.7 40.6809 160.847 41.358 160.847C41.7983 160.847 42.196 160.785 42.5511 160.662C42.911 160.534 43.2211 160.345 43.4815 160.094C43.742 159.838 43.9432 159.521 44.0852 159.142L45.7045 159.597C45.5341 160.146 45.2476 160.629 44.8452 161.045C44.4427 161.457 43.9455 161.779 43.3537 162.011C42.7618 162.239 42.0966 162.352 41.358 162.352ZM56.152 153.659L54.6463 154.085C54.5516 153.834 54.4119 153.59 54.2273 153.354C54.0473 153.112 53.8011 152.913 53.4886 152.757C53.1761 152.601 52.776 152.523 52.2884 152.523C51.6207 152.523 51.0644 152.677 50.6193 152.984C50.179 153.287 49.9588 153.673 49.9588 154.142C49.9588 154.559 50.1103 154.888 50.4134 155.129C50.7164 155.371 51.1899 155.572 51.8338 155.733L53.4531 156.131C54.4285 156.367 55.1553 156.73 55.6335 157.217C56.1117 157.7 56.3509 158.323 56.3509 159.085C56.3509 159.71 56.1709 160.269 55.8111 160.761C55.456 161.254 54.9588 161.642 54.3196 161.926C53.6804 162.21 52.937 162.352 52.0895 162.352C50.9768 162.352 50.0559 162.111 49.3267 161.628C48.5975 161.145 48.1359 160.439 47.9418 159.511L49.5327 159.114C49.6842 159.701 49.9706 160.141 50.392 160.435C50.8182 160.728 51.3745 160.875 52.0611 160.875C52.8423 160.875 53.4626 160.709 53.9219 160.378C54.3859 160.042 54.6179 159.639 54.6179 159.17C54.6179 158.792 54.4853 158.474 54.2202 158.219C53.955 157.958 53.5478 157.764 52.9986 157.636L51.1804 157.21C50.1813 156.973 49.4474 156.607 48.9787 156.109C48.5147 155.607 48.2827 154.98 48.2827 154.227C48.2827 153.612 48.4555 153.067 48.8011 152.594C49.1515 152.12 49.6274 151.749 50.2287 151.479C50.8348 151.209 51.5213 151.074 52.2884 151.074C53.3679 151.074 54.2154 151.311 54.831 151.784C55.4512 152.258 55.8916 152.883 56.152 153.659ZM62.0842 162.381C61.3929 162.381 60.7655 162.25 60.2021 161.99C59.6386 161.725 59.1912 161.344 58.8597 160.847C58.5283 160.345 58.3626 159.739 58.3626 159.028C58.3626 158.403 58.4857 157.897 58.7319 157.509C58.9781 157.116 59.3072 156.808 59.7191 156.585C60.131 156.363 60.5856 156.197 61.0827 156.088C61.5846 155.974 62.0889 155.884 62.5955 155.818C63.2584 155.733 63.7958 155.669 64.2077 155.626C64.6244 155.579 64.9274 155.501 65.1168 155.392C65.311 155.283 65.408 155.094 65.408 154.824V154.767C65.408 154.066 65.2163 153.522 64.8327 153.134C64.454 152.745 63.8787 152.551 63.1069 152.551C62.3067 152.551 61.6793 152.726 61.2248 153.077C60.7702 153.427 60.4506 153.801 60.266 154.199L58.6751 153.631C58.9592 152.968 59.3379 152.452 59.8114 152.082C60.2897 151.708 60.8105 151.448 61.3739 151.301C61.9421 151.15 62.5008 151.074 63.0501 151.074C63.4004 151.074 63.8029 151.116 64.2575 151.202C64.7167 151.282 65.1594 151.45 65.5856 151.706C66.0165 151.962 66.3739 152.348 66.658 152.864C66.9421 153.38 67.0842 154.071 67.0842 154.938V162.125H65.408V160.648H65.3228C65.2092 160.884 65.0198 161.138 64.7546 161.408C64.4895 161.678 64.1367 161.907 63.6964 162.097C63.256 162.286 62.7186 162.381 62.0842 162.381ZM62.3398 160.875C63.0027 160.875 63.5614 160.745 64.016 160.484C64.4753 160.224 64.8209 159.888 65.0529 159.476C65.2897 159.064 65.408 158.631 65.408 158.176V156.642C65.337 156.727 65.1808 156.805 64.9393 156.876C64.7025 156.943 64.4279 157.002 64.1154 157.054C63.8076 157.101 63.507 157.144 63.2134 157.182C62.9246 157.215 62.6902 157.243 62.5103 157.267C62.0747 157.324 61.6675 157.416 61.2887 157.544C60.9147 157.667 60.6116 157.854 60.3796 158.105C60.1523 158.351 60.0387 158.687 60.0387 159.114C60.0387 159.696 60.2541 160.136 60.685 160.435C61.1206 160.728 61.6722 160.875 62.3398 160.875ZM71.8196 147.58V162.125H70.1435V147.58H71.8196ZM79.4634 162.352C78.4123 162.352 77.5056 162.12 76.7433 161.656C75.9857 161.188 75.4009 160.534 74.989 159.696C74.5818 158.853 74.3782 157.873 74.3782 156.756C74.3782 155.638 74.5818 154.653 74.989 153.801C75.4009 152.944 75.9738 152.277 76.7077 151.798C77.4464 151.315 78.3081 151.074 79.293 151.074C79.8612 151.074 80.4222 151.169 80.9762 151.358C81.5302 151.547 82.0344 151.855 82.489 152.281C82.9435 152.703 83.3058 153.261 83.5756 153.957C83.8455 154.653 83.9805 155.51 83.9805 156.528V157.239H75.5714V155.79H82.2759C82.2759 155.174 82.1528 154.625 81.9066 154.142C81.6651 153.659 81.3195 153.278 80.8697 152.999C80.4246 152.719 79.899 152.58 79.293 152.58C78.6254 152.58 78.0477 152.745 77.56 153.077C77.0771 153.403 76.7054 153.83 76.445 154.355C76.1845 154.881 76.0543 155.444 76.0543 156.045V157.011C76.0543 157.835 76.1964 158.534 76.4805 159.107C76.7693 159.675 77.1694 160.108 77.6808 160.406C78.1921 160.7 78.7863 160.847 79.4634 160.847C79.9038 160.847 80.3015 160.785 80.6566 160.662C81.0165 160.534 81.3266 160.345 81.587 160.094C81.8474 159.838 82.0487 159.521 82.1907 159.142L83.81 159.597C83.6396 160.146 83.3531 160.629 82.9506 161.045C82.5482 161.457 82.051 161.779 81.4592 162.011C80.8673 162.239 80.2021 162.352 79.4634 162.352ZM91.587 149.142V147.58H102.496V149.142H97.9222V162.125H96.1609V149.142H91.587ZM107.837 162.352C106.852 162.352 105.988 162.118 105.245 161.649C104.506 161.18 103.928 160.525 103.512 159.682C103.1 158.839 102.894 157.854 102.894 156.727C102.894 155.591 103.1 154.599 103.512 153.751C103.928 152.904 104.506 152.246 105.245 151.777C105.988 151.308 106.852 151.074 107.837 151.074C108.822 151.074 109.684 151.308 110.422 151.777C111.166 152.246 111.743 152.904 112.155 153.751C112.572 154.599 112.78 155.591 112.78 156.727C112.78 157.854 112.572 158.839 112.155 159.682C111.743 160.525 111.166 161.18 110.422 161.649C109.684 162.118 108.822 162.352 107.837 162.352ZM107.837 160.847C108.585 160.847 109.201 160.655 109.684 160.271C110.167 159.888 110.524 159.384 110.756 158.759C110.988 158.134 111.104 157.456 111.104 156.727C111.104 155.998 110.988 155.319 110.756 154.689C110.524 154.059 110.167 153.55 109.684 153.162C109.201 152.774 108.585 152.58 107.837 152.58C107.089 152.58 106.473 152.774 105.99 153.162C105.507 153.55 105.15 154.059 104.918 154.689C104.686 155.319 104.57 155.998 104.57 156.727C104.57 157.456 104.686 158.134 104.918 158.759C105.15 159.384 105.507 159.888 105.99 160.271C106.473 160.655 107.089 160.847 107.837 160.847ZM116.901 158.148L116.873 156.074H117.214L121.987 151.216H124.06L118.975 156.358H118.833L116.901 158.148ZM115.339 162.125V147.58H117.015V162.125H115.339ZM122.271 162.125L118.009 156.727L119.202 155.562L124.401 162.125H122.271ZM130.342 162.352C129.291 162.352 128.384 162.12 127.622 161.656C126.865 161.188 126.28 160.534 125.868 159.696C125.461 158.853 125.257 157.873 125.257 156.756C125.257 155.638 125.461 154.653 125.868 153.801C126.28 152.944 126.853 152.277 127.587 151.798C128.325 151.315 129.187 151.074 130.172 151.074C130.74 151.074 131.301 151.169 131.855 151.358C132.409 151.547 132.913 151.855 133.368 152.281C133.822 152.703 134.185 153.261 134.455 153.957C134.724 154.653 134.859 155.51 134.859 156.528V157.239H126.45V155.79H133.155C133.155 155.174 133.032 154.625 132.786 154.142C132.544 153.659 132.198 153.278 131.749 152.999C131.304 152.719 130.778 152.58 130.172 152.58C129.504 152.58 128.927 152.745 128.439 153.077C127.956 153.403 127.584 153.83 127.324 154.355C127.063 154.881 126.933 155.444 126.933 156.045V157.011C126.933 157.835 127.075 158.534 127.359 159.107C127.648 159.675 128.048 160.108 128.56 160.406C129.071 160.7 129.665 160.847 130.342 160.847C130.783 160.847 131.18 160.785 131.536 160.662C131.895 160.534 132.205 160.345 132.466 160.094C132.726 159.838 132.928 159.521 133.07 159.142L134.689 159.597C134.518 160.146 134.232 160.629 133.83 161.045C133.427 161.457 132.93 161.779 132.338 162.011C131.746 162.239 131.081 162.352 130.342 162.352ZM139.085 155.562V162.125H137.409V151.216H139.028V152.92H139.17C139.426 152.366 139.814 151.921 140.335 151.585C140.856 151.244 141.528 151.074 142.352 151.074C143.091 151.074 143.737 151.225 144.291 151.528C144.845 151.827 145.276 152.281 145.584 152.892C145.892 153.498 146.045 154.265 146.045 155.193V162.125H144.369V155.307C144.369 154.45 144.147 153.782 143.702 153.304C143.257 152.821 142.646 152.58 141.869 152.58C141.334 152.58 140.856 152.696 140.435 152.928C140.018 153.16 139.689 153.498 139.447 153.943C139.206 154.388 139.085 154.928 139.085 155.562Z" fill="#13316B"/>
<path d="M179.047 249.086L210.951 249.086L238.341 249.086" stroke="#636770" stroke-width="2" stroke-dasharray="2 2"/>
<path d="M123.625 230.066V246.066H120.727V232.887H120.633L116.891 235.277V232.621L120.867 230.066H123.625ZM133.25 246.285C132.208 246.285 131.276 246.09 130.453 245.699C129.63 245.303 128.977 244.762 128.492 244.074C128.013 243.387 127.758 242.6 127.727 241.715H130.539C130.591 242.371 130.875 242.908 131.391 243.324C131.906 243.736 132.526 243.941 133.25 243.941C133.818 243.941 134.323 243.811 134.766 243.551C135.208 243.29 135.557 242.928 135.813 242.465C136.068 242.001 136.193 241.473 136.188 240.879C136.193 240.275 136.065 239.738 135.805 239.27C135.544 238.801 135.188 238.434 134.734 238.168C134.281 237.897 133.76 237.762 133.172 237.762C132.693 237.757 132.221 237.845 131.758 238.027C131.294 238.21 130.927 238.449 130.656 238.746L128.039 238.316L128.875 230.066H138.156V232.488H131.273L130.813 236.73H130.906C131.203 236.382 131.622 236.092 132.164 235.863C132.706 235.629 133.299 235.512 133.945 235.512C134.914 235.512 135.779 235.741 136.539 236.199C137.299 236.652 137.898 237.277 138.336 238.074C138.773 238.871 138.992 239.783 138.992 240.809C138.992 241.866 138.747 242.809 138.258 243.637C137.773 244.46 137.099 245.108 136.234 245.582C135.375 246.051 134.38 246.285 133.25 246.285ZM150.164 243.066V242.223C150.164 241.603 150.294 241.033 150.555 240.512C150.82 239.991 151.206 239.572 151.711 239.254C152.216 238.936 152.828 238.777 153.547 238.777C154.286 238.777 154.906 238.936 155.406 239.254C155.906 239.566 156.284 239.983 156.539 240.504C156.799 241.025 156.93 241.598 156.93 242.223V243.066C156.93 243.686 156.799 244.257 156.539 244.777C156.279 245.298 155.896 245.717 155.391 246.035C154.891 246.353 154.276 246.512 153.547 246.512C152.818 246.512 152.201 246.353 151.695 246.035C151.19 245.717 150.807 245.298 150.547 244.777C150.292 244.257 150.164 243.686 150.164 243.066ZM152.203 242.223V243.066C152.203 243.478 152.302 243.855 152.5 244.199C152.698 244.543 153.047 244.715 153.547 244.715C154.052 244.715 154.398 244.546 154.586 244.207C154.779 243.863 154.875 243.483 154.875 243.066V242.223C154.875 241.806 154.784 241.426 154.602 241.082C154.419 240.733 154.068 240.559 153.547 240.559C153.057 240.559 152.711 240.733 152.508 241.082C152.305 241.426 152.203 241.806 152.203 242.223ZM142.031 233.91V233.066C142.031 232.441 142.164 231.868 142.43 231.348C142.695 230.827 143.081 230.41 143.586 230.098C144.091 229.78 144.703 229.621 145.422 229.621C146.156 229.621 146.773 229.78 147.273 230.098C147.779 230.41 148.159 230.827 148.414 231.348C148.669 231.868 148.797 232.441 148.797 233.066V233.91C148.797 234.535 148.667 235.108 148.406 235.629C148.151 236.145 147.771 236.559 147.266 236.871C146.76 237.184 146.146 237.34 145.422 237.34C144.688 237.34 144.068 237.184 143.563 236.871C143.063 236.559 142.682 236.142 142.422 235.621C142.161 235.1 142.031 234.53 142.031 233.91ZM144.086 233.066V233.91C144.086 234.327 144.182 234.707 144.375 235.051C144.573 235.389 144.922 235.559 145.422 235.559C145.922 235.559 146.266 235.389 146.453 235.051C146.646 234.707 146.742 234.327 146.742 233.91V233.066C146.742 232.65 146.651 232.27 146.469 231.926C146.286 231.577 145.938 231.402 145.422 231.402C144.927 231.402 144.581 231.577 144.383 231.926C144.185 232.275 144.086 232.655 144.086 233.066ZM142.922 246.066L153.922 230.066H155.875L144.875 246.066H142.922Z" fill="#13316B"/>
<path d="M1.76136 271.252V256.706H6.67614C7.81724 256.706 8.75 256.912 9.47443 257.324C10.2036 257.732 10.7434 258.283 11.0938 258.979C11.4441 259.675 11.6193 260.452 11.6193 261.309C11.6193 262.166 11.4441 262.945 11.0938 263.645C10.7481 264.346 10.2131 264.905 9.48864 265.322C8.7642 265.733 7.83617 265.939 6.70455 265.939H3.18182V264.377H6.64773C7.42898 264.377 8.05634 264.242 8.52983 263.972C9.00331 263.702 9.34659 263.338 9.55966 262.878C9.77746 262.414 9.88636 261.891 9.88636 261.309C9.88636 260.726 9.77746 260.206 9.55966 259.746C9.34659 259.287 9.00095 258.927 8.52273 258.667C8.04451 258.402 7.41004 258.269 6.61932 258.269H3.52273V271.252H1.76136ZM14.2294 271.252V260.343H15.8487V261.991H15.9624C16.1612 261.451 16.5211 261.013 17.0419 260.677C17.5627 260.34 18.1499 260.172 18.8033 260.172C18.9264 260.172 19.0803 260.175 19.2649 260.18C19.4496 260.184 19.5893 260.191 19.6839 260.201V261.905C19.6271 261.891 19.4969 261.87 19.2933 261.841C19.0945 261.808 18.8838 261.792 18.6612 261.792C18.1309 261.792 17.6574 261.903 17.2408 262.126C16.8288 262.343 16.5021 262.646 16.2607 263.035C16.0239 263.418 15.9055 263.856 15.9055 264.349V271.252H14.2294ZM25.9126 271.479C24.8615 271.479 23.9548 271.247 23.1925 270.783C22.4349 270.314 21.8501 269.661 21.4382 268.823C21.031 267.98 20.8274 267 20.8274 265.883C20.8274 264.765 21.031 263.78 21.4382 262.928C21.8501 262.071 22.4231 261.403 23.157 260.925C23.8956 260.442 24.7573 260.201 25.7422 260.201C26.3104 260.201 26.8714 260.296 27.4254 260.485C27.9794 260.674 28.4837 260.982 28.9382 261.408C29.3928 261.83 29.755 262.388 30.0249 263.084C30.2947 263.78 30.4297 264.637 30.4297 265.655V266.366H22.0206V264.917H28.7251C28.7251 264.301 28.602 263.752 28.3558 263.269C28.1143 262.786 27.7687 262.405 27.3189 262.126C26.8738 261.846 26.3482 261.706 25.7422 261.706C25.0746 261.706 24.4969 261.872 24.0092 262.204C23.5263 262.53 23.1546 262.956 22.8942 263.482C22.6338 264.008 22.5036 264.571 22.5036 265.172V266.138C22.5036 266.962 22.6456 267.661 22.9297 268.233C23.2185 268.802 23.6186 269.235 24.13 269.533C24.6413 269.827 25.2356 269.974 25.9126 269.974C26.353 269.974 26.7507 269.912 27.1058 269.789C27.4657 269.661 27.7758 269.472 28.0362 269.221C28.2966 268.965 28.4979 268.648 28.6399 268.269L30.2592 268.724C30.0888 269.273 29.8023 269.756 29.3999 270.172C28.9974 270.584 28.5002 270.906 27.9084 271.138C27.3165 271.366 26.6513 271.479 25.9126 271.479ZM40.7067 262.786L39.201 263.212C39.1063 262.961 38.9666 262.717 38.782 262.481C38.602 262.239 38.3558 262.04 38.0433 261.884C37.7308 261.728 37.3307 261.65 36.843 261.65C36.1754 261.65 35.6191 261.804 35.174 262.111C34.7337 262.414 34.5135 262.8 34.5135 263.269C34.5135 263.686 34.665 264.015 34.968 264.256C35.2711 264.498 35.7446 264.699 36.3885 264.86L38.0078 265.258C38.9832 265.494 39.71 265.857 40.1882 266.344C40.6664 266.827 40.9055 267.45 40.9055 268.212C40.9055 268.837 40.7256 269.396 40.3658 269.888C40.0107 270.381 39.5135 270.769 38.8743 271.053C38.2351 271.337 37.4917 271.479 36.6442 271.479C35.5315 271.479 34.6106 271.238 33.8814 270.755C33.1522 270.272 32.6906 269.566 32.4964 268.638L34.0874 268.241C34.2389 268.828 34.5253 269.268 34.9467 269.562C35.3729 269.855 35.9292 270.002 36.6158 270.002C37.397 270.002 38.0173 269.836 38.4766 269.505C38.9406 269.169 39.1726 268.766 39.1726 268.297C39.1726 267.919 39.04 267.601 38.7749 267.346C38.5097 267.085 38.1025 266.891 37.5533 266.763L35.7351 266.337C34.736 266.1 34.0021 265.733 33.5334 265.236C33.0694 264.734 32.8374 264.107 32.8374 263.354C32.8374 262.739 33.0102 262.194 33.3558 261.721C33.7062 261.247 34.1821 260.876 34.7834 260.606C35.3894 260.336 36.076 260.201 36.843 260.201C37.9226 260.201 38.7701 260.438 39.3857 260.911C40.0059 261.385 40.4463 262.01 40.7067 262.786ZM46.6388 271.508C45.9476 271.508 45.3202 271.377 44.7567 271.117C44.1933 270.852 43.7459 270.471 43.4144 269.974C43.083 269.472 42.9173 268.866 42.9173 268.155C42.9173 267.53 43.0404 267.024 43.2866 266.635C43.5328 266.242 43.8619 265.935 44.2738 265.712C44.6857 265.49 45.1403 265.324 45.6374 265.215C46.1393 265.101 46.6436 265.011 47.1502 264.945C47.8131 264.86 48.3505 264.796 48.7624 264.753C49.1791 264.706 49.4821 264.628 49.6715 264.519C49.8656 264.41 49.9627 264.221 49.9627 263.951V263.894C49.9627 263.193 49.771 262.649 49.3874 262.26C49.0086 261.872 48.4334 261.678 47.6616 261.678C46.8614 261.678 46.234 261.853 45.7795 262.204C45.3249 262.554 45.0053 262.928 44.8207 263.326L43.2298 262.758C43.5138 262.095 43.8926 261.579 44.3661 261.209C44.8443 260.835 45.3652 260.575 45.9286 260.428C46.4968 260.277 47.0555 260.201 47.6048 260.201C47.9551 260.201 48.3576 260.243 48.8121 260.329C49.2714 260.409 49.7141 260.577 50.1403 260.833C50.5711 261.089 50.9286 261.474 51.2127 261.991C51.4968 262.507 51.6388 263.198 51.6388 264.064V271.252H49.9627V269.775H49.8775C49.7638 270.011 49.5745 270.265 49.3093 270.535C49.0442 270.805 48.6914 271.034 48.2511 271.224C47.8107 271.413 47.2733 271.508 46.6388 271.508ZM46.8945 270.002C47.5574 270.002 48.1161 269.872 48.5707 269.611C49.0299 269.351 49.3756 269.015 49.6076 268.603C49.8443 268.191 49.9627 267.758 49.9627 267.303V265.769C49.8917 265.854 49.7354 265.932 49.494 266.003C49.2572 266.07 48.9826 266.129 48.6701 266.181C48.3623 266.228 48.0617 266.271 47.7681 266.309C47.4793 266.342 47.2449 266.37 47.065 266.394C46.6294 266.451 46.2222 266.543 45.8434 266.671C45.4693 266.794 45.1663 266.981 44.9343 267.232C44.707 267.478 44.5934 267.814 44.5934 268.241C44.5934 268.823 44.8088 269.263 45.2397 269.562C45.6753 269.855 46.2269 270.002 46.8945 270.002ZM56.3743 256.706V271.252H54.6982V256.706H56.3743ZM64.0181 271.479C62.967 271.479 62.0603 271.247 61.2979 270.783C60.5404 270.314 59.9556 269.661 59.5437 268.823C59.1365 267.98 58.9329 267 58.9329 265.883C58.9329 264.765 59.1365 263.78 59.5437 262.928C59.9556 262.071 60.5285 261.403 61.2624 260.925C62.0011 260.442 62.8628 260.201 63.8477 260.201C64.4158 260.201 64.9769 260.296 65.5309 260.485C66.0849 260.674 66.5891 260.982 67.0437 261.408C67.4982 261.83 67.8604 262.388 68.1303 263.084C68.4002 263.78 68.5352 264.637 68.5352 265.655V266.366H60.1261V264.917H66.8306C66.8306 264.301 66.7075 263.752 66.4613 263.269C66.2198 262.786 65.8742 262.405 65.4244 262.126C64.9793 261.846 64.4537 261.706 63.8477 261.706C63.18 261.706 62.6024 261.872 62.1147 262.204C61.6317 262.53 61.2601 262.956 60.9996 263.482C60.7392 264.008 60.609 264.571 60.609 265.172V266.138C60.609 266.962 60.7511 267.661 61.0352 268.233C61.324 268.802 61.7241 269.235 62.2354 269.533C62.7468 269.827 63.341 269.974 64.0181 269.974C64.4585 269.974 64.8562 269.912 65.2113 269.789C65.5711 269.661 65.8813 269.472 66.1417 269.221C66.4021 268.965 66.6033 268.648 66.7454 268.269L68.3647 268.724C68.1942 269.273 67.9078 269.756 67.5053 270.172C67.1029 270.584 66.6057 270.906 66.0138 271.138C65.422 271.366 64.7567 271.479 64.0181 271.479ZM76.1417 258.269V256.706H87.0508V258.269H82.4769V271.252H80.7156V258.269H76.1417ZM92.3917 271.479C91.4068 271.479 90.5427 271.245 89.7994 270.776C89.0607 270.307 88.4831 269.652 88.0664 268.809C87.6545 267.966 87.4485 266.981 87.4485 265.854C87.4485 264.718 87.6545 263.726 88.0664 262.878C88.4831 262.031 89.0607 261.373 89.7994 260.904C90.5427 260.435 91.4068 260.201 92.3917 260.201C93.3765 260.201 94.2383 260.435 94.9769 260.904C95.7203 261.373 96.2979 262.031 96.7099 262.878C97.1265 263.726 97.3349 264.718 97.3349 265.854C97.3349 266.981 97.1265 267.966 96.7099 268.809C96.2979 269.652 95.7203 270.307 94.9769 270.776C94.2383 271.245 93.3765 271.479 92.3917 271.479ZM92.3917 269.974C93.1398 269.974 93.7553 269.782 94.2383 269.398C94.7212 269.015 95.0787 268.51 95.3107 267.885C95.5427 267.26 95.6587 266.583 95.6587 265.854C95.6587 265.125 95.5427 264.446 95.3107 263.816C95.0787 263.186 94.7212 262.677 94.2383 262.289C93.7553 261.901 93.1398 261.706 92.3917 261.706C91.6436 261.706 91.0281 261.901 90.5451 262.289C90.0621 262.677 89.7047 263.186 89.4727 263.816C89.2406 264.446 89.1246 265.125 89.1246 265.854C89.1246 266.583 89.2406 267.26 89.4727 267.885C89.7047 268.51 90.0621 269.015 90.5451 269.398C91.0281 269.782 91.6436 269.974 92.3917 269.974ZM101.456 267.275L101.428 265.201H101.768L106.541 260.343H108.615L103.53 265.485H103.388L101.456 267.275ZM99.8935 271.252V256.706H101.57V271.252H99.8935ZM106.825 271.252L102.564 265.854L103.757 264.689L108.956 271.252H106.825ZM114.897 271.479C113.846 271.479 112.939 271.247 112.177 270.783C111.419 270.314 110.835 269.661 110.423 268.823C110.015 267.98 109.812 267 109.812 265.883C109.812 264.765 110.015 263.78 110.423 262.928C110.835 262.071 111.407 261.403 112.141 260.925C112.88 260.442 113.742 260.201 114.727 260.201C115.295 260.201 115.856 260.296 116.41 260.485C116.964 260.674 117.468 260.982 117.923 261.408C118.377 261.83 118.739 262.388 119.009 263.084C119.279 263.78 119.414 264.637 119.414 265.655V266.366H111.005V264.917H117.71C117.71 264.301 117.586 263.752 117.34 263.269C117.099 262.786 116.753 262.405 116.303 262.126C115.858 261.846 115.333 261.706 114.727 261.706C114.059 261.706 113.481 261.872 112.994 262.204C112.511 262.53 112.139 262.956 111.879 263.482C111.618 264.008 111.488 264.571 111.488 265.172V266.138C111.488 266.962 111.63 267.661 111.914 268.233C112.203 268.802 112.603 269.235 113.114 269.533C113.626 269.827 114.22 269.974 114.897 269.974C115.337 269.974 115.735 269.912 116.09 269.789C116.45 269.661 116.76 269.472 117.021 269.221C117.281 268.965 117.482 268.648 117.624 268.269L119.244 268.724C119.073 269.273 118.787 269.756 118.384 270.172C117.982 270.584 117.485 270.906 116.893 271.138C116.301 271.366 115.636 271.479 114.897 271.479ZM123.64 264.689V271.252H121.964V260.343H123.583V262.047H123.725C123.981 261.493 124.369 261.048 124.89 260.712C125.411 260.371 126.083 260.201 126.907 260.201C127.646 260.201 128.292 260.352 128.846 260.655C129.4 260.954 129.831 261.408 130.138 262.019C130.446 262.625 130.6 263.392 130.6 264.32V271.252H128.924V264.434C128.924 263.577 128.701 262.909 128.256 262.431C127.811 261.948 127.201 261.706 126.424 261.706C125.889 261.706 125.411 261.823 124.989 262.055C124.573 262.287 124.244 262.625 124.002 263.07C123.761 263.515 123.64 264.055 123.64 264.689Z" fill="#13316B"/>
<path d="M219.859 391.793H268.587L296.864 372.486" stroke="#636770" stroke-width="2" stroke-dasharray="2 2"/>
<path d="M152.586 392.131V390.037L158.141 384.592C158.672 384.055 159.115 383.579 159.469 383.162C159.823 382.745 160.089 382.342 160.266 381.951C160.443 381.561 160.531 381.144 160.531 380.701C160.531 380.196 160.417 379.764 160.188 379.404C159.958 379.04 159.643 378.758 159.242 378.561C158.841 378.363 158.385 378.264 157.875 378.264C157.349 378.264 156.888 378.373 156.492 378.592C156.096 378.805 155.789 379.11 155.57 379.506C155.357 379.902 155.25 380.373 155.25 380.92H152.492C152.492 379.904 152.724 379.021 153.188 378.271C153.651 377.521 154.289 376.941 155.102 376.529C155.919 376.118 156.857 375.912 157.914 375.912C158.987 375.912 159.93 376.113 160.742 376.514C161.555 376.915 162.185 377.464 162.633 378.162C163.086 378.86 163.313 379.657 163.313 380.553C163.313 381.152 163.198 381.74 162.969 382.318C162.74 382.896 162.336 383.537 161.758 384.24C161.185 384.943 160.38 385.795 159.344 386.795L156.586 389.6V389.709H163.555V392.131H152.586ZM172.164 392.436C170.878 392.436 169.773 392.11 168.852 391.459C167.935 390.803 167.229 389.857 166.734 388.623C166.245 387.383 166 385.891 166 384.146C166.005 382.402 166.253 380.917 166.742 379.693C167.237 378.464 167.943 377.527 168.859 376.881C169.781 376.235 170.883 375.912 172.164 375.912C173.445 375.912 174.547 376.235 175.469 376.881C176.391 377.527 177.096 378.464 177.586 379.693C178.081 380.923 178.328 382.407 178.328 384.146C178.328 385.896 178.081 387.391 177.586 388.631C177.096 389.865 176.391 390.808 175.469 391.459C174.552 392.11 173.451 392.436 172.164 392.436ZM172.164 389.99C173.164 389.99 173.953 389.498 174.531 388.514C175.115 387.524 175.406 386.068 175.406 384.146C175.406 382.876 175.273 381.808 175.008 380.943C174.742 380.079 174.367 379.428 173.883 378.99C173.398 378.548 172.826 378.326 172.164 378.326C171.169 378.326 170.383 378.821 169.805 379.811C169.227 380.795 168.935 382.24 168.93 384.146C168.924 385.423 169.052 386.495 169.313 387.365C169.578 388.235 169.953 388.891 170.438 389.334C170.922 389.771 171.497 389.99 172.164 389.99ZM189.479 389.131V388.287C189.479 387.667 189.609 387.097 189.869 386.576C190.135 386.055 190.52 385.636 191.025 385.318C191.531 385.001 192.143 384.842 192.861 384.842C193.601 384.842 194.221 385.001 194.721 385.318C195.221 385.631 195.598 386.048 195.854 386.568C196.114 387.089 196.244 387.662 196.244 388.287V389.131C196.244 389.751 196.114 390.321 195.854 390.842C195.593 391.363 195.21 391.782 194.705 392.1C194.205 392.417 193.59 392.576 192.861 392.576C192.132 392.576 191.515 392.417 191.01 392.1C190.505 391.782 190.122 391.363 189.861 390.842C189.606 390.321 189.479 389.751 189.479 389.131ZM191.518 388.287V389.131C191.518 389.542 191.617 389.92 191.814 390.264C192.012 390.607 192.361 390.779 192.861 390.779C193.367 390.779 193.713 390.61 193.9 390.271C194.093 389.928 194.189 389.548 194.189 389.131V388.287C194.189 387.87 194.098 387.49 193.916 387.146C193.734 386.798 193.382 386.623 192.861 386.623C192.372 386.623 192.025 386.798 191.822 387.146C191.619 387.49 191.518 387.87 191.518 388.287ZM181.346 379.975V379.131C181.346 378.506 181.479 377.933 181.744 377.412C182.01 376.891 182.395 376.475 182.9 376.162C183.406 375.844 184.018 375.686 184.736 375.686C185.471 375.686 186.088 375.844 186.588 376.162C187.093 376.475 187.473 376.891 187.729 377.412C187.984 377.933 188.111 378.506 188.111 379.131V379.975C188.111 380.6 187.981 381.173 187.721 381.693C187.465 382.209 187.085 382.623 186.58 382.936C186.075 383.248 185.46 383.404 184.736 383.404C184.002 383.404 183.382 383.248 182.877 382.936C182.377 382.623 181.997 382.206 181.736 381.686C181.476 381.165 181.346 380.594 181.346 379.975ZM183.4 379.131V379.975C183.4 380.391 183.497 380.771 183.689 381.115C183.887 381.454 184.236 381.623 184.736 381.623C185.236 381.623 185.58 381.454 185.768 381.115C185.96 380.771 186.057 380.391 186.057 379.975V379.131C186.057 378.714 185.965 378.334 185.783 377.99C185.601 377.641 185.252 377.467 184.736 377.467C184.242 377.467 183.895 377.641 183.697 377.99C183.499 378.339 183.4 378.719 183.4 379.131ZM182.236 392.131L193.236 376.131H195.189L184.189 392.131H182.236Z" fill="#13316B"/>
<path d="M16.4112 405.171V403.609H27.3203V405.171H22.7464V418.154H20.9851V405.171H16.4112ZM32.8033 418.382C31.7521 418.382 30.8454 418.15 30.0831 417.686C29.3255 417.217 28.7408 416.563 28.3288 415.725C27.9216 414.883 27.718 413.902 27.718 412.785C27.718 411.668 27.9216 410.683 28.3288 409.83C28.7408 408.973 29.3137 408.306 30.0476 407.828C30.7862 407.345 31.648 407.103 32.6328 407.103C33.201 407.103 33.7621 407.198 34.3161 407.387C34.87 407.577 35.3743 407.884 35.8288 408.311C36.2834 408.732 36.6456 409.291 36.9155 409.987C37.1854 410.683 37.3203 411.54 37.3203 412.558V413.268H28.9112V411.819H35.6158C35.6158 411.204 35.4927 410.654 35.2464 410.171C35.005 409.688 34.6593 409.307 34.2095 409.028C33.7644 408.749 33.2389 408.609 32.6328 408.609C31.9652 408.609 31.3875 408.775 30.8999 409.106C30.4169 409.433 30.0452 409.859 29.7848 410.384C29.5244 410.91 29.3942 411.473 29.3942 412.075V413.041C29.3942 413.865 29.5362 414.563 29.8203 415.136C30.1091 415.704 30.5092 416.137 31.0206 416.436C31.532 416.729 32.1262 416.876 32.8033 416.876C33.2436 416.876 33.6413 416.814 33.9964 416.691C34.3563 416.563 34.6664 416.374 34.9268 416.123C35.1873 415.867 35.3885 415.55 35.5305 415.171L37.1499 415.626C36.9794 416.175 36.6929 416.658 36.2905 417.075C35.888 417.487 35.3909 417.809 34.799 418.041C34.2071 418.268 33.5419 418.382 32.8033 418.382ZM43.0803 418.41C42.389 418.41 41.7616 418.28 41.1982 418.019C40.6347 417.754 40.1873 417.373 39.8558 416.876C39.5244 416.374 39.3587 415.768 39.3587 415.058C39.3587 414.433 39.4818 413.926 39.728 413.538C39.9742 413.145 40.3033 412.837 40.7152 412.615C41.1271 412.392 41.5817 412.226 42.0788 412.117C42.5807 412.004 43.085 411.914 43.5916 411.847C44.2545 411.762 44.7919 411.698 45.2038 411.656C45.6205 411.608 45.9235 411.53 46.1129 411.421C46.3071 411.312 46.4041 411.123 46.4041 410.853V410.796C46.4041 410.096 46.2124 409.551 45.8288 409.163C45.45 408.775 44.8748 408.58 44.103 408.58C43.3028 408.58 42.6754 408.756 42.2209 409.106C41.7663 409.456 41.4467 409.83 41.2621 410.228L39.6712 409.66C39.9553 408.997 40.334 408.481 40.8075 408.112C41.2857 407.738 41.8066 407.477 42.37 407.33C42.9382 407.179 43.4969 407.103 44.0462 407.103C44.3965 407.103 44.799 407.146 45.2536 407.231C45.7128 407.311 46.1555 407.48 46.5817 407.735C47.0125 407.991 47.37 408.377 47.6541 408.893C47.9382 409.409 48.0803 410.1 48.0803 410.967V418.154H46.4041V416.677H46.3189C46.2053 416.914 46.0159 417.167 45.7507 417.437C45.4856 417.707 45.1328 417.936 44.6925 418.126C44.2521 418.315 43.7147 418.41 43.0803 418.41ZM43.3359 416.904C43.9988 416.904 44.5575 416.774 45.0121 416.514C45.4714 416.253 45.817 415.917 46.049 415.505C46.2857 415.093 46.4041 414.66 46.4041 414.205V412.671C46.3331 412.757 46.1768 412.835 45.9354 412.906C45.6986 412.972 45.424 413.031 45.1115 413.083C44.8037 413.131 44.5031 413.173 44.2095 413.211C43.9207 413.244 43.6863 413.273 43.5064 413.296C43.0708 413.353 42.6636 413.445 42.2848 413.573C41.9107 413.696 41.6077 413.883 41.3757 414.134C41.1484 414.381 41.0348 414.717 41.0348 415.143C41.0348 415.725 41.2502 416.166 41.6811 416.464C42.1167 416.758 42.6683 416.904 43.3359 416.904ZM51.1396 418.154V407.245H52.7589V408.95H52.9009C53.1282 408.367 53.4951 407.915 54.0018 407.593C54.5084 407.267 55.1168 407.103 55.8271 407.103C56.5468 407.103 57.1457 407.267 57.6239 407.593C58.1069 407.915 58.4833 408.367 58.7532 408.95H58.8668C59.1462 408.386 59.5652 407.939 60.1239 407.607C60.6826 407.271 61.3526 407.103 62.1339 407.103C63.1093 407.103 63.9071 407.409 64.5273 408.019C65.1476 408.625 65.4577 409.57 65.4577 410.853V418.154H63.7816V410.853C63.7816 410.048 63.5614 409.473 63.1211 409.127C62.6808 408.782 62.1623 408.609 61.5657 408.609C60.7987 408.609 60.2044 408.841 59.783 409.305C59.3616 409.764 59.1509 410.347 59.1509 411.052V418.154H57.4464V410.683C57.4464 410.062 57.2451 409.563 56.8427 409.184C56.4402 408.801 55.9218 408.609 55.2873 408.609C54.8517 408.609 54.4445 408.725 54.0657 408.957C53.6916 409.189 53.3886 409.511 53.1566 409.923C52.9293 410.33 52.8157 410.801 52.8157 411.336V418.154H51.1396ZM78.2667 418.353C77.3103 418.353 76.4864 418.178 75.7951 417.828C75.1038 417.477 74.5711 416.997 74.1971 416.386C73.823 415.775 73.636 415.077 73.636 414.291C73.636 413.685 73.7638 413.147 74.0195 412.678C74.2799 412.205 74.6374 411.767 75.092 411.365C75.5513 410.957 76.0792 410.55 76.6758 410.143L78.7781 408.58C79.19 408.311 79.5191 408.022 79.7653 407.714C80.0162 407.406 80.1417 407.004 80.1417 406.507C80.1417 406.137 79.9783 405.78 79.6516 405.434C79.3297 405.088 78.9059 404.916 78.3803 404.916C78.011 404.916 77.6843 405.01 77.4002 405.2C77.1209 405.384 76.9007 405.621 76.7397 405.91C76.5835 406.194 76.5053 406.488 76.5053 406.791C76.5053 407.132 76.5977 407.477 76.7823 407.828C76.9717 408.173 77.2108 408.528 77.4996 408.893C77.7932 409.253 78.0962 409.622 78.4087 410.001L85.0849 418.154H83.0678L77.5565 411.507C77.0451 410.891 76.5811 410.332 76.1644 409.83C75.7478 409.329 75.4163 408.834 75.1701 408.346C74.9239 407.858 74.8008 407.33 74.8008 406.762C74.8008 406.109 74.9452 405.536 75.234 405.044C75.5276 404.546 75.9371 404.16 76.4627 403.886C76.993 403.606 77.6133 403.467 78.3235 403.467C79.0527 403.467 79.68 403.609 80.2056 403.893C80.7312 404.172 81.136 404.544 81.4201 405.008C81.7042 405.467 81.8462 405.967 81.8462 406.507C81.8462 407.203 81.6734 407.806 81.3278 408.318C80.9821 408.829 80.511 409.305 79.9144 409.745L77.0167 411.904C76.3633 412.387 75.9206 412.856 75.6886 413.311C75.4566 413.765 75.3406 414.092 75.3406 414.291C75.3406 414.745 75.4589 415.169 75.6957 415.562C75.9324 415.955 76.2662 416.272 76.6971 416.514C77.128 416.755 77.6322 416.876 78.2099 416.876C78.7591 416.876 79.2942 416.76 79.815 416.528C80.3358 416.291 80.8069 415.95 81.2283 415.505C81.6545 415.06 81.9906 414.525 82.2369 413.9C82.4878 413.275 82.6133 412.572 82.6133 411.791H84.2326C84.2326 412.757 84.1213 413.545 83.8988 414.156C83.6763 414.767 83.4253 415.245 83.146 415.59C82.8666 415.936 82.6417 416.194 82.4712 416.365C82.4144 416.436 82.3623 416.507 82.315 416.578C82.2676 416.649 82.2156 416.72 82.1587 416.791C81.69 417.316 81.0981 417.709 80.3832 417.97C79.6682 418.225 78.9627 418.353 78.2667 418.353ZM93.3892 418.154H91.5426L96.8835 403.609H98.7017L104.043 418.154H102.196L97.8494 405.91H97.7358L93.3892 418.154ZM94.071 412.472H101.514V414.035H94.071V412.472ZM110.2 418.382C109.291 418.382 108.489 418.152 107.793 417.693C107.097 417.229 106.552 416.575 106.159 415.732C105.766 414.885 105.57 413.883 105.57 412.728C105.57 411.582 105.766 410.588 106.159 409.745C106.552 408.902 107.099 408.251 107.8 407.792C108.5 407.333 109.31 407.103 110.229 407.103C110.939 407.103 111.5 407.222 111.912 407.458C112.329 407.69 112.646 407.955 112.864 408.254C113.086 408.547 113.259 408.789 113.382 408.978H113.524V403.609H115.2V418.154H113.581V416.478H113.382C113.259 416.677 113.084 416.928 112.857 417.231C112.629 417.529 112.305 417.797 111.884 418.034C111.462 418.266 110.901 418.382 110.2 418.382ZM110.428 416.876C111.1 416.876 111.668 416.701 112.132 416.35C112.596 415.995 112.949 415.505 113.19 414.88C113.432 414.25 113.553 413.524 113.553 412.7C113.553 411.885 113.434 411.173 113.197 410.562C112.961 409.946 112.61 409.468 112.146 409.127C111.682 408.782 111.109 408.609 110.428 408.609C109.717 408.609 109.125 408.791 108.652 409.156C108.183 409.516 107.83 410.006 107.594 410.626C107.362 411.241 107.246 411.933 107.246 412.7C107.246 413.476 107.364 414.182 107.601 414.816C107.842 415.446 108.197 415.948 108.666 416.322C109.14 416.691 109.727 416.876 110.428 416.876ZM127.423 407.245L123.389 418.154H121.685L117.651 407.245H119.469L122.48 415.938H122.594L125.605 407.245H127.423ZM129.636 418.154V407.245H131.312V418.154H129.636ZM130.488 405.427C130.161 405.427 129.879 405.316 129.643 405.093C129.411 404.871 129.295 404.603 129.295 404.291C129.295 403.978 129.411 403.711 129.643 403.488C129.879 403.266 130.161 403.154 130.488 403.154C130.815 403.154 131.094 403.266 131.326 403.488C131.563 403.711 131.681 403.978 131.681 404.291C131.681 404.603 131.563 404.871 131.326 405.093C131.094 405.316 130.815 405.427 130.488 405.427ZM142.109 409.688L140.603 410.115C140.509 409.864 140.369 409.62 140.184 409.383C140.004 409.142 139.758 408.943 139.446 408.786C139.133 408.63 138.733 408.552 138.245 408.552C137.578 408.552 137.021 408.706 136.576 409.014C136.136 409.317 135.916 409.703 135.916 410.171C135.916 410.588 136.067 410.917 136.37 411.159C136.673 411.4 137.147 411.601 137.791 411.762L139.41 412.16C140.386 412.397 141.112 412.759 141.591 413.247C142.069 413.73 142.308 414.352 142.308 415.115C142.308 415.74 142.128 416.298 141.768 416.791C141.413 417.283 140.916 417.671 140.277 417.955C139.637 418.24 138.894 418.382 138.047 418.382C136.934 418.382 136.013 418.14 135.284 417.657C134.555 417.174 134.093 416.469 133.899 415.541L135.49 415.143C135.641 415.73 135.928 416.17 136.349 416.464C136.775 416.758 137.332 416.904 138.018 416.904C138.799 416.904 139.42 416.739 139.879 416.407C140.343 416.071 140.575 415.669 140.575 415.2C140.575 414.821 140.442 414.504 140.177 414.248C139.912 413.988 139.505 413.794 138.956 413.666L137.137 413.24C136.138 413.003 135.404 412.636 134.936 412.139C134.472 411.637 134.24 411.009 134.24 410.257C134.24 409.641 134.413 409.097 134.758 408.623C135.109 408.15 135.584 407.778 136.186 407.508C136.792 407.238 137.478 407.103 138.245 407.103C139.325 407.103 140.172 407.34 140.788 407.813C141.408 408.287 141.849 408.912 142.109 409.688ZM149.263 418.382C148.278 418.382 147.414 418.147 146.67 417.678C145.932 417.21 145.354 416.554 144.938 415.711C144.526 414.868 144.32 413.883 144.32 412.757C144.32 411.62 144.526 410.628 144.938 409.781C145.354 408.933 145.932 408.275 146.67 407.806C147.414 407.338 148.278 407.103 149.263 407.103C150.248 407.103 151.109 407.338 151.848 407.806C152.591 408.275 153.169 408.933 153.581 409.781C153.998 410.628 154.206 411.62 154.206 412.757C154.206 413.883 153.998 414.868 153.581 415.711C153.169 416.554 152.591 417.21 151.848 417.678C151.109 418.147 150.248 418.382 149.263 418.382ZM149.263 416.876C150.011 416.876 150.626 416.684 151.109 416.301C151.592 415.917 151.95 415.413 152.182 414.788C152.414 414.163 152.53 413.486 152.53 412.757C152.53 412.027 152.414 411.348 152.182 410.718C151.95 410.088 151.592 409.579 151.109 409.191C150.626 408.803 150.011 408.609 149.263 408.609C148.515 408.609 147.899 408.803 147.416 409.191C146.933 409.579 146.576 410.088 146.344 410.718C146.112 411.348 145.996 412.027 145.996 412.757C145.996 413.486 146.112 414.163 146.344 414.788C146.576 415.413 146.933 415.917 147.416 416.301C147.899 416.684 148.515 416.876 149.263 416.876ZM156.765 418.154V407.245H158.384V408.893H158.498C158.696 408.353 159.056 407.915 159.577 407.579C160.098 407.243 160.685 407.075 161.338 407.075C161.462 407.075 161.615 407.077 161.8 407.082C161.985 407.087 162.124 407.094 162.219 407.103V408.808C162.162 408.794 162.032 408.772 161.828 408.744C161.63 408.711 161.419 408.694 161.196 408.694C160.666 408.694 160.193 408.805 159.776 409.028C159.364 409.246 159.037 409.549 158.796 409.937C158.559 410.32 158.441 410.758 158.441 411.251V418.154H156.765Z" fill="#13316B"/>
<path d="M522.477 139.965H489.343H456.209L428.53 164.308" stroke="#636770" stroke-width="2" stroke-dasharray="2 2"/>
<path d="M535.805 136.322C534.68 136.322 533.68 136.13 532.805 135.744C531.935 135.359 531.247 134.822 530.742 134.135C530.237 133.447 529.969 132.653 529.938 131.752H532.875C532.901 132.184 533.044 132.562 533.305 132.885C533.565 133.202 533.911 133.45 534.344 133.627C534.776 133.804 535.26 133.893 535.797 133.893C536.37 133.893 536.878 133.794 537.32 133.596C537.763 133.393 538.109 133.111 538.359 132.752C538.609 132.393 538.732 131.979 538.727 131.51C538.732 131.025 538.607 130.598 538.352 130.229C538.096 129.859 537.727 129.57 537.242 129.361C536.763 129.153 536.185 129.049 535.508 129.049H534.094V126.814H535.508C536.065 126.814 536.552 126.718 536.969 126.525C537.391 126.333 537.721 126.062 537.961 125.713C538.201 125.359 538.318 124.95 538.313 124.486C538.318 124.033 538.216 123.64 538.008 123.307C537.805 122.968 537.516 122.705 537.141 122.518C536.771 122.33 536.336 122.236 535.836 122.236C535.346 122.236 534.893 122.325 534.477 122.502C534.06 122.679 533.724 122.932 533.469 123.26C533.214 123.583 533.078 123.968 533.063 124.416H530.273C530.294 123.52 530.552 122.734 531.047 122.057C531.547 121.374 532.214 120.843 533.047 120.463C533.88 120.077 534.815 119.885 535.852 119.885C536.919 119.885 537.846 120.085 538.633 120.486C539.424 120.882 540.036 121.416 540.469 122.088C540.901 122.76 541.117 123.502 541.117 124.314C541.122 125.215 540.857 125.971 540.32 126.58C539.789 127.189 539.091 127.588 538.227 127.775V127.9C539.352 128.057 540.214 128.473 540.813 129.15C541.417 129.822 541.716 130.658 541.711 131.658C541.711 132.554 541.456 133.356 540.945 134.064C540.44 134.768 539.742 135.32 538.852 135.721C537.966 136.122 536.951 136.322 535.805 136.322ZM550.307 136.408C549.02 136.408 547.916 136.083 546.994 135.432C546.077 134.775 545.372 133.83 544.877 132.596C544.387 131.356 544.143 129.864 544.143 128.119C544.148 126.374 544.395 124.89 544.885 123.666C545.38 122.437 546.085 121.499 547.002 120.854C547.924 120.208 549.025 119.885 550.307 119.885C551.588 119.885 552.689 120.208 553.611 120.854C554.533 121.499 555.239 122.437 555.729 123.666C556.223 124.895 556.471 126.38 556.471 128.119C556.471 129.869 556.223 131.364 555.729 132.604C555.239 133.838 554.533 134.781 553.611 135.432C552.695 136.083 551.593 136.408 550.307 136.408ZM550.307 133.963C551.307 133.963 552.096 133.471 552.674 132.486C553.257 131.497 553.549 130.041 553.549 128.119C553.549 126.848 553.416 125.781 553.15 124.916C552.885 124.051 552.51 123.4 552.025 122.963C551.541 122.52 550.968 122.299 550.307 122.299C549.312 122.299 548.525 122.794 547.947 123.783C547.369 124.768 547.077 126.213 547.072 128.119C547.067 129.395 547.195 130.468 547.455 131.338C547.721 132.208 548.096 132.864 548.58 133.307C549.064 133.744 549.64 133.963 550.307 133.963ZM567.621 133.104V132.26C567.621 131.64 567.751 131.07 568.012 130.549C568.277 130.028 568.663 129.609 569.168 129.291C569.673 128.973 570.285 128.814 571.004 128.814C571.743 128.814 572.363 128.973 572.863 129.291C573.363 129.604 573.741 130.02 573.996 130.541C574.257 131.062 574.387 131.635 574.387 132.26V133.104C574.387 133.723 574.257 134.294 573.996 134.814C573.736 135.335 573.353 135.755 572.848 136.072C572.348 136.39 571.733 136.549 571.004 136.549C570.275 136.549 569.658 136.39 569.152 136.072C568.647 135.755 568.264 135.335 568.004 134.814C567.749 134.294 567.621 133.723 567.621 133.104ZM569.66 132.26V133.104C569.66 133.515 569.759 133.893 569.957 134.236C570.155 134.58 570.504 134.752 571.004 134.752C571.509 134.752 571.855 134.583 572.043 134.244C572.236 133.9 572.332 133.52 572.332 133.104V132.26C572.332 131.843 572.241 131.463 572.059 131.119C571.876 130.77 571.525 130.596 571.004 130.596C570.514 130.596 570.168 130.77 569.965 131.119C569.762 131.463 569.66 131.843 569.66 132.26ZM559.488 123.947V123.104C559.488 122.479 559.621 121.906 559.887 121.385C560.152 120.864 560.538 120.447 561.043 120.135C561.548 119.817 562.16 119.658 562.879 119.658C563.613 119.658 564.23 119.817 564.73 120.135C565.236 120.447 565.616 120.864 565.871 121.385C566.126 121.906 566.254 122.479 566.254 123.104V123.947C566.254 124.572 566.124 125.145 565.863 125.666C565.608 126.182 565.228 126.596 564.723 126.908C564.217 127.221 563.603 127.377 562.879 127.377C562.145 127.377 561.525 127.221 561.02 126.908C560.52 126.596 560.139 126.179 559.879 125.658C559.618 125.137 559.488 124.567 559.488 123.947ZM561.543 123.104V123.947C561.543 124.364 561.639 124.744 561.832 125.088C562.03 125.426 562.379 125.596 562.879 125.596C563.379 125.596 563.723 125.426 563.91 125.088C564.103 124.744 564.199 124.364 564.199 123.947V123.104C564.199 122.687 564.108 122.307 563.926 121.963C563.743 121.614 563.395 121.439 562.879 121.439C562.384 121.439 562.038 121.614 561.84 121.963C561.642 122.312 561.543 122.692 561.543 123.104ZM560.379 136.104L571.379 120.104H573.332L562.332 136.104H560.379Z" fill="#13316B"/>
<path d="M532.163 146.744V161.289H530.402V146.744H532.163ZM547.4 151.289H545.638C545.534 150.782 545.352 150.337 545.091 149.954C544.836 149.57 544.523 149.248 544.154 148.988C543.789 148.723 543.384 148.524 542.939 148.391C542.494 148.259 542.03 148.192 541.547 148.192C540.667 148.192 539.869 148.415 539.154 148.86C538.444 149.305 537.878 149.961 537.456 150.827C537.04 151.694 536.831 152.757 536.831 154.016C536.831 155.276 537.04 156.339 537.456 157.205C537.878 158.072 538.444 158.728 539.154 159.173C539.869 159.618 540.667 159.84 541.547 159.84C542.03 159.84 542.494 159.774 542.939 159.641C543.384 159.509 543.789 159.312 544.154 159.052C544.523 158.787 544.836 158.462 545.091 158.079C545.352 157.691 545.534 157.246 545.638 156.744H547.4C547.267 157.487 547.025 158.152 546.675 158.739C546.325 159.326 545.889 159.826 545.368 160.238C544.847 160.645 544.263 160.955 543.614 161.168C542.97 161.381 542.281 161.488 541.547 161.488C540.307 161.488 539.203 161.185 538.238 160.579C537.272 159.973 536.512 159.111 535.958 157.994C535.404 156.876 535.127 155.55 535.127 154.016C535.127 152.482 535.404 151.156 535.958 150.039C536.512 148.922 537.272 148.06 538.238 147.454C539.203 146.848 540.307 146.545 541.547 146.545C542.281 146.545 542.97 146.651 543.614 146.864C544.263 147.077 544.847 147.39 545.368 147.802C545.889 148.209 546.325 148.706 546.675 149.293C547.025 149.876 547.267 150.541 547.4 151.289ZM562.518 154.016C562.518 155.55 562.241 156.876 561.688 157.994C561.134 159.111 560.374 159.973 559.408 160.579C558.442 161.185 557.339 161.488 556.098 161.488C554.857 161.488 553.754 161.185 552.788 160.579C551.822 159.973 551.063 159.111 550.509 157.994C549.955 156.876 549.678 155.55 549.678 154.016C549.678 152.482 549.955 151.156 550.509 150.039C551.063 148.922 551.822 148.06 552.788 147.454C553.754 146.848 554.857 146.545 556.098 146.545C557.339 146.545 558.442 146.848 559.408 147.454C560.374 148.06 561.134 148.922 561.688 150.039C562.241 151.156 562.518 152.482 562.518 154.016ZM560.814 154.016C560.814 152.757 560.603 151.694 560.182 150.827C559.765 149.961 559.199 149.305 558.484 148.86C557.774 148.415 556.979 148.192 556.098 148.192C555.217 148.192 554.42 148.415 553.705 148.86C552.994 149.305 552.429 149.961 552.007 150.827C551.59 151.694 551.382 152.757 551.382 154.016C551.382 155.276 551.59 156.339 552.007 157.205C552.429 158.072 552.994 158.728 553.705 159.173C554.42 159.618 555.217 159.84 556.098 159.84C556.979 159.84 557.774 159.618 558.484 159.173C559.199 158.728 559.765 158.072 560.182 157.205C560.603 156.339 560.814 155.276 560.814 154.016ZM570.31 148.306V146.744H581.219V148.306H576.645V161.289H574.884V148.306H570.31ZM586.56 161.516C585.575 161.516 584.711 161.282 583.967 160.813C583.229 160.344 582.651 159.689 582.234 158.846C581.822 158.003 581.616 157.018 581.616 155.891C581.616 154.755 581.822 153.763 582.234 152.915C582.651 152.068 583.229 151.41 583.967 150.941C584.711 150.472 585.575 150.238 586.56 150.238C587.545 150.238 588.406 150.472 589.145 150.941C589.888 151.41 590.466 152.068 590.878 152.915C591.295 153.763 591.503 154.755 591.503 155.891C591.503 157.018 591.295 158.003 590.878 158.846C590.466 159.689 589.888 160.344 589.145 160.813C588.406 161.282 587.545 161.516 586.56 161.516ZM586.56 160.011C587.308 160.011 587.923 159.819 588.406 159.435C588.889 159.052 589.247 158.548 589.479 157.923C589.711 157.298 589.827 156.621 589.827 155.891C589.827 155.162 589.711 154.483 589.479 153.853C589.247 153.223 588.889 152.714 588.406 152.326C587.923 151.938 587.308 151.744 586.56 151.744C585.812 151.744 585.196 151.938 584.713 152.326C584.23 152.714 583.873 153.223 583.641 153.853C583.409 154.483 583.293 155.162 583.293 155.891C583.293 156.621 583.409 157.298 583.641 157.923C583.873 158.548 584.23 159.052 584.713 159.435C585.196 159.819 585.812 160.011 586.56 160.011ZM595.624 157.312L595.596 155.238H595.936L600.709 150.38H602.783L597.698 155.522H597.556L595.624 157.312ZM594.061 161.289V146.744H595.738V161.289H594.061ZM600.993 161.289L596.732 155.891L597.925 154.727L603.124 161.289H600.993ZM609.065 161.516C608.014 161.516 607.107 161.284 606.345 160.82C605.587 160.352 605.002 159.698 604.591 158.86C604.183 158.017 603.98 157.037 603.98 155.92C603.98 154.802 604.183 153.817 604.591 152.965C605.002 152.108 605.575 151.441 606.309 150.962C607.048 150.479 607.91 150.238 608.895 150.238C609.463 150.238 610.024 150.333 610.578 150.522C611.132 150.711 611.636 151.019 612.091 151.445C612.545 151.867 612.907 152.425 613.177 153.121C613.447 153.817 613.582 154.674 613.582 155.692V156.403H605.173V154.954H611.877C611.877 154.338 611.754 153.789 611.508 153.306C611.267 152.823 610.921 152.442 610.471 152.163C610.026 151.883 609.501 151.744 608.895 151.744C608.227 151.744 607.649 151.909 607.162 152.241C606.679 152.567 606.307 152.994 606.047 153.519C605.786 154.045 605.656 154.608 605.656 155.21V156.175C605.656 156.999 605.798 157.698 606.082 158.271C606.371 158.839 606.771 159.272 607.282 159.57C607.794 159.864 608.388 160.011 609.065 160.011C609.505 160.011 609.903 159.949 610.258 159.826C610.618 159.698 610.928 159.509 611.189 159.258C611.449 159.002 611.65 158.685 611.792 158.306L613.412 158.761C613.241 159.31 612.955 159.793 612.552 160.21C612.15 160.621 611.653 160.943 611.061 161.175C610.469 161.403 609.804 161.516 609.065 161.516ZM617.808 154.727V161.289H616.132V150.38H617.751V152.085H617.893C618.149 151.531 618.537 151.085 619.058 150.749C619.579 150.408 620.251 150.238 621.075 150.238C621.814 150.238 622.46 150.389 623.014 150.692C623.568 150.991 623.999 151.445 624.306 152.056C624.614 152.662 624.768 153.429 624.768 154.357V161.289H623.092V154.471C623.092 153.614 622.869 152.946 622.424 152.468C621.979 151.985 621.368 151.744 620.592 151.744C620.057 151.744 619.579 151.86 619.157 152.092C618.741 152.324 618.412 152.662 618.17 153.107C617.929 153.552 617.808 154.092 617.808 154.727ZM641.638 150.38C641.553 149.66 641.207 149.102 640.601 148.704C639.995 148.306 639.251 148.107 638.371 148.107C637.727 148.107 637.163 148.211 636.68 148.42C636.202 148.628 635.828 148.915 635.558 149.279C635.293 149.644 635.161 150.058 635.161 150.522C635.161 150.91 635.253 151.244 635.438 151.523C635.627 151.798 635.868 152.028 636.162 152.212C636.455 152.392 636.763 152.541 637.085 152.66C637.407 152.773 637.703 152.866 637.973 152.937L639.45 153.335C639.829 153.434 640.25 153.571 640.714 153.746C641.183 153.922 641.631 154.161 642.057 154.464C642.488 154.762 642.843 155.146 643.122 155.614C643.402 156.083 643.541 156.658 643.541 157.34C643.541 158.126 643.335 158.836 642.923 159.471C642.516 160.105 641.92 160.61 641.134 160.984C640.352 161.358 639.403 161.545 638.286 161.545C637.244 161.545 636.342 161.377 635.58 161.04C634.822 160.704 634.225 160.236 633.79 159.634C633.359 159.033 633.115 158.335 633.058 157.539H634.876C634.924 158.088 635.108 158.543 635.43 158.903C635.757 159.258 636.169 159.523 636.666 159.698C637.168 159.869 637.708 159.954 638.286 159.954C638.958 159.954 639.562 159.845 640.097 159.627C640.632 159.405 641.055 159.097 641.368 158.704C641.68 158.306 641.837 157.842 641.837 157.312C641.837 156.829 641.702 156.436 641.432 156.133C641.162 155.83 640.807 155.584 640.366 155.394C639.926 155.205 639.45 155.039 638.939 154.897L637.149 154.386C636.013 154.059 635.113 153.593 634.45 152.987C633.787 152.38 633.456 151.587 633.456 150.607C633.456 149.793 633.676 149.083 634.116 148.477C634.562 147.866 635.158 147.392 635.906 147.056C636.659 146.715 637.5 146.545 638.428 146.545C639.365 146.545 640.198 146.713 640.928 147.049C641.657 147.38 642.234 147.835 642.661 148.413C643.091 148.99 643.319 149.646 643.342 150.38H641.638ZM649.42 161.545C648.729 161.545 648.101 161.415 647.538 161.154C646.975 160.889 646.527 160.508 646.196 160.011C645.864 159.509 645.699 158.903 645.699 158.192C645.699 157.567 645.822 157.061 646.068 156.673C646.314 156.28 646.643 155.972 647.055 155.749C647.467 155.527 647.922 155.361 648.419 155.252C648.921 155.138 649.425 155.049 649.931 154.982C650.594 154.897 651.132 154.833 651.544 154.79C651.96 154.743 652.263 154.665 652.453 154.556C652.647 154.447 652.744 154.258 652.744 153.988V153.931C652.744 153.23 652.552 152.686 652.169 152.298C651.79 151.909 651.215 151.715 650.443 151.715C649.643 151.715 649.015 151.89 648.561 152.241C648.106 152.591 647.787 152.965 647.602 153.363L646.011 152.795C646.295 152.132 646.674 151.616 647.147 151.246C647.626 150.872 648.146 150.612 648.71 150.465C649.278 150.314 649.837 150.238 650.386 150.238C650.736 150.238 651.139 150.281 651.593 150.366C652.053 150.446 652.495 150.614 652.922 150.87C653.352 151.126 653.71 151.512 653.994 152.028C654.278 152.544 654.42 153.235 654.42 154.102V161.289H652.744V159.812H652.659C652.545 160.049 652.356 160.302 652.091 160.572C651.825 160.842 651.473 161.071 651.032 161.261C650.592 161.45 650.055 161.545 649.42 161.545ZM649.676 160.039C650.339 160.039 650.897 159.909 651.352 159.648C651.811 159.388 652.157 159.052 652.389 158.64C652.626 158.228 652.744 157.795 652.744 157.34V155.806C652.673 155.891 652.517 155.969 652.275 156.04C652.038 156.107 651.764 156.166 651.451 156.218C651.144 156.265 650.843 156.308 650.549 156.346C650.261 156.379 650.026 156.407 649.846 156.431C649.411 156.488 649.003 156.58 648.625 156.708C648.251 156.831 647.948 157.018 647.716 157.269C647.488 157.515 647.375 157.852 647.375 158.278C647.375 158.86 647.59 159.3 648.021 159.599C648.457 159.892 649.008 160.039 649.676 160.039ZM659.156 146.744V161.289H657.479V146.744H659.156ZM666.799 161.516C665.748 161.516 664.842 161.284 664.079 160.82C663.322 160.352 662.737 159.698 662.325 158.86C661.918 158.017 661.714 157.037 661.714 155.92C661.714 154.802 661.918 153.817 662.325 152.965C662.737 152.108 663.31 151.441 664.044 150.962C664.782 150.479 665.644 150.238 666.629 150.238C667.197 150.238 667.758 150.333 668.312 150.522C668.866 150.711 669.37 151.019 669.825 151.445C670.279 151.867 670.642 152.425 670.912 153.121C671.181 153.817 671.316 154.674 671.316 155.692V156.403H662.907V154.954H669.612C669.612 154.338 669.489 153.789 669.243 153.306C669.001 152.823 668.655 152.442 668.206 152.163C667.761 151.883 667.235 151.744 666.629 151.744C665.961 151.744 665.384 151.909 664.896 152.241C664.413 152.567 664.041 152.994 663.781 153.519C663.52 154.045 663.39 154.608 663.39 155.21V156.175C663.39 156.999 663.532 157.698 663.816 158.271C664.105 158.839 664.505 159.272 665.017 159.57C665.528 159.864 666.122 160.011 666.799 160.011C667.24 160.011 667.637 159.949 667.993 159.826C668.352 159.698 668.663 159.509 668.923 159.258C669.183 159.002 669.385 158.685 669.527 158.306L671.146 158.761C670.975 159.31 670.689 159.793 670.287 160.21C669.884 160.621 669.387 160.943 668.795 161.175C668.203 161.403 667.538 161.516 666.799 161.516ZM681.593 152.823L680.088 153.249C679.993 152.998 679.853 152.754 679.669 152.518C679.489 152.276 679.243 152.077 678.93 151.921C678.618 151.765 678.217 151.687 677.73 151.687C677.062 151.687 676.506 151.841 676.061 152.148C675.62 152.451 675.4 152.837 675.4 153.306C675.4 153.723 675.552 154.052 675.855 154.293C676.158 154.535 676.631 154.736 677.275 154.897L678.895 155.295C679.87 155.531 680.597 155.894 681.075 156.381C681.553 156.864 681.792 157.487 681.792 158.249C681.792 158.874 681.612 159.433 681.252 159.925C680.897 160.418 680.4 160.806 679.761 161.09C679.122 161.374 678.378 161.516 677.531 161.516C676.418 161.516 675.497 161.275 674.768 160.792C674.039 160.309 673.577 159.603 673.383 158.675L674.974 158.278C675.126 158.865 675.412 159.305 675.833 159.599C676.26 159.892 676.816 160.039 677.502 160.039C678.284 160.039 678.904 159.873 679.363 159.542C679.827 159.206 680.059 158.803 680.059 158.335C680.059 157.956 679.927 157.638 679.662 157.383C679.396 157.122 678.989 156.928 678.44 156.8L676.622 156.374C675.623 156.138 674.889 155.771 674.42 155.273C673.956 154.772 673.724 154.144 673.724 153.391C673.724 152.776 673.897 152.231 674.243 151.758C674.593 151.284 675.069 150.913 675.67 150.643C676.276 150.373 676.963 150.238 677.73 150.238C678.809 150.238 679.657 150.475 680.272 150.948C680.893 151.422 681.333 152.047 681.593 152.823Z" fill="#13316B"/>
<path d="M519.328 391.16H458.737L428.59 368.02" stroke="#636770" stroke-width="2" stroke-dasharray="2 2"/>
<path d="M553.781 392.965V390.871L559.336 385.426C559.867 384.889 560.31 384.413 560.664 383.996C561.018 383.579 561.284 383.176 561.461 382.785C561.638 382.395 561.727 381.978 561.727 381.535C561.727 381.03 561.612 380.598 561.383 380.238C561.154 379.874 560.839 379.592 560.438 379.395C560.036 379.197 559.581 379.098 559.07 379.098C558.544 379.098 558.083 379.207 557.688 379.426C557.292 379.639 556.984 379.944 556.766 380.34C556.552 380.736 556.445 381.207 556.445 381.754H553.688C553.688 380.738 553.919 379.855 554.383 379.105C554.846 378.355 555.484 377.775 556.297 377.363C557.115 376.952 558.052 376.746 559.109 376.746C560.182 376.746 561.125 376.947 561.938 377.348C562.75 377.749 563.38 378.298 563.828 378.996C564.281 379.694 564.508 380.491 564.508 381.387C564.508 381.986 564.393 382.574 564.164 383.152C563.935 383.73 563.531 384.371 562.953 385.074C562.38 385.777 561.576 386.629 560.539 387.629L557.781 390.434V390.543H564.75V392.965H553.781ZM573.008 393.184C571.966 393.184 571.034 392.988 570.211 392.598C569.388 392.202 568.734 391.66 568.25 390.973C567.771 390.285 567.516 389.499 567.484 388.613H570.297C570.349 389.27 570.633 389.806 571.148 390.223C571.664 390.634 572.284 390.84 573.008 390.84C573.576 390.84 574.081 390.71 574.523 390.449C574.966 390.189 575.315 389.827 575.57 389.363C575.826 388.9 575.951 388.371 575.945 387.777C575.951 387.173 575.823 386.637 575.562 386.168C575.302 385.699 574.945 385.332 574.492 385.066C574.039 384.796 573.518 384.66 572.93 384.66C572.451 384.655 571.979 384.743 571.516 384.926C571.052 385.108 570.685 385.348 570.414 385.645L567.797 385.215L568.633 376.965H577.914V379.387H571.031L570.57 383.629H570.664C570.961 383.28 571.38 382.991 571.922 382.762C572.464 382.527 573.057 382.41 573.703 382.41C574.672 382.41 575.536 382.639 576.297 383.098C577.057 383.551 577.656 384.176 578.094 384.973C578.531 385.77 578.75 386.681 578.75 387.707C578.75 388.764 578.505 389.707 578.016 390.535C577.531 391.358 576.857 392.007 575.992 392.48C575.133 392.949 574.138 393.184 573.008 393.184ZM589.922 389.965V389.121C589.922 388.501 590.052 387.931 590.313 387.41C590.578 386.889 590.964 386.47 591.469 386.152C591.974 385.835 592.586 385.676 593.305 385.676C594.044 385.676 594.664 385.835 595.164 386.152C595.664 386.465 596.042 386.882 596.297 387.402C596.557 387.923 596.688 388.496 596.688 389.121V389.965C596.688 390.585 596.557 391.155 596.297 391.676C596.036 392.197 595.654 392.616 595.148 392.934C594.648 393.251 594.034 393.41 593.305 393.41C592.576 393.41 591.958 393.251 591.453 392.934C590.948 392.616 590.565 392.197 590.305 391.676C590.049 391.155 589.922 390.585 589.922 389.965ZM591.961 389.121V389.965C591.961 390.376 592.06 390.754 592.258 391.098C592.456 391.441 592.805 391.613 593.305 391.613C593.81 391.613 594.156 391.444 594.344 391.105C594.536 390.762 594.633 390.382 594.633 389.965V389.121C594.633 388.704 594.542 388.324 594.359 387.98C594.177 387.632 593.826 387.457 593.305 387.457C592.815 387.457 592.469 387.632 592.266 387.98C592.063 388.324 591.961 388.704 591.961 389.121ZM581.789 380.809V379.965C581.789 379.34 581.922 378.767 582.188 378.246C582.453 377.725 582.839 377.309 583.344 376.996C583.849 376.678 584.461 376.52 585.18 376.52C585.914 376.52 586.531 376.678 587.031 376.996C587.536 377.309 587.917 377.725 588.172 378.246C588.427 378.767 588.555 379.34 588.555 379.965V380.809C588.555 381.434 588.424 382.007 588.164 382.527C587.909 383.043 587.529 383.457 587.023 383.77C586.518 384.082 585.904 384.238 585.18 384.238C584.445 384.238 583.826 384.082 583.32 383.77C582.82 383.457 582.44 383.04 582.18 382.52C581.919 381.999 581.789 381.428 581.789 380.809ZM583.844 379.965V380.809C583.844 381.225 583.94 381.605 584.133 381.949C584.331 382.288 584.68 382.457 585.18 382.457C585.68 382.457 586.023 382.288 586.211 381.949C586.404 381.605 586.5 381.225 586.5 380.809V379.965C586.5 379.548 586.409 379.168 586.227 378.824C586.044 378.475 585.695 378.301 585.18 378.301C584.685 378.301 584.339 378.475 584.141 378.824C583.943 379.173 583.844 379.553 583.844 379.965ZM582.68 392.965L593.68 376.965H595.633L584.633 392.965H582.68Z" fill="#13316B"/>
<path d="M554.121 418.15V403.605H559.036C560.172 403.605 561.105 403.799 561.834 404.187C562.563 404.571 563.103 405.099 563.453 405.771C563.804 406.443 563.979 407.208 563.979 408.065C563.979 408.922 563.804 409.682 563.453 410.345C563.103 411.008 562.565 411.529 561.841 411.907C561.116 412.282 560.191 412.469 559.064 412.469H555.087V410.878H559.007C559.784 410.878 560.409 410.764 560.882 410.537C561.36 410.309 561.706 409.988 561.919 409.571C562.137 409.149 562.246 408.648 562.246 408.065C562.246 407.483 562.137 406.974 561.919 406.538C561.701 406.103 561.353 405.766 560.875 405.53C560.397 405.288 559.765 405.167 558.979 405.167H555.882V418.15H554.121ZM560.967 411.616L564.547 418.15H562.501L558.979 411.616H560.967ZM571.143 418.378C570.092 418.378 569.185 418.146 568.423 417.682C567.665 417.213 567.081 416.559 566.669 415.721C566.261 414.879 566.058 413.898 566.058 412.781C566.058 411.664 566.261 410.679 566.669 409.827C567.081 408.97 567.654 408.302 568.387 407.824C569.126 407.341 569.988 407.099 570.973 407.099C571.541 407.099 572.102 407.194 572.656 407.383C573.21 407.573 573.714 407.881 574.169 408.307C574.623 408.728 574.985 409.287 575.255 409.983C575.525 410.679 575.66 411.536 575.66 412.554V413.264H567.251V411.815H573.956C573.956 411.2 573.833 410.65 573.586 410.167C573.345 409.684 572.999 409.303 572.549 409.024C572.104 408.745 571.579 408.605 570.973 408.605C570.305 408.605 569.727 408.771 569.24 409.102C568.757 409.429 568.385 409.855 568.125 410.381C567.864 410.906 567.734 411.47 567.734 412.071V413.037C567.734 413.861 567.876 414.559 568.16 415.132C568.449 415.7 568.849 416.133 569.36 416.432C569.872 416.725 570.466 416.872 571.143 416.872C571.583 416.872 571.981 416.81 572.336 416.687C572.696 416.559 573.006 416.37 573.267 416.119C573.527 415.863 573.728 415.546 573.87 415.167L575.49 415.622C575.319 416.171 575.033 416.654 574.63 417.071C574.228 417.483 573.731 417.805 573.139 418.037C572.547 418.264 571.882 418.378 571.143 418.378ZM585.937 409.684L584.431 410.111C584.337 409.86 584.197 409.616 584.012 409.379C583.833 409.138 583.586 408.939 583.274 408.782C582.961 408.626 582.561 408.548 582.074 408.548C581.406 408.548 580.85 408.702 580.404 409.01C579.964 409.313 579.744 409.699 579.744 410.167C579.744 410.584 579.895 410.913 580.199 411.155C580.502 411.396 580.975 411.597 581.619 411.758L583.238 412.156C584.214 412.393 584.94 412.755 585.419 413.243C585.897 413.726 586.136 414.348 586.136 415.111C586.136 415.736 585.956 416.294 585.596 416.787C585.241 417.279 584.744 417.667 584.105 417.952C583.466 418.236 582.722 418.378 581.875 418.378C580.762 418.378 579.841 418.136 579.112 417.653C578.383 417.17 577.921 416.465 577.727 415.537L579.318 415.139C579.469 415.726 579.756 416.166 580.177 416.46C580.603 416.754 581.16 416.9 581.846 416.9C582.627 416.9 583.248 416.735 583.707 416.403C584.171 416.067 584.403 415.665 584.403 415.196C584.403 414.817 584.27 414.5 584.005 414.244C583.74 413.984 583.333 413.79 582.784 413.662L580.966 413.236C579.967 412.999 579.233 412.632 578.764 412.135C578.3 411.633 578.068 411.006 578.068 410.253C578.068 409.637 578.241 409.093 578.586 408.619C578.937 408.146 579.413 407.774 580.014 407.504C580.62 407.234 581.306 407.099 582.074 407.099C583.153 407.099 584.001 407.336 584.616 407.809C585.236 408.283 585.677 408.908 585.937 409.684ZM593.233 418.378C592.182 418.378 591.275 418.146 590.513 417.682C589.755 417.213 589.17 416.559 588.759 415.721C588.351 414.879 588.148 413.898 588.148 412.781C588.148 411.664 588.351 410.679 588.759 409.827C589.17 408.97 589.743 408.302 590.477 407.824C591.216 407.341 592.078 407.099 593.062 407.099C593.631 407.099 594.192 407.194 594.746 407.383C595.3 407.573 595.804 407.881 596.259 408.307C596.713 408.728 597.075 409.287 597.345 409.983C597.615 410.679 597.75 411.536 597.75 412.554V413.264H589.341V411.815H596.045C596.045 411.2 595.922 410.65 595.676 410.167C595.435 409.684 595.089 409.303 594.639 409.024C594.194 408.745 593.669 408.605 593.062 408.605C592.395 408.605 591.817 408.771 591.33 409.102C590.847 409.429 590.475 409.855 590.214 410.381C589.954 410.906 589.824 411.47 589.824 412.071V413.037C589.824 413.861 589.966 414.559 590.25 415.132C590.539 415.7 590.939 416.133 591.45 416.432C591.962 416.725 592.556 416.872 593.233 416.872C593.673 416.872 594.071 416.81 594.426 416.687C594.786 416.559 595.096 416.37 595.357 416.119C595.617 415.863 595.818 415.546 595.96 415.167L597.58 415.622C597.409 416.171 597.123 416.654 596.72 417.071C596.318 417.483 595.821 417.805 595.229 418.037C594.637 418.264 593.972 418.378 593.233 418.378ZM600.3 418.15V407.241H601.919V408.889H602.033C602.232 408.349 602.591 407.911 603.112 407.575C603.633 407.239 604.22 407.071 604.874 407.071C604.997 407.071 605.151 407.073 605.335 407.078C605.52 407.083 605.66 407.09 605.754 407.099V408.804C605.697 408.79 605.567 408.768 605.364 408.74C605.165 408.707 604.954 408.69 604.732 408.69C604.201 408.69 603.728 408.801 603.311 409.024C602.899 409.242 602.572 409.545 602.331 409.933C602.094 410.317 601.976 410.755 601.976 411.247V418.15H600.3ZM616.994 407.241L612.96 418.15H611.255L607.221 407.241H609.039L612.05 415.934H612.164L615.175 407.241H616.994ZM623.389 418.378C622.338 418.378 621.431 418.146 620.669 417.682C619.911 417.213 619.327 416.559 618.915 415.721C618.508 414.879 618.304 413.898 618.304 412.781C618.304 411.664 618.508 410.679 618.915 409.827C619.327 408.97 619.9 408.302 620.634 407.824C621.372 407.341 622.234 407.099 623.219 407.099C623.787 407.099 624.348 407.194 624.902 407.383C625.456 407.573 625.96 407.881 626.415 408.307C626.869 408.728 627.232 409.287 627.501 409.983C627.771 410.679 627.906 411.536 627.906 412.554V413.264H619.497V411.815H626.202C626.202 411.2 626.079 410.65 625.832 410.167C625.591 409.684 625.245 409.303 624.795 409.024C624.35 408.745 623.825 408.605 623.219 408.605C622.551 408.605 621.973 408.771 621.486 409.102C621.003 409.429 620.631 409.855 620.371 410.381C620.11 410.906 619.98 411.47 619.98 412.071V413.037C619.98 413.861 620.122 414.559 620.406 415.132C620.695 415.7 621.095 416.133 621.607 416.432C622.118 416.725 622.712 416.872 623.389 416.872C623.83 416.872 624.227 416.81 624.582 416.687C624.942 416.559 625.252 416.37 625.513 416.119C625.773 415.863 625.974 415.546 626.116 415.167L627.736 415.622C627.565 416.171 627.279 416.654 626.876 417.071C626.474 417.483 625.977 417.805 625.385 418.037C624.793 418.264 624.128 418.378 623.389 418.378ZM636.308 418.15V403.605H645.03V405.167H638.07V410.082H644.376V411.645H638.07V418.15H636.308ZM654.011 413.69V407.241H655.687V418.15H654.011V416.304H653.897C653.641 416.858 653.244 417.329 652.704 417.717C652.164 418.101 651.482 418.292 650.658 418.292C649.977 418.292 649.371 418.143 648.84 417.845C648.31 417.542 647.893 417.087 647.59 416.481C647.287 415.871 647.136 415.101 647.136 414.173V407.241H648.812V414.059C648.812 414.855 649.034 415.489 649.479 415.963C649.929 416.436 650.502 416.673 651.198 416.673C651.615 416.673 652.039 416.567 652.469 416.354C652.905 416.14 653.27 415.814 653.563 415.373C653.862 414.933 654.011 414.372 654.011 413.69ZM660.433 411.588V418.15H658.757V407.241H660.376V408.946H660.518C660.774 408.392 661.162 407.947 661.683 407.611C662.204 407.27 662.876 407.099 663.7 407.099C664.439 407.099 665.085 407.251 665.639 407.554C666.193 407.852 666.624 408.307 666.931 408.917C667.239 409.523 667.393 410.291 667.393 411.219V418.15H665.717V411.332C665.717 410.475 665.494 409.808 665.049 409.329C664.604 408.846 663.993 408.605 663.217 408.605C662.682 408.605 662.204 408.721 661.782 408.953C661.366 409.185 661.037 409.523 660.795 409.969C660.554 410.414 660.433 410.953 660.433 411.588ZM674.575 418.378C673.666 418.378 672.864 418.148 672.168 417.689C671.472 417.225 670.927 416.571 670.534 415.729C670.141 414.881 669.945 413.88 669.945 412.724C669.945 411.578 670.141 410.584 670.534 409.741C670.927 408.898 671.474 408.247 672.175 407.788C672.875 407.329 673.685 407.099 674.604 407.099C675.314 407.099 675.875 407.218 676.287 407.454C676.704 407.686 677.021 407.952 677.239 408.25C677.461 408.543 677.634 408.785 677.757 408.974H677.899V403.605H679.575V418.15H677.956V416.474H677.757C677.634 416.673 677.459 416.924 677.232 417.227C677.004 417.525 676.68 417.793 676.259 418.03C675.837 418.262 675.276 418.378 674.575 418.378ZM674.803 416.872C675.475 416.872 676.043 416.697 676.507 416.346C676.971 415.991 677.324 415.501 677.565 414.876C677.807 414.247 677.928 413.52 677.928 412.696C677.928 411.881 677.809 411.169 677.572 410.558C677.336 409.943 676.985 409.464 676.521 409.123C676.057 408.778 675.484 408.605 674.803 408.605C674.092 408.605 673.5 408.787 673.027 409.152C672.558 409.512 672.205 410.002 671.969 410.622C671.737 411.238 671.621 411.929 671.621 412.696C671.621 413.472 671.739 414.178 671.976 414.812C672.217 415.442 672.572 415.944 673.041 416.318C673.515 416.687 674.102 416.872 674.803 416.872Z" fill="#13316B"/>
<path d="M277.145 35H268.273V8.81818H277.324C279.924 8.81818 282.157 9.34233 284.023 10.3906C285.898 11.4304 287.339 12.9261 288.344 14.8778C289.35 16.8295 289.853 19.1648 289.853 21.8835C289.853 24.6108 289.346 26.9545 288.331 28.9148C287.326 30.875 285.873 32.3793 283.972 33.4276C282.08 34.4759 279.804 35 277.145 35ZM273.016 30.8963H276.915C278.739 30.8963 280.26 30.5639 281.479 29.8991C282.698 29.2259 283.614 28.2244 284.228 26.8949C284.841 25.5568 285.148 23.8864 285.148 21.8835C285.148 19.8807 284.841 18.2187 284.228 16.8977C283.614 15.5682 282.706 14.5753 281.505 13.919C280.312 13.2543 278.829 12.9219 277.056 12.9219H273.016V30.8963ZM294.155 35V15.3636H298.782V35H294.155ZM296.481 12.5767C295.748 12.5767 295.118 12.3338 294.589 11.848C294.061 11.3537 293.797 10.7614 293.797 10.071C293.797 9.37216 294.061 8.77983 294.589 8.29403C295.118 7.79971 295.748 7.55256 296.481 7.55256C297.223 7.55256 297.853 7.79971 298.373 8.29403C298.902 8.77983 299.166 9.37216 299.166 10.071C299.166 10.7614 298.902 11.3537 298.373 11.848C297.853 12.3338 297.223 12.5767 296.481 12.5767ZM319.061 20.554L314.842 21.0142C314.723 20.5881 314.514 20.1875 314.216 19.8125C313.926 19.4375 313.534 19.1349 313.04 18.9048C312.546 18.6747 311.94 18.5597 311.225 18.5597C310.261 18.5597 309.452 18.7685 308.796 19.1861C308.148 19.6037 307.828 20.1449 307.837 20.8097C307.828 21.3807 308.037 21.8452 308.463 22.2031C308.898 22.5611 309.614 22.8551 310.611 23.0852L313.96 23.8011C315.818 24.2017 317.199 24.8366 318.102 25.706C319.014 26.5753 319.475 27.7131 319.483 29.1193C319.475 30.3551 319.112 31.446 318.396 32.392C317.689 33.3295 316.705 34.0625 315.443 34.5909C314.182 35.1193 312.733 35.3835 311.097 35.3835C308.693 35.3835 306.759 34.8807 305.293 33.875C303.827 32.8608 302.953 31.4503 302.672 29.6435L307.185 29.2088C307.389 30.0952 307.824 30.7642 308.489 31.2159C309.153 31.6676 310.019 31.8935 311.084 31.8935C312.183 31.8935 313.065 31.6676 313.73 31.2159C314.403 30.7642 314.74 30.206 314.74 29.5412C314.74 28.9787 314.523 28.5142 314.088 28.1477C313.662 27.7812 312.997 27.5 312.094 27.304L308.744 26.6009C306.861 26.2088 305.467 25.5483 304.564 24.6193C303.661 23.6818 303.213 22.4972 303.222 21.0653C303.213 19.8551 303.541 18.8068 304.206 17.9205C304.879 17.0256 305.813 16.3352 307.006 15.8494C308.207 15.3551 309.592 15.108 311.161 15.108C313.462 15.108 315.273 15.598 316.594 16.5781C317.923 17.5582 318.746 18.8835 319.061 20.554ZM333.104 15.3636V18.9432H321.816V15.3636H333.104ZM324.603 10.6591H329.231V29.0938C329.231 29.7159 329.325 30.1932 329.512 30.5256C329.708 30.8494 329.964 31.071 330.279 31.1903C330.595 31.3097 330.944 31.3693 331.327 31.3693C331.617 31.3693 331.881 31.348 332.12 31.3054C332.367 31.2628 332.555 31.2244 332.683 31.1903L333.462 34.8082C333.215 34.8935 332.862 34.9872 332.401 35.0895C331.95 35.1918 331.396 35.2514 330.739 35.2685C329.58 35.3026 328.536 35.1278 327.607 34.7443C326.678 34.3523 325.941 33.7472 325.396 32.929C324.859 32.1108 324.595 31.0881 324.603 29.8608V10.6591ZM336.975 35V15.3636H341.462V18.6364H341.667C342.025 17.5028 342.638 16.6293 343.508 16.0156C344.385 15.3935 345.387 15.0824 346.512 15.0824C346.767 15.0824 347.053 15.0952 347.368 15.1207C347.692 15.1378 347.961 15.1676 348.174 15.2102V19.4673C347.978 19.3991 347.667 19.3395 347.24 19.2884C346.823 19.2287 346.418 19.1989 346.026 19.1989C345.182 19.1989 344.424 19.3821 343.75 19.7486C343.086 20.1065 342.562 20.6051 342.178 21.2443C341.794 21.8835 341.603 22.6207 341.603 23.456V35H336.975ZM351.248 35V15.3636H355.876V35H351.248ZM353.575 12.5767C352.842 12.5767 352.211 12.3338 351.683 11.848C351.155 11.3537 350.89 10.7614 350.89 10.071C350.89 9.37216 351.155 8.77983 351.683 8.29403C352.211 7.79971 352.842 7.55256 353.575 7.55256C354.316 7.55256 354.947 7.79971 355.467 8.29403C355.995 8.77983 356.26 9.37216 356.26 10.071C356.26 10.7614 355.995 11.3537 355.467 11.848C354.947 12.3338 354.316 12.5767 353.575 12.5767ZM360.84 35V8.81818H365.467V18.6108H365.659C365.898 18.1335 366.234 17.6264 366.669 17.0895C367.104 16.544 367.692 16.0795 368.433 15.696C369.175 15.304 370.121 15.108 371.271 15.108C372.788 15.108 374.156 15.4957 375.375 16.2713C376.602 17.0384 377.574 18.1761 378.29 19.6847C379.014 21.1847 379.377 23.0256 379.377 25.2074C379.377 27.3636 379.023 29.196 378.315 30.7045C377.608 32.2131 376.645 33.3636 375.426 34.1562C374.207 34.9489 372.827 35.3452 371.284 35.3452C370.159 35.3452 369.226 35.1577 368.484 34.7827C367.743 34.4077 367.146 33.956 366.695 33.4276C366.252 32.8906 365.906 32.3835 365.659 31.9062H365.391V35H360.84ZM365.378 25.1818C365.378 26.4517 365.557 27.5639 365.915 28.5185C366.281 29.473 366.805 30.2187 367.487 30.7557C368.178 31.2841 369.013 31.5483 369.993 31.5483C371.016 31.5483 371.872 31.2756 372.563 30.7301C373.253 30.1761 373.773 29.4219 374.122 28.4673C374.48 27.5043 374.659 26.4091 374.659 25.1818C374.659 23.9631 374.484 22.8807 374.135 21.9347C373.786 20.9886 373.266 20.2472 372.575 19.7102C371.885 19.1733 371.024 18.9048 369.993 18.9048C369.004 18.9048 368.165 19.1648 367.475 19.6847C366.784 20.2045 366.26 20.9332 365.902 21.8707C365.553 22.8082 365.378 23.9119 365.378 25.1818ZM395.826 26.7415V15.3636H400.454V35H395.967V31.5099H395.763C395.319 32.6094 394.591 33.5085 393.576 34.2074C392.571 34.9062 391.331 35.2557 389.856 35.2557C388.569 35.2557 387.432 34.9702 386.443 34.3991C385.463 33.8196 384.696 32.9801 384.142 31.8807C383.588 30.7727 383.311 29.4347 383.311 27.8665V15.3636H387.939V27.1506C387.939 28.3949 388.28 29.3835 388.961 30.1165C389.643 30.8494 390.538 31.2159 391.646 31.2159C392.328 31.2159 392.988 31.0497 393.628 30.7173C394.267 30.3849 394.791 29.8906 395.2 29.2344C395.618 28.5696 395.826 27.7386 395.826 26.7415ZM415.019 15.3636V18.9432H403.73V15.3636H415.019ZM406.517 10.6591H411.145V29.0938C411.145 29.7159 411.239 30.1932 411.426 30.5256C411.622 30.8494 411.878 31.071 412.193 31.1903C412.509 31.3097 412.858 31.3693 413.242 31.3693C413.531 31.3693 413.796 31.348 414.034 31.3054C414.281 31.2628 414.469 31.2244 414.597 31.1903L415.377 34.8082C415.129 34.8935 414.776 34.9872 414.315 35.0895C413.864 35.1918 413.31 35.2514 412.653 35.2685C411.494 35.3026 410.45 35.1278 409.521 34.7443C408.592 34.3523 407.855 33.7472 407.31 32.929C406.773 32.1108 406.509 31.0881 406.517 29.8608V10.6591ZM418.889 35V15.3636H423.517V35H418.889ZM421.216 12.5767C420.483 12.5767 419.852 12.3338 419.324 11.848C418.795 11.3537 418.531 10.7614 418.531 10.071C418.531 9.37216 418.795 8.77983 419.324 8.29403C419.852 7.79971 420.483 7.55256 421.216 7.55256C421.957 7.55256 422.588 7.79971 423.108 8.29403C423.636 8.77983 423.9 9.37216 423.9 10.071C423.9 10.7614 423.636 11.3537 423.108 11.848C422.588 12.3338 421.957 12.5767 421.216 12.5767ZM436.841 35.3835C434.923 35.3835 433.261 34.9616 431.855 34.1179C430.449 33.2741 429.358 32.0937 428.582 30.5767C427.815 29.0597 427.432 27.2869 427.432 25.2585C427.432 23.2301 427.815 21.4531 428.582 19.9276C429.358 18.402 430.449 17.2173 431.855 16.3736C433.261 15.5298 434.923 15.108 436.841 15.108C438.759 15.108 440.421 15.5298 441.827 16.3736C443.233 17.2173 444.32 18.402 445.087 19.9276C445.862 21.4531 446.25 23.2301 446.25 25.2585C446.25 27.2869 445.862 29.0597 445.087 30.5767C444.32 32.0937 443.233 33.2741 441.827 34.1179C440.421 34.9616 438.759 35.3835 436.841 35.3835ZM436.867 31.6761C437.906 31.6761 438.776 31.3906 439.475 30.8196C440.173 30.2401 440.693 29.4645 441.034 28.4929C441.384 27.5213 441.558 26.4389 441.558 25.2457C441.558 24.044 441.384 22.9574 441.034 21.9858C440.693 21.0057 440.173 20.2259 439.475 19.6463C438.776 19.0668 437.906 18.777 436.867 18.777C435.801 18.777 434.915 19.0668 434.207 19.6463C433.509 20.2259 432.984 21.0057 432.635 21.9858C432.294 22.9574 432.124 24.044 432.124 25.2457C432.124 26.4389 432.294 27.5213 432.635 28.4929C432.984 29.4645 433.509 30.2401 434.207 30.8196C434.915 31.3906 435.801 31.6761 436.867 31.6761ZM454.806 23.4943V35H450.178V15.3636H454.601V18.7003H454.831C455.283 17.6009 456.003 16.7273 456.992 16.0795C457.989 15.4318 459.221 15.108 460.687 15.108C462.042 15.108 463.222 15.3977 464.228 15.9773C465.242 16.5568 466.026 17.3963 466.58 18.4957C467.142 19.5952 467.419 20.929 467.411 22.4972V35H462.783V23.2131C462.783 21.9006 462.442 20.8736 461.76 20.1321C461.087 19.3906 460.154 19.0199 458.961 19.0199C458.151 19.0199 457.431 19.1989 456.8 19.5568C456.178 19.9062 455.688 20.4134 455.33 21.0781C454.981 21.7429 454.806 22.5483 454.806 23.4943Z" fill="#002B7E"/>
<defs>
<filter id="filter0_d_1480_7280" x="178.57" y="71.0781" width="374.875" height="375.488" filterUnits="userSpaceOnUse" color-interpolation-filters="sRGB">
<feFlood flood-opacity="0" result="BackgroundImageFix"/>
<feColorMatrix in="SourceAlpha" type="matrix" values="0 0 0 0 0 0 0 0 0 0 0 0 0 0 0 0 0 0 127 0" result="hardAlpha"/>
<feOffset dy="4"/>
<feGaussianBlur stdDeviation="25"/>
<feComposite in2="hardAlpha" operator="out"/>
<feColorMatrix type="matrix" values="0 0 0 0 0 0 0 0 0 0 0 0 0 0 0 0 0 0 0.08 0"/>
<feBlend mode="normal" in2="BackgroundImageFix" result="effect1_dropShadow_1480_7280"/>
<feBlend mode="normal" in="SourceGraphic" in2="effect1_dropShadow_1480_7280" result="shape"/>
</filter>
</defs>
</svg>
