<svg width="14" height="14" viewBox="0 0 14 14" fill="none" xmlns="http://www.w3.org/2000/svg">
<path fill-rule="evenodd" clip-rule="evenodd" d="M9.8724 6.84635C9.8724 8.31911 8.67849 9.51302 7.20573 9.51302C5.73297 9.51302 4.53906 8.31911 4.53906 6.84635C4.53906 5.3736 5.73297 4.17969 7.20573 4.17969C8.67849 4.17969 9.8724 5.3736 9.8724 6.84635ZM8.53906 6.84635C8.53906 7.58273 7.94211 8.17969 7.20573 8.17969C6.46935 8.17969 5.8724 7.58273 5.8724 6.84635C5.8724 6.10997 6.46935 5.51302 7.20573 5.51302C7.94211 5.51302 8.53906 6.10997 8.53906 6.84635Z" fill="#FCFCFD"/>
<path fill-rule="evenodd" clip-rule="evenodd" d="M13.8724 6.84635C13.8724 10.5283 10.8876 13.513 7.20573 13.513C3.52383 13.513 0.539062 10.5283 0.539062 6.84635C0.539062 3.16446 3.52383 0.179688 7.20573 0.179688C10.8876 0.179688 13.8724 3.16446 13.8724 6.84635ZM12.5391 6.84635C12.5391 9.79187 10.1512 12.1797 7.20573 12.1797C4.26021 12.1797 1.8724 9.79187 1.8724 6.84635C1.8724 3.90084 4.26021 1.51302 7.20573 1.51302C10.1512 1.51302 12.5391 3.90084 12.5391 6.84635Z" fill="#FCFCFD"/>
</svg>
