<svg width="15" height="14" viewBox="0 0 15 14" fill="none" xmlns="http://www.w3.org/2000/svg">
<path fill-rule="evenodd" clip-rule="evenodd" d="M7.60417 13.513C11.2861 13.513 14.2708 10.5283 14.2708 6.84635C14.2708 3.16446 11.2861 0.179688 7.60417 0.179688C3.92227 0.179688 0.9375 3.16446 0.9375 6.84635C0.9375 10.5283 3.92227 13.513 7.60417 13.513ZM11.8174 10.1168C12.5194 9.21371 12.9375 8.07885 12.9375 6.84635C12.9375 4.12661 10.9017 1.88235 8.27083 1.55428V4.2637C9.42098 4.55973 10.2708 5.6038 10.2708 6.84635C10.2708 7.34092 10.1362 7.80404 9.90158 8.20106L11.8174 10.1168ZM10.8745 11.0596L8.95875 9.14385C8.56175 9.37842 8.09868 9.51302 7.60417 9.51302C7.10965 9.51302 6.64658 9.37842 6.24958 9.14385L4.33379 11.0596C5.23691 11.7617 6.37172 12.1797 7.60417 12.1797C8.83661 12.1797 9.97143 11.7617 10.8745 11.0596ZM4.9375 6.84635C4.9375 7.34092 5.07213 7.80404 5.30675 8.20106L3.39097 10.1168C2.68891 9.21371 2.27083 8.07885 2.27083 6.84635C2.27083 4.12661 4.30663 1.88235 6.9375 1.55428V4.2637C5.78735 4.55973 4.9375 5.6038 4.9375 6.84635ZM7.60417 8.17969C8.34055 8.17969 8.9375 7.58273 8.9375 6.84635C8.9375 6.10997 8.34055 5.51302 7.60417 5.51302C6.86779 5.51302 6.27083 6.10997 6.27083 6.84635C6.27083 7.58273 6.86779 8.17969 7.60417 8.17969Z" fill="#FCFCFD"/>
</svg>
