<svg width="41" height="44" viewBox="0 0 41 44" fill="none" xmlns="http://www.w3.org/2000/svg">
<path fill-rule="evenodd" clip-rule="evenodd" d="M10.7385 1.54688C5.65593 1.54688 1.47656 5.97953 1.47656 11.5231V32.4754C1.47656 38.019 5.65593 42.4516 10.7385 42.4516H30.2623C35.3448 42.4516 39.5242 38.019 39.5242 32.4754V11.5231C39.5242 5.97953 35.3448 1.54688 30.2623 1.54688H10.7385ZM0.476562 11.5231C0.476562 5.49492 5.03831 0.546875 10.7385 0.546875H30.2623C35.9624 0.546875 40.5242 5.49492 40.5242 11.5231V32.4754C40.5242 38.5036 35.9624 43.4516 30.2623 43.4516H10.7385C5.03831 43.4516 0.476562 38.5036 0.476562 32.4754V11.5231ZM21.6518 14.1117C20.1393 13.871 18.5929 14.1477 17.2313 14.9059C15.8689 15.6646 14.7578 16.8686 14.0618 18.3525C13.3657 19.8367 13.1224 21.5214 13.369 23.1656C13.6155 24.8096 14.3382 26.3235 15.4285 27.4936C16.5183 28.6632 17.9191 29.4292 19.4292 29.69C20.939 29.9507 22.4882 29.6945 23.8583 28.9544C25.229 28.214 26.3537 27.025 27.0666 25.5506C27.7796 24.0759 28.0422 22.3947 27.8146 20.7473C27.5824 19.067 26.8534 17.5164 25.7412 16.3228C24.6295 15.1298 23.1949 14.3573 21.6518 14.1117ZM16.7448 14.0322C18.2991 13.1667 20.0718 12.8477 21.8089 13.1241C23.5806 13.4061 25.2149 14.2912 26.4728 15.6411C27.7302 16.9905 28.5458 18.7334 28.8052 20.6104C29.0594 22.4506 28.767 24.3311 27.9669 25.9859C27.1667 27.6409 25.8973 28.9896 24.3335 29.8343C22.7691 30.6793 20.9928 30.9748 19.2591 30.6754C17.5256 30.3761 15.93 29.4987 14.6969 28.1753C13.4641 26.8524 12.6554 25.1506 12.38 23.3138C12.1046 21.4771 12.3755 19.5929 13.1564 17.9279C13.9375 16.2626 15.1911 14.8974 16.7448 14.0322ZM31.2385 9.97545C30.9623 9.97545 30.7385 10.1993 30.7385 10.4754C30.7385 10.7516 30.9623 10.9754 31.2385 10.9754H31.2571C31.5332 10.9754 31.7571 10.7516 31.7571 10.4754C31.7571 10.1993 31.5332 9.97545 31.2571 9.97545H31.2385Z" fill="black"/>
</svg>
