<svg width="40" height="41" viewBox="0 0 40 41" fill="none" xmlns="http://www.w3.org/2000/svg">
<path fill-rule="evenodd" clip-rule="evenodd" d="M17.9091 15.6109C17.5032 15.2363 16.8706 15.2616 16.496 15.6674L13.2652 19.1674C12.9116 19.5504 12.9116 20.1409 13.2652 20.5239L16.496 24.024C16.8706 24.4298 17.5032 24.4551 17.909 24.0805C18.3149 23.7059 18.3402 23.0733 17.9656 22.6674L16.284 20.8457L26 20.8457C26.5523 20.8457 27 20.398 27 19.8457C27 19.2934 26.5523 18.8457 26 18.8457L16.284 18.8457L17.9656 17.024C18.3402 16.6182 18.3149 15.9855 17.9091 15.6109Z" fill="#777E91"/>
<rect x="1" y="1.3457" width="38" height="38" rx="19" stroke="#E6E8EC" stroke-width="2"/>
</svg>
