<svg width="42" height="44" viewBox="0 0 42 44" fill="none" xmlns="http://www.w3.org/2000/svg">
<path fill-rule="evenodd" clip-rule="evenodd" d="M1.5 5.49961C1.5 3.29979 3.11078 1.59961 5 1.59961C6.88922 1.59961 8.5 3.29979 8.5 5.49961C8.5 7.69943 6.88922 9.39961 5 9.39961C3.11078 9.39961 1.5 7.69943 1.5 5.49961ZM5 0.599609C2.47094 0.599609 0.5 2.83933 0.5 5.49961C0.5 8.15989 2.47094 10.3996 5 10.3996C7.52906 10.3996 9.5 8.15989 9.5 5.49961C9.5 2.83933 7.52906 0.599609 5 0.599609ZM29 14.7996C25.9662 14.7996 23.0458 16.1249 20.8847 18.5021C18.7221 20.881 17.5 24.1168 17.5 27.4996V42.3996H24.5V27.4996C24.5 26.2146 24.9636 24.9738 25.8016 24.052C26.641 23.1286 27.7903 22.5996 29 22.5996C30.2097 22.5996 31.359 23.1286 32.1984 24.052C33.0364 24.9738 33.5 26.2146 33.5 27.4996V42.3996H40.5V27.4996C40.5 24.1168 39.2779 20.881 37.1153 18.5021C34.9542 16.1249 32.0338 14.7996 29 14.7996ZM29 13.7996C25.6686 13.7996 22.4845 15.2558 20.1447 17.8295C17.8065 20.4016 16.5 23.8807 16.5 27.4996V42.8996C16.5 43.1758 16.7239 43.3996 17 43.3996H25C25.2761 43.3996 25.5 43.1758 25.5 42.8996V27.4996C25.5 26.4507 25.8792 25.4532 26.5415 24.7247C27.2024 23.9977 28.088 23.5996 29 23.5996C29.912 23.5996 30.7976 23.9977 31.4585 24.7247C32.1208 25.4532 32.5 26.4507 32.5 27.4996V42.8996C32.5 43.1758 32.7239 43.3996 33 43.3996H41C41.2761 43.3996 41.5 43.1758 41.5 42.8996V27.4996C41.5 23.8807 40.1935 20.4016 37.8553 17.8295C35.5155 15.2558 32.3314 13.7996 29 13.7996ZM0.5 16.4996C0.5 16.2235 0.723858 15.9996 1 15.9996H9C9.27614 15.9996 9.5 16.2235 9.5 16.4996V42.8996C9.5 43.1758 9.27614 43.3996 9 43.3996H1C0.723858 43.3996 0.5 43.1758 0.5 42.8996V16.4996ZM1.5 16.9996V42.3996H8.5V16.9996H1.5Z" fill="black"/>
</svg>
