<svg width="1411" height="205" viewBox="0 0 1411 205" fill="none" xmlns="http://www.w3.org/2000/svg">
<rect width="306" height="160" rx="10" transform="matrix(1 0 0 -1 24.9219 204.82)" fill="url(#paint0_linear_1364_7093)"/>
<rect opacity="0.1" x="160.922" y="118.82" width="78" height="36" rx="6" fill="white"/>
<path d="M202.087 141.82V131.638H206.104C206.876 131.638 207.534 131.786 208.078 132.081C208.621 132.373 209.036 132.779 209.321 133.299C209.609 133.816 209.753 134.413 209.753 135.089C209.753 135.765 209.607 136.362 209.316 136.879C209.024 137.396 208.602 137.798 208.048 138.087C207.498 138.375 206.832 138.519 206.049 138.519H203.489V136.794H205.701C206.116 136.794 206.457 136.723 206.726 136.58C206.997 136.434 207.2 136.234 207.332 135.979C207.468 135.72 207.536 135.424 207.536 135.089C207.536 134.751 207.468 134.456 207.332 134.204C207.2 133.949 206.997 133.751 206.726 133.612C206.454 133.47 206.109 133.398 205.691 133.398H204.24V141.82H202.087ZM214.761 141.82H211.152V131.638H214.791C215.815 131.638 216.697 131.842 217.436 132.25C218.175 132.654 218.743 133.236 219.141 133.995C219.542 134.754 219.742 135.662 219.742 136.719C219.742 137.78 219.542 138.692 219.141 139.454C218.743 140.216 218.171 140.801 217.426 141.209C216.683 141.616 215.795 141.82 214.761 141.82ZM213.304 139.976H214.671C215.308 139.976 215.843 139.863 216.277 139.638C216.715 139.409 217.043 139.056 217.262 138.579C217.484 138.098 217.595 137.478 217.595 136.719C217.595 135.967 217.484 135.352 217.262 134.875C217.043 134.398 216.716 134.046 216.282 133.821C215.848 133.596 215.313 133.483 214.676 133.483H213.304V139.976ZM221.337 141.82V131.638H228.079V133.413H223.49V135.839H227.631V137.614H223.49V141.82H221.337Z" fill="white"/>
<path d="M189.651 134.036C189.378 130.563 186.464 127.82 182.922 127.82C179.892 127.82 177.291 129.788 176.452 132.659C174.058 133.49 172.422 135.758 172.422 138.32C172.422 141.629 175.114 144.32 178.422 144.32H188.172C191.067 144.32 193.422 141.965 193.422 139.07C193.422 136.709 191.869 134.681 189.651 134.036ZM186.452 138.101L183.452 141.101C183.306 141.247 183.114 141.32 182.922 141.32C182.73 141.32 182.538 141.247 182.392 141.101L179.392 138.101C179.177 137.886 179.113 137.564 179.229 137.283C179.345 137.003 179.619 136.82 179.922 136.82H181.422V133.82C181.422 132.992 182.094 132.32 182.922 132.32C183.75 132.32 184.422 132.992 184.422 133.82V136.82H185.922C186.225 136.82 186.499 137.003 186.615 137.283C186.731 137.564 186.667 137.886 186.452 138.101Z" fill="white"/>
<path d="M164.928 102.82L161.598 91.1839H164.286L166.212 99.2692H166.308L168.433 91.1839H170.734L172.854 99.2862H172.956L174.882 91.1839H177.57L174.24 102.82H171.842L169.626 95.2124H169.536L167.325 102.82H164.928ZM181.261 97.7749V102.82H178.841V91.1839H181.193V95.6328H181.295C181.492 95.1177 181.811 94.7143 182.25 94.4226C182.689 94.1271 183.241 93.9794 183.903 93.9794C184.509 93.9794 185.038 94.112 185.489 94.3771C185.943 94.6385 186.295 95.0154 186.545 95.5078C186.799 95.9964 186.924 96.5817 186.92 97.2635V102.82H184.5V97.6953C184.504 97.1574 184.367 96.7389 184.091 96.4396C183.818 96.1404 183.436 95.9908 182.943 95.9908C182.614 95.9908 182.322 96.0608 182.068 96.201C181.818 96.3411 181.621 96.5457 181.477 96.8146C181.337 97.0798 181.265 97.3999 181.261 97.7749ZM188.825 102.82V94.093H191.246V102.82H188.825ZM190.041 92.968C189.681 92.968 189.373 92.8487 189.115 92.6101C188.861 92.3677 188.734 92.0779 188.734 91.7408C188.734 91.4074 188.861 91.1214 189.115 90.8828C189.373 90.6404 189.681 90.5192 190.041 90.5192C190.401 90.5192 190.708 90.6404 190.962 90.8828C191.219 91.1214 191.348 91.4074 191.348 91.7408C191.348 92.0779 191.219 92.3677 190.962 92.6101C190.708 92.8487 190.401 92.968 190.041 92.968ZM197.827 94.093V95.9112H192.571V94.093H197.827ZM193.764 92.0021H196.185V100.138C196.185 100.362 196.219 100.536 196.287 100.661C196.355 100.782 196.45 100.868 196.571 100.917C196.696 100.966 196.84 100.991 197.003 100.991C197.116 100.991 197.23 100.981 197.344 100.962C197.457 100.94 197.545 100.923 197.605 100.911L197.986 102.712C197.865 102.75 197.694 102.794 197.474 102.843C197.255 102.896 196.988 102.928 196.673 102.94C196.09 102.962 195.579 102.885 195.139 102.707C194.704 102.529 194.365 102.252 194.122 101.877C193.88 101.502 193.76 101.029 193.764 100.457V92.0021ZM203.287 102.991C202.389 102.991 201.616 102.809 200.969 102.445C200.325 102.078 199.829 101.559 199.48 100.888C199.132 100.214 198.957 99.4169 198.957 98.4964C198.957 97.5987 199.132 96.8108 199.48 96.1328C199.829 95.4548 200.319 94.9264 200.952 94.5476C201.588 94.1688 202.334 93.9794 203.19 93.9794C203.766 93.9794 204.302 94.0722 204.798 94.2578C205.298 94.4396 205.734 94.7143 206.105 95.0817C206.48 95.4491 206.772 95.9112 206.98 96.468C207.188 97.0211 207.293 97.6688 207.293 98.4112V99.076H199.923V97.576H205.014C205.014 97.2275 204.938 96.9188 204.787 96.6499C204.635 96.3809 204.425 96.1707 204.156 96.0192C203.891 95.8639 203.582 95.7862 203.23 95.7862C202.863 95.7862 202.537 95.8714 202.253 96.0419C201.973 96.2086 201.753 96.4339 201.594 96.718C201.435 96.9983 201.353 97.3108 201.349 97.6555V99.0817C201.349 99.5135 201.429 99.8866 201.588 100.201C201.751 100.515 201.98 100.758 202.276 100.928C202.571 101.099 202.921 101.184 203.327 101.184C203.596 101.184 203.842 101.146 204.065 101.07C204.289 100.995 204.48 100.881 204.639 100.729C204.798 100.578 204.92 100.392 205.003 100.173L207.241 100.32C207.128 100.858 206.895 101.328 206.543 101.729C206.194 102.127 205.743 102.438 205.19 102.661C204.641 102.881 204.007 102.991 203.287 102.991ZM208.872 106.093V94.093H211.259V95.5589H211.366C211.473 95.3241 211.626 95.0855 211.827 94.843C212.031 94.5968 212.296 94.3923 212.622 94.2294C212.952 94.0627 213.361 93.9794 213.849 93.9794C214.486 93.9794 215.073 94.1461 215.611 94.4794C216.149 94.8089 216.579 95.3071 216.901 95.9737C217.223 96.6366 217.384 97.468 217.384 98.468C217.384 99.4415 217.226 100.263 216.912 100.934C216.601 101.601 216.177 102.106 215.639 102.451C215.105 102.792 214.507 102.962 213.844 102.962C213.374 102.962 212.974 102.885 212.645 102.729C212.319 102.574 212.052 102.379 211.844 102.144C211.635 101.906 211.476 101.665 211.366 101.423H211.293V106.093H208.872ZM211.241 98.4567C211.241 98.9756 211.313 99.4283 211.457 99.8146C211.601 100.201 211.81 100.502 212.082 100.718C212.355 100.93 212.687 101.036 213.077 101.036C213.471 101.036 213.804 100.928 214.077 100.712C214.349 100.493 214.556 100.19 214.696 99.8033C214.84 99.4131 214.912 98.9643 214.912 98.4567C214.912 97.9529 214.842 97.5097 214.702 97.1271C214.562 96.7446 214.355 96.4453 214.082 96.2294C213.81 96.0135 213.474 95.9055 213.077 95.9055C212.683 95.9055 212.349 96.0097 212.077 96.218C211.808 96.4264 211.601 96.7218 211.457 97.1044C211.313 97.487 211.241 97.9377 211.241 98.4567ZM221.486 102.985C220.929 102.985 220.433 102.888 219.997 102.695C219.562 102.498 219.217 102.209 218.963 101.826C218.713 101.44 218.588 100.959 218.588 100.383C218.588 99.898 218.677 99.4908 218.855 99.1612C219.033 98.8317 219.276 98.5665 219.582 98.3658C219.889 98.165 220.238 98.0135 220.628 97.9112C221.022 97.8089 221.435 97.737 221.866 97.6953C222.374 97.6423 222.783 97.593 223.094 97.5476C223.404 97.4983 223.63 97.4264 223.77 97.3317C223.91 97.237 223.98 97.0968 223.98 96.9112V96.8771C223.98 96.5173 223.866 96.2389 223.639 96.0419C223.416 95.8449 223.098 95.7464 222.685 95.7464C222.249 95.7464 221.902 95.843 221.645 96.0362C221.387 96.2256 221.217 96.4643 221.134 96.7521L218.895 96.5703C219.009 96.04 219.232 95.5817 219.565 95.1953C219.899 94.8052 220.329 94.5059 220.855 94.2976C221.385 94.0855 221.999 93.9794 222.696 93.9794C223.181 93.9794 223.645 94.0362 224.088 94.1499C224.535 94.2635 224.931 94.4396 225.276 94.6783C225.624 94.9169 225.899 95.2237 226.099 95.5987C226.3 95.9699 226.401 96.415 226.401 96.9339V102.82H224.105V101.61H224.037C223.897 101.883 223.709 102.123 223.474 102.332C223.24 102.536 222.957 102.697 222.628 102.815C222.298 102.928 221.918 102.985 221.486 102.985ZM222.179 101.315C222.535 101.315 222.849 101.245 223.122 101.104C223.395 100.96 223.609 100.767 223.764 100.525C223.92 100.282 223.997 100.008 223.997 99.701V98.7749C223.921 98.8241 223.817 98.8696 223.685 98.9112C223.556 98.9491 223.41 98.9851 223.247 99.0192C223.084 99.0495 222.921 99.0779 222.759 99.1044C222.596 99.1271 222.448 99.148 222.315 99.1669C222.031 99.2086 221.783 99.2749 221.571 99.3658C221.359 99.4567 221.194 99.5798 221.077 99.7351C220.959 99.8866 220.901 100.076 220.901 100.303C220.901 100.633 221.02 100.885 221.259 101.059C221.501 101.229 221.808 101.315 222.179 101.315ZM228.278 106.093V94.093H230.665V95.5589H230.773C230.879 95.3241 231.032 95.0855 231.233 94.843C231.438 94.5968 231.703 94.3923 232.028 94.2294C232.358 94.0627 232.767 93.9794 233.256 93.9794C233.892 93.9794 234.479 94.1461 235.017 94.4794C235.555 94.8089 235.985 95.3071 236.307 95.9737C236.629 96.6366 236.79 97.468 236.79 98.468C236.79 99.4415 236.633 100.263 236.318 100.934C236.008 101.601 235.583 102.106 235.045 102.451C234.511 102.792 233.913 102.962 233.25 102.962C232.78 102.962 232.381 102.885 232.051 102.729C231.725 102.574 231.458 102.379 231.25 102.144C231.042 101.906 230.883 101.665 230.773 101.423H230.699V106.093H228.278ZM230.648 98.4567C230.648 98.9756 230.72 99.4283 230.864 99.8146C231.008 100.201 231.216 100.502 231.489 100.718C231.761 100.93 232.093 101.036 232.483 101.036C232.877 101.036 233.21 100.928 233.483 100.712C233.756 100.493 233.962 100.19 234.102 99.8033C234.246 99.4131 234.318 98.9643 234.318 98.4567C234.318 97.9529 234.248 97.5097 234.108 97.1271C233.968 96.7446 233.761 96.4453 233.489 96.2294C233.216 96.0135 232.881 95.9055 232.483 95.9055C232.089 95.9055 231.756 96.0097 231.483 96.218C231.214 96.4264 231.008 96.7218 230.864 97.1044C230.72 97.487 230.648 97.9377 230.648 98.4567ZM242.381 102.991C241.483 102.991 240.71 102.809 240.062 102.445C239.419 102.078 238.922 101.559 238.574 100.888C238.225 100.214 238.051 99.4169 238.051 98.4964C238.051 97.5987 238.225 96.8108 238.574 96.1328C238.922 95.4548 239.413 94.9264 240.045 94.5476C240.682 94.1688 241.428 93.9794 242.284 93.9794C242.86 93.9794 243.396 94.0722 243.892 94.2578C244.392 94.4396 244.828 94.7143 245.199 95.0817C245.574 95.4491 245.866 95.9112 246.074 96.468C246.282 97.0211 246.386 97.6688 246.386 98.4112V99.076H239.017V97.576H244.108C244.108 97.2275 244.032 96.9188 243.881 96.6499C243.729 96.3809 243.519 96.1707 243.25 96.0192C242.985 95.8639 242.676 95.7862 242.324 95.7862C241.956 95.7862 241.631 95.8714 241.347 96.0419C241.066 96.2086 240.847 96.4339 240.688 96.718C240.528 96.9983 240.447 97.3108 240.443 97.6555V99.0817C240.443 99.5135 240.523 99.8866 240.682 100.201C240.845 100.515 241.074 100.758 241.369 100.928C241.665 101.099 242.015 101.184 242.42 101.184C242.689 101.184 242.936 101.146 243.159 101.07C243.383 100.995 243.574 100.881 243.733 100.729C243.892 100.578 244.013 100.392 244.097 100.173L246.335 100.32C246.222 100.858 245.989 101.328 245.636 101.729C245.288 102.127 244.837 102.438 244.284 102.661C243.735 102.881 243.1 102.991 242.381 102.991ZM247.966 102.82V94.093H250.312V95.6158H250.403C250.563 95.0741 250.83 94.665 251.205 94.3885C251.58 94.1082 252.011 93.968 252.5 93.968C252.621 93.968 252.752 93.9756 252.892 93.9908C253.032 94.0059 253.155 94.0268 253.261 94.0533V96.201C253.148 96.1669 252.991 96.1366 252.79 96.1101C252.589 96.0836 252.405 96.0703 252.239 96.0703C251.883 96.0703 251.564 96.148 251.284 96.3033C251.008 96.4548 250.788 96.6669 250.625 96.9396C250.466 97.2124 250.386 97.5268 250.386 97.8828V102.82H247.966Z" fill="white"/>
<rect x="0.921875" y="2.82031" width="140" height="180" rx="10" fill="url(#paint1_linear_1364_7093)"/>
<mask id="mask0_1364_7093" style="mask-type:alpha" maskUnits="userSpaceOnUse" x="0" y="2" width="141" height="181">
<rect x="0.921875" y="2.82031" width="140" height="180" rx="10" fill="url(#paint2_linear_1364_7093)"/>
<rect x="0.921875" y="2.82031" width="140" height="180" rx="10" fill="black" fill-opacity="0.2"/>
</mask>
<g mask="url(#mask0_1364_7093)">
<path opacity="0.2" d="M143.749 158.158C146.92 146.089 138.604 133.994 125.175 131.144C111.745 128.294 98.2878 135.768 95.1168 147.838C91.9457 159.907 100.262 172.002 113.691 174.852C127.121 177.702 140.578 170.228 143.749 158.158Z" stroke="white" stroke-miterlimit="10" stroke-dasharray="5 5"/>
<path d="M47.8104 86.8203L44.4808 75.1839H47.1683L49.0945 83.2692H49.1911L51.3161 75.1839H53.6172L55.7365 83.2862H55.8388L57.7649 75.1839H60.4524L57.1229 86.8203H54.7251L52.5092 79.2124H52.4183L50.2081 86.8203H47.8104ZM61.7692 86.8203V75.1839H64.2294V79.9851H69.2237V75.1839H71.6783V86.8203H69.2237V82.0135H64.2294V86.8203H61.7692ZM76.1669 75.1839V86.8203H73.7067V75.1839H76.1669ZM77.7479 77.2124V75.1839H87.3047V77.2124H83.7422V86.8203H81.3104V77.2124H77.7479ZM88.8786 86.8203V75.1839H96.7195V77.2124H91.3388V79.9851H96.3161V82.0135H91.3388V84.7919H96.7422V86.8203H88.8786ZM46.1129 110.82V99.1839H50.7038C51.5864 99.1839 52.3383 99.3525 52.9595 99.6896C53.5807 100.023 54.0542 100.487 54.38 101.082C54.7095 101.673 54.8743 102.354 54.8743 103.127C54.8743 103.9 54.7076 104.582 54.3743 105.173C54.041 105.763 53.558 106.224 52.9254 106.553C52.2966 106.883 51.5353 107.048 50.6413 107.048H47.7152V105.076H50.2436C50.7171 105.076 51.1072 104.995 51.4141 104.832C51.7247 104.665 51.9557 104.436 52.1072 104.144C52.2625 103.849 52.3402 103.51 52.3402 103.127C52.3402 102.741 52.2625 102.404 52.1072 102.116C51.9557 101.824 51.7247 101.599 51.4141 101.44C51.1035 101.277 50.7095 101.195 50.2322 101.195H48.5732V110.82H46.1129ZM57.1342 110.82H54.4979L58.5149 99.1839H61.6854L65.6967 110.82H63.0604L60.1456 101.843H60.0547L57.1342 110.82ZM56.9695 106.246H63.1967V108.167H56.9695V106.246ZM67.0973 110.82V99.1839H71.6882C72.5708 99.1839 73.3227 99.3525 73.9439 99.6896C74.5651 100.023 75.0386 100.487 75.3643 101.082C75.6939 101.673 75.8587 102.354 75.8587 103.127C75.8587 103.9 75.692 104.582 75.3587 105.173C75.0253 105.763 74.5424 106.224 73.9098 106.553C73.281 106.883 72.5196 107.048 71.6257 107.048H68.6996V105.076H71.228C71.7015 105.076 72.0916 104.995 72.3984 104.832C72.709 104.665 72.9401 104.436 73.0916 104.144C73.2469 103.849 73.3246 103.51 73.3246 103.127C73.3246 102.741 73.2469 102.404 73.0916 102.116C72.9401 101.824 72.709 101.599 72.3984 101.44C72.0878 101.277 71.6939 101.195 71.2166 101.195H69.5575V110.82H67.0973ZM77.4567 110.82V99.1839H85.2976V101.212H79.9169V103.985H84.8942V106.013H79.9169V108.792H85.3203V110.82H77.4567ZM87.2536 110.82V99.1839H91.8445C92.7232 99.1839 93.4732 99.3411 94.0945 99.6555C94.7195 99.9661 95.1948 100.407 95.5206 100.979C95.8501 101.548 96.0149 102.216 96.0149 102.985C96.0149 103.758 95.8482 104.423 95.5149 104.979C95.1816 105.532 94.6986 105.957 94.0661 106.252C93.4373 106.548 92.6759 106.695 91.782 106.695H88.7081V104.718H91.3842C91.8539 104.718 92.2441 104.654 92.5547 104.525C92.8653 104.396 93.0964 104.203 93.2479 103.945C93.4032 103.688 93.4808 103.368 93.4808 102.985C93.4808 102.599 93.4032 102.273 93.2479 102.008C93.0964 101.743 92.8634 101.542 92.549 101.406C92.2384 101.265 91.8464 101.195 91.3729 101.195H89.7138V110.82H87.2536ZM93.5376 105.525L96.4297 110.82H93.7138L90.8842 105.525H93.5376Z" fill="white"/>
<path opacity="0.3" d="M19.6755 123.329C18.678 123.329 17.8594 122.602 17.8594 121.697C17.8594 120.8 18.6686 120.064 19.6755 120.064C20.6729 120.064 21.4916 120.792 21.4916 121.697C21.4916 122.602 20.6824 123.329 19.6755 123.329Z" fill="white"/>
<path opacity="0.3" d="M36.7458 123.329C35.7484 123.329 34.9297 122.602 34.9297 121.697C34.9297 120.8 35.739 120.064 36.7458 120.064C37.7433 120.064 38.5619 120.792 38.5619 121.697C38.5619 122.602 37.7433 123.329 36.7458 123.329Z" fill="white"/>
<path opacity="0.3" d="M53.8161 123.329C52.8187 123.329 52 122.602 52 121.697C52 120.8 52.8092 120.064 53.8161 120.064C54.8136 120.064 55.6322 120.792 55.6322 121.697C55.6228 122.602 54.8136 123.329 53.8161 123.329Z" fill="white"/>
<path opacity="0.3" d="M70.8786 123.329C69.8812 123.329 69.0625 122.602 69.0625 121.697C69.0625 120.8 69.8717 120.064 70.8786 120.064C71.8761 120.064 72.6947 120.792 72.6947 121.697C72.6947 122.602 71.8761 123.329 70.8786 123.329Z" fill="white"/>
<path opacity="0.5" d="M102.548 56.6367C94.2458 56.6367 87.4922 50.567 87.4922 43.1055C87.4922 35.6439 94.2458 29.5742 102.548 29.5742C110.85 29.5742 117.604 35.6439 117.604 43.1055C117.612 50.5599 110.85 56.6367 102.548 56.6367ZM102.548 31.002C95.1239 31.002 89.0888 36.4259 89.0888 43.0983C89.0888 49.7707 95.1239 55.1946 102.548 55.1946C109.972 55.1946 116.007 49.7707 116.007 43.0983C116.015 36.4331 109.972 31.002 102.548 31.002Z" fill="white"/>
<path opacity="0.2" d="M2.33462 160.658C-6.74603 160.658 -14.1328 154.019 -14.1328 145.858C-14.1328 137.697 -6.74603 131.059 2.33462 131.059C11.4153 131.059 18.802 137.697 18.802 145.858C18.8108 154.012 11.4153 160.658 2.33462 160.658ZM2.33462 132.62C-5.78558 132.62 -12.3865 138.553 -12.3865 145.851C-12.3865 153.148 -5.78558 159.081 2.33462 159.081C10.4548 159.081 17.0557 153.148 17.0557 145.851C17.0645 138.561 10.4548 132.62 2.33462 132.62Z" fill="white"/>
<path opacity="0.2" d="M-15.3745 3.35754L44.4034 34.3753L9.89062 88.0996L-20.5965 72.2804L-3.6854 45.9558L-32.9762 30.7573L-15.3745 3.35754ZM42.5165 34.8297L-14.8689 5.0534L-31.0893 30.3029L-1.79845 45.5014L-18.7095 71.826L9.38502 86.4038L42.5165 34.8297Z" fill="white"/>
<path opacity="0.2" d="M105.706 113.455L87.4954 87.3802L116.508 71.0137L125.795 84.3118L111.579 92.3313L120.503 105.108L105.706 113.455ZM88.4404 87.5745L105.922 112.605L119.558 104.913L110.634 92.137L124.85 84.1175L116.292 71.863L88.4404 87.5745Z" fill="white"/>
<path opacity="0.2" d="M-19.1401 -8.4823L40.6378 22.5355L6.125 76.2598L-24.3621 60.4405L-7.45103 34.1159L-36.7418 18.9174L-19.1401 -8.4823ZM38.7508 22.9899L-18.6345 -6.78644L-34.8549 18.463L-5.56408 33.6615L-22.4751 59.9861L5.61939 74.5639L38.7508 22.9899Z" fill="white"/>
</g>
<rect width="306" height="160" rx="10" transform="matrix(1 0 0 -1 384.922 204.82)" fill="url(#paint3_linear_1364_7093)"/>
<rect x="520.922" y="118.82" width="78" height="36" rx="6" fill="white"/>
<path d="M562.087 141.82V131.638H566.104C566.876 131.638 567.534 131.786 568.078 132.081C568.621 132.373 569.036 132.779 569.321 133.299C569.609 133.816 569.753 134.413 569.753 135.089C569.753 135.765 569.607 136.362 569.316 136.879C569.024 137.396 568.602 137.798 568.048 138.087C567.498 138.375 566.832 138.519 566.049 138.519H563.489V136.794H565.701C566.116 136.794 566.457 136.723 566.726 136.58C566.997 136.434 567.2 136.234 567.332 135.979C567.468 135.72 567.536 135.424 567.536 135.089C567.536 134.751 567.468 134.456 567.332 134.204C567.2 133.949 566.997 133.751 566.726 133.612C566.454 133.47 566.109 133.398 565.691 133.398H564.24V141.82H562.087ZM574.761 141.82H571.152V131.638H574.791C575.815 131.638 576.697 131.842 577.436 132.25C578.175 132.654 578.743 133.236 579.141 133.995C579.542 134.754 579.742 135.662 579.742 136.719C579.742 137.78 579.542 138.692 579.141 139.454C578.743 140.216 578.171 140.801 577.426 141.209C576.683 141.616 575.795 141.82 574.761 141.82ZM573.304 139.976H574.671C575.308 139.976 575.843 139.863 576.277 139.638C576.715 139.409 577.043 139.056 577.262 138.579C577.484 138.098 577.595 137.478 577.595 136.719C577.595 135.967 577.484 135.352 577.262 134.875C577.043 134.398 576.716 134.046 576.282 133.821C575.848 133.596 575.313 133.483 574.676 133.483H573.304V139.976ZM581.337 141.82V131.638H588.079V133.413H583.49V135.839H587.631V137.614H583.49V141.82H581.337Z" fill="#FF4581"/>
<path d="M549.651 134.036C549.378 130.563 546.464 127.82 542.922 127.82C539.892 127.82 537.291 129.788 536.452 132.659C534.058 133.49 532.422 135.758 532.422 138.32C532.422 141.629 535.114 144.32 538.422 144.32H548.172C551.067 144.32 553.422 141.965 553.422 139.07C553.422 136.709 551.869 134.681 549.651 134.036ZM546.452 138.101L543.452 141.101C543.306 141.247 543.114 141.32 542.922 141.32C542.73 141.32 542.538 141.247 542.392 141.101L539.392 138.101C539.177 137.886 539.113 137.564 539.229 137.283C539.345 137.003 539.619 136.82 539.922 136.82H541.422V133.82C541.422 132.992 542.094 132.32 542.922 132.32C543.75 132.32 544.422 132.992 544.422 133.82V136.82H545.922C546.225 136.82 546.499 137.003 546.615 137.283C546.731 137.564 546.667 137.886 546.452 138.101Z" fill="#FF4581"/>
<path d="M532.626 97.0021C532.626 98.2711 532.386 99.3506 531.905 100.241C531.428 101.131 530.776 101.811 529.95 102.281C529.128 102.746 528.204 102.979 527.178 102.979C526.143 102.979 525.215 102.745 524.393 102.275C523.571 101.805 522.922 101.125 522.445 100.235C521.967 99.3449 521.729 98.2673 521.729 97.0021C521.729 95.7332 521.967 94.6536 522.445 93.7635C522.922 92.8733 523.571 92.1953 524.393 91.7294C525.215 91.2597 526.143 91.0249 527.178 91.0249C528.204 91.0249 529.128 91.2597 529.95 91.7294C530.776 92.1953 531.428 92.8733 531.905 93.7635C532.386 94.6536 532.626 95.7332 532.626 97.0021ZM530.132 97.0021C530.132 96.1802 530.009 95.487 529.763 94.9226C529.52 94.3582 529.178 93.9302 528.734 93.6385C528.291 93.3468 527.772 93.201 527.178 93.201C526.583 93.201 526.064 93.3468 525.621 93.6385C525.178 93.9302 524.833 94.3582 524.587 94.9226C524.344 95.487 524.223 96.1802 524.223 97.0021C524.223 97.8241 524.344 98.5173 524.587 99.0817C524.833 99.6461 525.178 100.074 525.621 100.366C526.064 100.657 526.583 100.803 527.178 100.803C527.772 100.803 528.291 100.657 528.734 100.366C529.178 100.074 529.52 99.6461 529.763 99.0817C530.009 98.5173 530.132 97.8241 530.132 97.0021ZM536.824 97.7749V102.82H534.403V94.093H536.71V95.6328H536.812C537.006 95.1252 537.33 94.7237 537.784 94.4283C538.239 94.129 538.79 93.9794 539.438 93.9794C540.044 93.9794 540.572 94.112 541.023 94.3771C541.473 94.6423 541.824 95.0211 542.074 95.5135C542.324 96.0021 542.449 96.5855 542.449 97.2635V102.82H540.028V97.6953C540.032 97.1612 539.896 96.7446 539.619 96.4453C539.343 96.1423 538.962 95.9908 538.477 95.9908C538.152 95.9908 537.864 96.0608 537.614 96.201C537.367 96.3411 537.174 96.5457 537.034 96.8146C536.898 97.0798 536.828 97.3999 536.824 97.7749ZM548.334 102.991C547.436 102.991 546.663 102.809 546.016 102.445C545.372 102.078 544.875 101.559 544.527 100.888C544.179 100.214 544.004 99.4169 544.004 98.4964C544.004 97.5987 544.179 96.8108 544.527 96.1328C544.875 95.4548 545.366 94.9264 545.999 94.5476C546.635 94.1688 547.381 93.9794 548.237 93.9794C548.813 93.9794 549.349 94.0722 549.845 94.2578C550.345 94.4396 550.781 94.7143 551.152 95.0817C551.527 95.4491 551.819 95.9112 552.027 96.468C552.235 97.0211 552.339 97.6688 552.339 98.4112V99.076H544.97V97.576H550.061C550.061 97.2275 549.985 96.9188 549.834 96.6499C549.682 96.3809 549.472 96.1707 549.203 96.0192C548.938 95.8639 548.629 95.7862 548.277 95.7862C547.91 95.7862 547.584 95.8714 547.3 96.0419C547.019 96.2086 546.8 96.4339 546.641 96.718C546.482 96.9983 546.4 97.3108 546.396 97.6555V99.0817C546.396 99.5135 546.476 99.8866 546.635 100.201C546.798 100.515 547.027 100.758 547.322 100.928C547.618 101.099 547.968 101.184 548.374 101.184C548.643 101.184 548.889 101.146 549.112 101.07C549.336 100.995 549.527 100.881 549.686 100.729C549.845 100.578 549.966 100.392 550.05 100.173L552.288 100.32C552.175 100.858 551.942 101.328 551.589 101.729C551.241 102.127 550.79 102.438 550.237 102.661C549.688 102.881 549.054 102.991 548.334 102.991ZM553.964 102.82V91.1839H558.555C559.438 91.1839 560.19 91.3525 560.811 91.6896C561.432 92.023 561.906 92.487 562.232 93.0817C562.561 93.6726 562.726 94.3544 562.726 95.1271C562.726 95.8999 562.559 96.5817 562.226 97.1726C561.893 97.7635 561.41 98.2237 560.777 98.5533C560.148 98.8828 559.387 99.0476 558.493 99.0476H555.567V97.076H558.095C558.569 97.076 558.959 96.9946 559.266 96.8317C559.576 96.665 559.807 96.4358 559.959 96.1442C560.114 95.8487 560.192 95.5097 560.192 95.1271C560.192 94.7408 560.114 94.4036 559.959 94.1158C559.807 93.8241 559.576 93.5987 559.266 93.4396C558.955 93.2768 558.561 93.1953 558.084 93.1953H556.425V102.82H553.964ZM566.533 102.985C565.976 102.985 565.48 102.888 565.044 102.695C564.608 102.498 564.264 102.209 564.01 101.826C563.76 101.44 563.635 100.959 563.635 100.383C563.635 99.898 563.724 99.4908 563.902 99.1612C564.08 98.8317 564.322 98.5665 564.629 98.3658C564.936 98.165 565.285 98.0135 565.675 97.9112C566.069 97.8089 566.482 97.737 566.913 97.6953C567.421 97.6423 567.83 97.593 568.141 97.5476C568.451 97.4983 568.677 97.4264 568.817 97.3317C568.957 97.237 569.027 97.0968 569.027 96.9112V96.8771C569.027 96.5173 568.913 96.2389 568.686 96.0419C568.463 95.8449 568.144 95.7464 567.732 95.7464C567.296 95.7464 566.949 95.843 566.692 96.0362C566.434 96.2256 566.264 96.4643 566.18 96.7521L563.942 96.5703C564.055 96.04 564.279 95.5817 564.612 95.1953C564.946 94.8052 565.375 94.5059 565.902 94.2976C566.432 94.0855 567.046 93.9794 567.743 93.9794C568.228 93.9794 568.692 94.0362 569.135 94.1499C569.582 94.2635 569.978 94.4396 570.322 94.6783C570.671 94.9169 570.946 95.2237 571.146 95.5987C571.347 95.9699 571.447 96.415 571.447 96.9339V102.82H569.152V101.61H569.084C568.944 101.883 568.756 102.123 568.521 102.332C568.286 102.536 568.004 102.697 567.675 102.815C567.345 102.928 566.964 102.985 566.533 102.985ZM567.226 101.315C567.582 101.315 567.896 101.245 568.169 101.104C568.442 100.96 568.656 100.767 568.811 100.525C568.966 100.282 569.044 100.008 569.044 99.701V98.7749C568.968 98.8241 568.864 98.8696 568.732 98.9112C568.603 98.9491 568.457 98.9851 568.294 99.0192C568.131 99.0495 567.968 99.0779 567.805 99.1044C567.643 99.1271 567.495 99.148 567.362 99.1669C567.078 99.2086 566.83 99.2749 566.618 99.3658C566.406 99.4567 566.241 99.5798 566.124 99.7351C566.006 99.8866 565.947 100.076 565.947 100.303C565.947 100.633 566.067 100.885 566.305 101.059C566.548 101.229 566.855 101.315 567.226 101.315ZM577.257 106.275C576.473 106.275 575.801 106.167 575.24 105.951C574.683 105.739 574.24 105.449 573.911 105.082C573.581 104.714 573.367 104.301 573.268 103.843L575.507 103.542C575.575 103.716 575.683 103.879 575.831 104.031C575.979 104.182 576.174 104.303 576.416 104.394C576.662 104.489 576.962 104.536 577.314 104.536C577.84 104.536 578.274 104.407 578.615 104.15C578.96 103.896 579.132 103.47 579.132 102.871V101.275H579.03C578.924 101.517 578.765 101.746 578.553 101.962C578.34 102.178 578.068 102.354 577.734 102.491C577.401 102.627 577.003 102.695 576.541 102.695C575.886 102.695 575.289 102.544 574.751 102.241C574.217 101.934 573.791 101.466 573.473 100.837C573.159 100.205 573.001 99.4055 573.001 98.4396C573.001 97.451 573.162 96.6252 573.484 95.9624C573.806 95.2995 574.234 94.8033 574.768 94.4737C575.306 94.1442 575.895 93.9794 576.536 93.9794C577.024 93.9794 577.433 94.0627 577.763 94.2294C578.092 94.3923 578.357 94.5968 578.558 94.843C578.763 95.0855 578.92 95.3241 579.03 95.5589H579.121V94.093H581.524V102.906C581.524 103.648 581.342 104.269 580.979 104.769C580.615 105.269 580.111 105.644 579.467 105.894C578.827 106.148 578.09 106.275 577.257 106.275ZM577.308 100.877C577.698 100.877 578.028 100.781 578.297 100.587C578.57 100.39 578.778 100.11 578.922 99.7464C579.07 99.379 579.143 98.9396 579.143 98.4283C579.143 97.9169 579.071 97.4737 578.928 97.0987C578.784 96.7199 578.575 96.4264 578.303 96.218C578.03 96.0097 577.698 95.9055 577.308 95.9055C576.911 95.9055 576.575 96.0135 576.303 96.2294C576.03 96.4415 575.823 96.737 575.683 97.1158C575.543 97.4946 575.473 97.9321 575.473 98.4283C575.473 98.9321 575.543 99.3677 575.683 99.7351C575.827 100.099 576.034 100.381 576.303 100.582C576.575 100.779 576.911 100.877 577.308 100.877ZM587.428 102.991C586.53 102.991 585.757 102.809 585.109 102.445C584.465 102.078 583.969 101.559 583.621 100.888C583.272 100.214 583.098 99.4169 583.098 98.4964C583.098 97.5987 583.272 96.8108 583.621 96.1328C583.969 95.4548 584.46 94.9264 585.092 94.5476C585.729 94.1688 586.475 93.9794 587.331 93.9794C587.907 93.9794 588.443 94.0722 588.939 94.2578C589.439 94.4396 589.875 94.7143 590.246 95.0817C590.621 95.4491 590.912 95.9112 591.121 96.468C591.329 97.0211 591.433 97.6688 591.433 98.4112V99.076H584.064V97.576H589.155C589.155 97.2275 589.079 96.9188 588.928 96.6499C588.776 96.3809 588.566 96.1707 588.297 96.0192C588.032 95.8639 587.723 95.7862 587.371 95.7862C587.003 95.7862 586.678 95.8714 586.393 96.0419C586.113 96.2086 585.893 96.4339 585.734 96.718C585.575 96.9983 585.494 97.3108 585.49 97.6555V99.0817C585.49 99.5135 585.57 99.8866 585.729 100.201C585.892 100.515 586.121 100.758 586.416 100.928C586.712 101.099 587.062 101.184 587.467 101.184C587.736 101.184 587.982 101.146 588.206 101.07C588.429 100.995 588.621 100.881 588.78 100.729C588.939 100.578 589.06 100.392 589.143 100.173L591.382 100.32C591.268 100.858 591.036 101.328 590.683 101.729C590.335 102.127 589.884 102.438 589.331 102.661C588.782 102.881 588.147 102.991 587.428 102.991ZM593.013 102.82V94.093H595.359V95.6158H595.45C595.609 95.0741 595.876 94.665 596.251 94.3885C596.626 94.1082 597.058 93.968 597.547 93.968C597.668 93.968 597.799 93.9756 597.939 93.9908C598.079 94.0059 598.202 94.0268 598.308 94.0533V96.201C598.195 96.1669 598.037 96.1366 597.837 96.1101C597.636 96.0836 597.452 96.0703 597.286 96.0703C596.929 96.0703 596.611 96.148 596.331 96.3033C596.054 96.4548 595.835 96.6669 595.672 96.9396C595.513 97.2124 595.433 97.5268 595.433 97.8828V102.82H593.013Z" fill="white"/>
<rect x="360.922" y="2.82031" width="140" height="180" rx="10" fill="url(#paint4_linear_1364_7093)"/>
<mask id="mask1_1364_7093" style="mask-type:alpha" maskUnits="userSpaceOnUse" x="360" y="2" width="141" height="181">
<rect x="360.922" y="2.82031" width="140" height="180" rx="10" fill="url(#paint5_linear_1364_7093)"/>
</mask>
<g mask="url(#mask1_1364_7093)">
<path opacity="0.2" d="M482.507 158.158C485.678 146.089 477.362 133.994 463.933 131.144C450.503 128.294 437.046 135.768 433.875 147.838C430.703 159.907 439.02 172.002 452.449 174.852C465.879 177.702 479.336 170.228 482.507 158.158Z" stroke="white" stroke-miterlimit="10" stroke-dasharray="5 5"/>
<path d="M424.236 81.0021C424.236 82.2711 423.995 83.3506 423.514 84.2408C423.037 85.1309 422.385 85.8108 421.56 86.2805C420.738 86.7464 419.813 86.9794 418.787 86.9794C417.753 86.9794 416.825 86.7446 416.003 86.2749C415.181 85.8052 414.531 85.1252 414.054 84.2351C413.577 83.3449 413.338 82.2673 413.338 81.0021C413.338 79.7332 413.577 78.6536 414.054 77.7635C414.531 76.8733 415.181 76.1953 416.003 75.7294C416.825 75.2597 417.753 75.0249 418.787 75.0249C419.813 75.0249 420.738 75.2597 421.56 75.7294C422.385 76.1953 423.037 76.8733 423.514 77.7635C423.995 78.6536 424.236 79.7332 424.236 81.0021ZM421.741 81.0021C421.741 80.1802 421.618 79.487 421.372 78.9226C421.13 78.3582 420.787 77.9302 420.344 77.6385C419.901 77.3468 419.382 77.201 418.787 77.201C418.192 77.201 417.673 77.3468 417.23 77.6385C416.787 77.9302 416.442 78.3582 416.196 78.9226C415.954 79.487 415.832 80.1802 415.832 81.0021C415.832 81.8241 415.954 82.5173 416.196 83.0817C416.442 83.6461 416.787 84.0741 417.23 84.3658C417.673 84.6574 418.192 84.8033 418.787 84.8033C419.382 84.8033 419.901 84.6574 420.344 84.3658C420.787 84.0741 421.13 83.6461 421.372 83.0817C421.618 82.5173 421.741 81.8241 421.741 81.0021ZM435.791 75.1839V86.8203H433.666L428.604 79.4964H428.518V86.8203H426.058V75.1839H428.217L433.24 82.5021H433.342V75.1839H435.791ZM437.824 86.8203V75.1839H445.665V77.2124H440.284V79.9851H445.261V82.0135H440.284V84.7919H445.688V86.8203H437.824ZM405.98 110.82V99.1839H410.571C411.454 99.1839 412.205 99.3525 412.827 99.6896C413.448 100.023 413.921 100.487 414.247 101.082C414.577 101.673 414.741 102.354 414.741 103.127C414.741 103.9 414.575 104.582 414.241 105.173C413.908 105.763 413.425 106.224 412.793 106.553C412.164 106.883 411.402 107.048 410.509 107.048H407.582V105.076H410.111C410.584 105.076 410.974 104.995 411.281 104.832C411.592 104.665 411.823 104.436 411.974 104.144C412.13 103.849 412.207 103.51 412.207 103.127C412.207 102.741 412.13 102.404 411.974 102.116C411.823 101.824 411.592 101.599 411.281 101.44C410.971 101.277 410.577 101.195 410.099 101.195H408.44V110.82H405.98ZM417.001 110.82H414.365L418.382 99.1839H421.553L425.564 110.82H422.928L420.013 101.843H419.922L417.001 110.82ZM416.837 106.246H423.064V108.167H416.837V106.246ZM434.134 102.945C434.054 102.669 433.942 102.424 433.798 102.212C433.654 101.996 433.478 101.815 433.27 101.667C433.065 101.515 432.83 101.4 432.565 101.32C432.304 101.241 432.014 101.201 431.696 101.201C431.101 101.201 430.579 101.349 430.128 101.644C429.681 101.94 429.332 102.37 429.082 102.934C428.832 103.495 428.707 104.18 428.707 104.991C428.707 105.801 428.83 106.491 429.077 107.059C429.323 107.627 429.671 108.061 430.122 108.36C430.573 108.656 431.105 108.803 431.719 108.803C432.276 108.803 432.751 108.705 433.145 108.508C433.543 108.307 433.846 108.025 434.054 107.661C434.266 107.298 434.372 106.868 434.372 106.371L434.872 106.445H431.872V104.593H436.741V106.059C436.741 107.082 436.526 107.96 436.094 108.695C435.662 109.426 435.067 109.991 434.31 110.388C433.552 110.782 432.685 110.979 431.707 110.979C430.616 110.979 429.658 110.739 428.832 110.258C428.007 109.773 427.363 109.085 426.901 108.195C426.442 107.301 426.213 106.241 426.213 105.013C426.213 104.07 426.349 103.229 426.622 102.491C426.899 101.748 427.285 101.12 427.781 100.604C428.277 100.089 428.855 99.6972 429.514 99.4283C430.173 99.1593 430.887 99.0249 431.656 99.0249C432.315 99.0249 432.929 99.1214 433.497 99.3146C434.065 99.504 434.569 99.773 435.009 100.121C435.452 100.47 435.813 100.885 436.094 101.366C436.374 101.843 436.554 102.37 436.634 102.945H434.134ZM438.589 110.82V99.1839H446.43V101.212H441.05V103.985H446.027V106.013H441.05V108.792H446.453V110.82H438.589ZM448.386 110.82V99.1839H452.977C453.856 99.1839 454.606 99.3411 455.227 99.6555C455.852 99.9661 456.328 100.407 456.653 100.979C456.983 101.548 457.148 102.216 457.148 102.985C457.148 103.758 456.981 104.423 456.648 104.979C456.314 105.532 455.831 105.957 455.199 106.252C454.57 106.548 453.809 106.695 452.915 106.695H449.841V104.718H452.517C452.987 104.718 453.377 104.654 453.688 104.525C453.998 104.396 454.229 104.203 454.381 103.945C454.536 103.688 454.614 103.368 454.614 102.985C454.614 102.599 454.536 102.273 454.381 102.008C454.229 101.743 453.996 101.542 453.682 101.406C453.371 101.265 452.979 101.195 452.506 101.195H450.847V110.82H448.386ZM454.67 105.525L457.562 110.82H454.847L452.017 105.525H454.67Z" fill="white"/>
<path opacity="0.3" d="M375.504 123.329C374.506 123.329 373.688 122.602 373.688 121.697C373.688 120.8 374.497 120.064 375.504 120.064C376.501 120.064 377.32 120.792 377.32 121.697C377.32 122.602 376.501 123.329 375.504 123.329Z" fill="white"/>
<path opacity="0.3" d="M392.574 123.329C391.576 123.329 390.758 122.602 390.758 121.697C390.758 120.8 391.567 120.064 392.574 120.064C393.571 120.064 394.39 120.792 394.39 121.697C394.381 122.602 393.571 123.329 392.574 123.329Z" fill="white"/>
<path opacity="0.3" d="M409.636 123.329C408.639 123.329 407.82 122.602 407.82 121.697C407.82 120.8 408.63 120.064 409.636 120.064C410.634 120.064 411.453 120.792 411.453 121.697C411.453 122.602 410.634 123.329 409.636 123.329Z" fill="white"/>
<path opacity="0.5" d="M441.306 56.6367C433.004 56.6367 426.25 50.567 426.25 43.1055C426.25 35.6439 433.004 29.5742 441.306 29.5742C449.608 29.5742 456.362 35.6439 456.362 43.1055C456.37 50.5599 449.608 56.6367 441.306 56.6367ZM441.306 31.002C433.882 31.002 427.847 36.4259 427.847 43.0983C427.847 49.7707 433.882 55.1946 441.306 55.1946C448.73 55.1946 454.765 49.7707 454.765 43.0983C454.773 36.4331 448.73 31.002 441.306 31.002Z" fill="white"/>
<path opacity="0.2" d="M323.383 3.35754L383.161 34.3753L348.648 88.0996L318.161 72.2804L335.072 45.9558L305.782 30.7573L323.383 3.35754ZM381.274 34.8297L323.889 5.0534L307.669 30.3029L336.959 45.5014L320.048 71.826L348.143 86.4038L381.274 34.8297Z" fill="white"/>
<path opacity="0.2" d="M444.464 113.455L426.253 87.3802L455.266 71.0137L464.553 84.3118L450.337 92.3313L459.26 105.108L444.464 113.455ZM427.198 87.5745L444.68 112.605L458.315 104.913L449.392 92.137L463.608 84.1175L455.049 71.863L427.198 87.5745Z" fill="white"/>
<path opacity="0.2" d="M319.618 -8.4823L379.396 22.5355L344.883 76.2598L314.396 60.4405L331.307 34.1159L302.016 18.9174L319.618 -8.4823ZM377.509 22.9899L320.123 -6.78644L303.903 18.463L333.194 33.6615L316.283 59.9861L344.377 74.5639L377.509 22.9899Z" fill="white"/>
</g>
<rect width="306" height="160" rx="10" transform="matrix(1 0 0 -1 744.922 204.82)" fill="url(#paint6_linear_1364_7093)"/>
<rect opacity="0.1" x="880.922" y="118.82" width="78" height="36" rx="6" fill="white"/>
<path d="M922.087 141.82V131.638H926.104C926.876 131.638 927.534 131.786 928.078 132.081C928.621 132.373 929.036 132.779 929.321 133.299C929.609 133.816 929.753 134.413 929.753 135.089C929.753 135.765 929.607 136.362 929.316 136.879C929.024 137.396 928.602 137.798 928.048 138.087C927.498 138.375 926.832 138.519 926.049 138.519H923.489V136.794H925.701C926.116 136.794 926.457 136.723 926.726 136.58C926.997 136.434 927.2 136.234 927.332 135.979C927.468 135.72 927.536 135.424 927.536 135.089C927.536 134.751 927.468 134.456 927.332 134.204C927.2 133.949 926.997 133.751 926.726 133.612C926.454 133.47 926.109 133.398 925.691 133.398H924.24V141.82H922.087ZM934.761 141.82H931.152V131.638H934.791C935.815 131.638 936.697 131.842 937.436 132.25C938.175 132.654 938.743 133.236 939.141 133.995C939.542 134.754 939.742 135.662 939.742 136.719C939.742 137.78 939.542 138.692 939.141 139.454C938.743 140.216 938.171 140.801 937.426 141.209C936.683 141.616 935.795 141.82 934.761 141.82ZM933.304 139.976H934.671C935.308 139.976 935.843 139.863 936.277 139.638C936.715 139.409 937.043 139.056 937.262 138.579C937.484 138.098 937.595 137.478 937.595 136.719C937.595 135.967 937.484 135.352 937.262 134.875C937.043 134.398 936.716 134.046 936.282 133.821C935.848 133.596 935.313 133.483 934.676 133.483H933.304V139.976ZM941.337 141.82V131.638H948.079V133.413H943.49V135.839H947.631V137.614H943.49V141.82H941.337Z" fill="white"/>
<path d="M909.651 134.036C909.378 130.563 906.464 127.82 902.922 127.82C899.892 127.82 897.291 129.788 896.452 132.659C894.058 133.49 892.422 135.758 892.422 138.32C892.422 141.629 895.114 144.32 898.422 144.32H908.172C911.067 144.32 913.422 141.965 913.422 139.07C913.422 136.709 911.869 134.681 909.651 134.036ZM906.452 138.101L903.452 141.101C903.306 141.247 903.114 141.32 902.922 141.32C902.73 141.32 902.538 141.247 902.392 141.101L899.392 138.101C899.177 137.886 899.113 137.564 899.229 137.283C899.345 137.003 899.619 136.82 899.922 136.82H901.422V133.82C901.422 132.992 902.094 132.32 902.922 132.32C903.75 132.32 904.422 132.992 904.422 133.82V136.82H905.922C906.225 136.82 906.499 137.003 906.615 137.283C906.731 137.564 906.667 137.886 906.452 138.101Z" fill="white"/>
<path d="M881.933 102.82V91.1839H886.524C887.407 91.1839 888.159 91.3525 888.78 91.6896C889.401 92.023 889.875 92.487 890.2 93.0817C890.53 93.6726 890.695 94.3544 890.695 95.1271C890.695 95.8999 890.528 96.5817 890.195 97.1726C889.861 97.7635 889.378 98.2237 888.746 98.5533C888.117 98.8828 887.356 99.0476 886.462 99.0476H883.536V97.076H886.064C886.537 97.076 886.928 96.9946 887.234 96.8317C887.545 96.665 887.776 96.4358 887.928 96.1442C888.083 95.8487 888.161 95.5097 888.161 95.1271C888.161 94.7408 888.083 94.4036 887.928 94.1158C887.776 93.8241 887.545 93.5987 887.234 93.4396C886.924 93.2768 886.53 93.1953 886.053 93.1953H884.393V102.82H881.933ZM892.247 102.82V94.093H894.594V95.6158H894.685C894.844 95.0741 895.111 94.665 895.486 94.3885C895.861 94.1082 896.293 93.968 896.781 93.968C896.902 93.968 897.033 93.9756 897.173 93.9908C897.313 94.0059 897.437 94.0268 897.543 94.0533V96.201C897.429 96.1669 897.272 96.1366 897.071 96.1101C896.87 96.0836 896.687 96.0703 896.52 96.0703C896.164 96.0703 895.846 96.148 895.565 96.3033C895.289 96.4548 895.069 96.6669 894.906 96.9396C894.747 97.2124 894.668 97.5268 894.668 97.8828V102.82H892.247ZM898.794 102.82V94.093H901.214V102.82H898.794ZM900.01 92.968C899.65 92.968 899.341 92.8487 899.084 92.6101C898.83 92.3677 898.703 92.0779 898.703 91.7408C898.703 91.4074 898.83 91.1214 899.084 90.8828C899.341 90.6404 899.65 90.5192 900.01 90.5192C900.37 90.5192 900.677 90.6404 900.93 90.8828C901.188 91.1214 901.317 91.4074 901.317 91.7408C901.317 92.0779 901.188 92.3677 900.93 92.6101C900.677 92.8487 900.37 92.968 900.01 92.968ZM911.29 94.093L908.239 102.82H905.511L902.46 94.093H905.017L906.83 100.337H906.92L908.727 94.093H911.29ZM914.783 102.985C914.226 102.985 913.73 102.888 913.294 102.695C912.858 102.498 912.514 102.209 912.26 101.826C912.01 101.44 911.885 100.959 911.885 100.383C911.885 99.898 911.974 99.4908 912.152 99.1612C912.33 98.8317 912.572 98.5665 912.879 98.3658C913.186 98.165 913.535 98.0135 913.925 97.9112C914.319 97.8089 914.732 97.737 915.163 97.6953C915.671 97.6423 916.08 97.593 916.391 97.5476C916.701 97.4983 916.927 97.4264 917.067 97.3317C917.207 97.237 917.277 97.0968 917.277 96.9112V96.8771C917.277 96.5173 917.163 96.2389 916.936 96.0419C916.713 95.8449 916.394 95.7464 915.982 95.7464C915.546 95.7464 915.199 95.843 914.942 96.0362C914.684 96.2256 914.514 96.4643 914.43 96.7521L912.192 96.5703C912.305 96.04 912.529 95.5817 912.862 95.1953C913.196 94.8052 913.625 94.5059 914.152 94.2976C914.682 94.0855 915.296 93.9794 915.993 93.9794C916.478 93.9794 916.942 94.0362 917.385 94.1499C917.832 94.2635 918.228 94.4396 918.572 94.6783C918.921 94.9169 919.196 95.2237 919.396 95.5987C919.597 95.9699 919.697 96.415 919.697 96.9339V102.82H917.402V101.61H917.334C917.194 101.883 917.006 102.123 916.771 102.332C916.536 102.536 916.254 102.697 915.925 102.815C915.595 102.928 915.214 102.985 914.783 102.985ZM915.476 101.315C915.832 101.315 916.146 101.245 916.419 101.104C916.692 100.96 916.906 100.767 917.061 100.525C917.216 100.282 917.294 100.008 917.294 99.701V98.7749C917.218 98.8241 917.114 98.8696 916.982 98.9112C916.853 98.9491 916.707 98.9851 916.544 99.0192C916.381 99.0495 916.218 99.0779 916.055 99.1044C915.893 99.1271 915.745 99.148 915.612 99.1669C915.328 99.2086 915.08 99.2749 914.868 99.3658C914.656 99.4567 914.491 99.5798 914.374 99.7351C914.256 99.8866 914.197 100.076 914.197 100.303C914.197 100.633 914.317 100.885 914.555 101.059C914.798 101.229 915.105 101.315 915.476 101.315ZM925.518 102.991C924.625 102.991 923.856 102.801 923.212 102.423C922.571 102.04 922.079 101.51 921.734 100.832C921.393 100.154 921.223 99.3733 921.223 98.4908C921.223 97.5968 921.395 96.8127 921.74 96.1385C922.089 95.4605 922.583 94.9321 923.223 94.5533C923.863 94.1707 924.625 93.9794 925.507 93.9794C926.268 93.9794 926.935 94.1177 927.507 94.3942C928.079 94.6707 928.532 95.0589 928.865 95.5589C929.198 96.0589 929.382 96.6461 929.416 97.3203H927.132C927.068 96.8847 926.897 96.5343 926.621 96.2692C926.348 96.0002 925.99 95.8658 925.547 95.8658C925.172 95.8658 924.844 95.968 924.564 96.1726C924.287 96.3733 924.071 96.6669 923.916 97.0533C923.761 97.4396 923.683 97.9074 923.683 98.4567C923.683 99.0135 923.759 99.487 923.911 99.8771C924.066 100.267 924.284 100.565 924.564 100.769C924.844 100.974 925.172 101.076 925.547 101.076C925.823 101.076 926.071 101.019 926.291 100.906C926.515 100.792 926.698 100.627 926.842 100.411C926.99 100.192 927.087 99.9283 927.132 99.6214H929.416C929.378 100.288 929.196 100.875 928.871 101.383C928.549 101.887 928.104 102.281 927.536 102.565C926.967 102.849 926.295 102.991 925.518 102.991ZM932.46 106.093C932.153 106.093 931.866 106.068 931.597 106.019C931.331 105.974 931.112 105.915 930.938 105.843L931.483 104.036C931.767 104.123 932.023 104.171 932.25 104.178C932.481 104.186 932.68 104.133 932.847 104.019C933.017 103.906 933.155 103.712 933.261 103.44L933.403 103.07L930.273 94.093H932.818L934.625 100.502H934.716L936.54 94.093H939.102L935.71 103.763C935.547 104.233 935.326 104.642 935.045 104.991C934.769 105.343 934.419 105.614 933.994 105.803C933.57 105.996 933.059 106.093 932.46 106.093ZM944.089 102.82V91.1839H948.68C949.563 91.1839 950.315 91.3525 950.936 91.6896C951.557 92.023 952.031 92.487 952.357 93.0817C952.686 93.6726 952.851 94.3544 952.851 95.1271C952.851 95.8999 952.684 96.5817 952.351 97.1726C952.018 97.7635 951.535 98.2237 950.902 98.5533C950.273 98.8828 949.512 99.0476 948.618 99.0476H945.692V97.076H948.22C948.694 97.076 949.084 96.9946 949.391 96.8317C949.701 96.665 949.932 96.4358 950.084 96.1442C950.239 95.8487 950.317 95.5097 950.317 95.1271C950.317 94.7408 950.239 94.4036 950.084 94.1158C949.932 93.8241 949.701 93.5987 949.391 93.4396C949.08 93.2768 948.686 93.1953 948.209 93.1953H946.55V102.82H944.089ZM958.206 102.991C957.323 102.991 956.56 102.803 955.916 102.428C955.276 102.049 954.782 101.523 954.433 100.849C954.085 100.171 953.911 99.3847 953.911 98.4908C953.911 97.5893 954.085 96.8014 954.433 96.1271C954.782 95.4491 955.276 94.9226 955.916 94.5476C956.56 94.1688 957.323 93.9794 958.206 93.9794C959.089 93.9794 959.85 94.1688 960.49 94.5476C961.134 94.9226 961.63 95.4491 961.979 96.1271C962.327 96.8014 962.501 97.5893 962.501 98.4908C962.501 99.3847 962.327 100.171 961.979 100.849C961.63 101.523 961.134 102.049 960.49 102.428C959.85 102.803 959.089 102.991 958.206 102.991ZM958.217 101.116C958.619 101.116 958.954 101.002 959.223 100.775C959.492 100.544 959.695 100.229 959.831 99.8317C959.971 99.4339 960.041 98.9813 960.041 98.4737C960.041 97.9661 959.971 97.5135 959.831 97.1158C959.695 96.718 959.492 96.4036 959.223 96.1726C958.954 95.9415 958.619 95.826 958.217 95.826C957.812 95.826 957.471 95.9415 957.195 96.1726C956.922 96.4036 956.715 96.718 956.575 97.1158C956.439 97.5135 956.371 97.9661 956.371 98.4737C956.371 98.9813 956.439 99.4339 956.575 99.8317C956.715 100.229 956.922 100.544 957.195 100.775C957.471 101.002 957.812 101.116 958.217 101.116ZM966.496 91.1839V102.82H964.075V91.1839H966.496ZM968.435 102.82V94.093H970.855V102.82H968.435ZM969.651 92.968C969.291 92.968 968.982 92.8487 968.724 92.6101C968.471 92.3677 968.344 92.0779 968.344 91.7408C968.344 91.4074 968.471 91.1214 968.724 90.8828C968.982 90.6404 969.291 90.5192 969.651 90.5192C970.01 90.5192 970.317 90.6404 970.571 90.8828C970.829 91.1214 970.957 91.4074 970.957 91.7408C970.957 92.0779 970.829 92.3677 970.571 92.6101C970.317 92.8487 970.01 92.968 969.651 92.968ZM976.737 102.991C975.843 102.991 975.074 102.801 974.43 102.423C973.79 102.04 973.298 101.51 972.953 100.832C972.612 100.154 972.442 99.3733 972.442 98.4908C972.442 97.5968 972.614 96.8127 972.959 96.1385C973.307 95.4605 973.802 94.9321 974.442 94.5533C975.082 94.1707 975.843 93.9794 976.726 93.9794C977.487 93.9794 978.154 94.1177 978.726 94.3942C979.298 94.6707 979.75 95.0589 980.084 95.5589C980.417 96.0589 980.601 96.6461 980.635 97.3203H978.351C978.286 96.8847 978.116 96.5343 977.839 96.2692C977.567 96.0002 977.209 95.8658 976.766 95.8658C976.391 95.8658 976.063 95.968 975.783 96.1726C975.506 96.3733 975.29 96.6669 975.135 97.0533C974.98 97.4396 974.902 97.9074 974.902 98.4567C974.902 99.0135 974.978 99.487 975.129 99.8771C975.285 100.267 975.502 100.565 975.783 100.769C976.063 100.974 976.391 101.076 976.766 101.076C977.042 101.076 977.29 101.019 977.51 100.906C977.733 100.792 977.917 100.627 978.061 100.411C978.209 100.192 978.305 99.9283 978.351 99.6214H980.635C980.597 100.288 980.415 100.875 980.089 101.383C979.768 101.887 979.322 102.281 978.754 102.565C978.186 102.849 977.514 102.991 976.737 102.991ZM983.679 106.093C983.372 106.093 983.084 106.068 982.815 106.019C982.55 105.974 982.33 105.915 982.156 105.843L982.702 104.036C982.986 104.123 983.241 104.171 983.469 104.178C983.7 104.186 983.899 104.133 984.065 104.019C984.236 103.906 984.374 103.712 984.48 103.44L984.622 103.07L981.491 94.093H984.037L985.844 100.502H985.935L987.759 94.093H990.321L986.929 103.763C986.766 104.233 986.545 104.642 986.264 104.991C985.988 105.343 985.637 105.614 985.213 105.803C984.789 105.996 984.277 106.093 983.679 106.093Z" fill="white"/>
<rect x="720.922" y="2.82031" width="140" height="180" rx="10" fill="url(#paint7_linear_1364_7093)"/>
<mask id="mask2_1364_7093" style="mask-type:alpha" maskUnits="userSpaceOnUse" x="720" y="2" width="141" height="181">
<rect x="720.922" y="2.82031" width="140" height="180" rx="10" fill="url(#paint8_linear_1364_7093)"/>
</mask>
<g mask="url(#mask2_1364_7093)">
<path opacity="0.2" d="M821.265 158.158C824.436 146.089 816.12 133.994 802.69 131.144C789.261 128.294 775.803 135.768 772.632 147.838C769.461 159.907 777.777 172.002 791.207 174.852C804.636 177.702 818.094 170.228 821.265 158.158Z" stroke="white" stroke-miterlimit="10" stroke-dasharray="5 5"/>
<path d="M757.027 86.8203V75.1839H761.618C762.5 75.1839 763.252 75.3525 763.874 75.6896C764.495 76.023 764.968 76.487 765.294 77.0817C765.624 77.6726 765.788 78.3544 765.788 79.1271C765.788 79.8999 765.622 80.5817 765.288 81.1726C764.955 81.7635 764.472 82.2237 763.839 82.5533C763.211 82.8828 762.449 83.0476 761.555 83.0476H758.629V81.076H761.158C761.631 81.076 762.021 80.9946 762.328 80.8317C762.639 80.665 762.87 80.4358 763.021 80.1442C763.177 79.8487 763.254 79.5097 763.254 79.1271C763.254 78.7408 763.177 78.4036 763.021 78.1158C762.87 77.8241 762.639 77.5987 762.328 77.4396C762.018 77.2768 761.624 77.1953 761.146 77.1953H759.487V86.8203H757.027ZM767.386 86.8203V75.1839H771.977C772.856 75.1839 773.606 75.3411 774.227 75.6555C774.852 75.9661 775.328 76.4074 775.653 76.9794C775.983 77.5476 776.148 78.2161 776.148 78.9851C776.148 79.7578 775.981 80.4226 775.648 80.9794C775.314 81.5324 774.831 81.9567 774.199 82.2521C773.57 82.5476 772.809 82.6953 771.915 82.6953H768.841V80.718H771.517C771.987 80.718 772.377 80.6536 772.688 80.5249C772.998 80.3961 773.229 80.2029 773.381 79.9453C773.536 79.6877 773.614 79.3677 773.614 78.9851C773.614 78.5987 773.536 78.273 773.381 78.0078C773.229 77.7427 772.996 77.5419 772.682 77.4055C772.371 77.2654 771.979 77.1953 771.506 77.1953H769.847V86.8203H767.386ZM773.67 81.5249L776.562 86.8203H773.847L771.017 81.5249H773.67ZM780.347 75.1839V86.8203H777.886V75.1839H780.347ZM784.473 75.1839L787.286 84.0249H787.393L790.212 75.1839H792.939L788.928 86.8203H785.757L781.74 75.1839H784.473ZM794.798 86.8203H792.162L796.179 75.1839H799.349L803.361 86.8203H800.724L797.81 77.843H797.719L794.798 86.8203ZM794.634 82.2464H800.861V84.1669H794.634V82.2464ZM814.482 79.2578H811.993C811.947 78.9358 811.855 78.6499 811.714 78.3999C811.574 78.1461 811.394 77.9302 811.175 77.7521C810.955 77.5741 810.701 77.4377 810.413 77.343C810.129 77.2483 809.821 77.201 809.487 77.201C808.885 77.201 808.36 77.3506 807.913 77.6499C807.466 77.9453 807.12 78.3771 806.874 78.9453C806.627 79.5097 806.504 80.1953 806.504 81.0021C806.504 81.8317 806.627 82.5286 806.874 83.093C807.124 83.6574 807.472 84.0836 807.919 84.3714C808.366 84.6593 808.883 84.8033 809.47 84.8033C809.8 84.8033 810.105 84.7597 810.385 84.6726C810.669 84.5855 810.921 84.4586 811.141 84.2919C811.36 84.1214 811.542 83.915 811.686 83.6726C811.834 83.4302 811.936 83.1536 811.993 82.843L814.482 82.8544C814.417 83.3885 814.256 83.9036 813.999 84.3999C813.745 84.8923 813.402 85.3336 812.97 85.7237C812.542 86.1101 812.031 86.4169 811.436 86.6442C810.845 86.8677 810.177 86.9794 809.43 86.9794C808.393 86.9794 807.464 86.7446 806.646 86.2749C805.832 85.8052 805.188 85.1252 804.714 84.2351C804.245 83.3449 804.01 82.2673 804.01 81.0021C804.01 79.7332 804.249 78.6536 804.726 77.7635C805.203 76.8733 805.851 76.1953 806.669 75.7294C807.487 75.2597 808.408 75.0249 809.43 75.0249C810.105 75.0249 810.73 75.1196 811.305 75.3089C811.885 75.4983 812.398 75.7749 812.845 76.1385C813.292 76.4983 813.656 76.9396 813.936 77.4624C814.22 77.9851 814.402 78.5836 814.482 79.2578ZM815.564 75.1839H818.32L820.973 80.1953H821.087L823.74 75.1839H826.496L822.251 82.7067V86.8203H819.808V82.7067L815.564 75.1839ZM762.402 110.82V99.1839H766.993C767.875 99.1839 768.627 99.3525 769.249 99.6896C769.87 100.023 770.343 100.487 770.669 101.082C770.999 101.673 771.163 102.354 771.163 103.127C771.163 103.9 770.997 104.582 770.663 105.173C770.33 105.763 769.847 106.224 769.214 106.553C768.586 106.883 767.824 107.048 766.93 107.048H764.004V105.076H766.533C767.006 105.076 767.396 104.995 767.703 104.832C768.014 104.665 768.245 104.436 768.396 104.144C768.552 103.849 768.629 103.51 768.629 103.127C768.629 102.741 768.552 102.404 768.396 102.116C768.245 101.824 768.014 101.599 767.703 101.44C767.393 101.277 766.999 101.195 766.521 101.195H764.862V110.82H762.402ZM783.455 105.002C783.455 106.271 783.214 107.351 782.733 108.241C782.256 109.131 781.604 109.811 780.778 110.281C779.956 110.746 779.032 110.979 778.006 110.979C776.972 110.979 776.044 110.745 775.222 110.275C774.4 109.805 773.75 109.125 773.273 108.235C772.795 107.345 772.557 106.267 772.557 105.002C772.557 103.733 772.795 102.654 773.273 101.763C773.75 100.873 774.4 100.195 775.222 99.7294C776.044 99.2597 776.972 99.0249 778.006 99.0249C779.032 99.0249 779.956 99.2597 780.778 99.7294C781.604 100.195 782.256 100.873 782.733 101.763C783.214 102.654 783.455 103.733 783.455 105.002ZM780.96 105.002C780.96 104.18 780.837 103.487 780.591 102.923C780.348 102.358 780.006 101.93 779.562 101.638C779.119 101.347 778.6 101.201 778.006 101.201C777.411 101.201 776.892 101.347 776.449 101.638C776.006 101.93 775.661 102.358 775.415 102.923C775.172 103.487 775.051 104.18 775.051 105.002C775.051 105.824 775.172 106.517 775.415 107.082C775.661 107.646 776.006 108.074 776.449 108.366C776.892 108.657 777.411 108.803 778.006 108.803C778.6 108.803 779.119 108.657 779.562 108.366C780.006 108.074 780.348 107.646 780.591 107.082C780.837 106.517 780.96 105.824 780.96 105.002ZM785.277 110.82V99.1839H787.737V108.792H792.726V110.82H785.277ZM796.815 99.1839V110.82H794.355V99.1839H796.815ZM809.107 103.258H806.618C806.572 102.936 806.48 102.65 806.339 102.4C806.199 102.146 806.019 101.93 805.8 101.752C805.58 101.574 805.326 101.438 805.038 101.343C804.754 101.248 804.446 101.201 804.112 101.201C803.51 101.201 802.985 101.351 802.538 101.65C802.091 101.945 801.745 102.377 801.499 102.945C801.252 103.51 801.129 104.195 801.129 105.002C801.129 105.832 801.252 106.529 801.499 107.093C801.749 107.657 802.097 108.084 802.544 108.371C802.991 108.659 803.508 108.803 804.095 108.803C804.425 108.803 804.73 108.76 805.01 108.673C805.294 108.585 805.546 108.459 805.766 108.292C805.985 108.121 806.167 107.915 806.311 107.673C806.459 107.43 806.561 107.154 806.618 106.843L809.107 106.854C809.042 107.388 808.881 107.904 808.624 108.4C808.37 108.892 808.027 109.334 807.595 109.724C807.167 110.11 806.656 110.417 806.061 110.644C805.47 110.868 804.802 110.979 804.055 110.979C803.018 110.979 802.089 110.745 801.271 110.275C800.457 109.805 799.813 109.125 799.339 108.235C798.87 107.345 798.635 106.267 798.635 105.002C798.635 103.733 798.874 102.654 799.351 101.763C799.828 100.873 800.476 100.195 801.294 99.7294C802.112 99.2597 803.033 99.0249 804.055 99.0249C804.73 99.0249 805.355 99.1196 805.93 99.3089C806.51 99.4983 807.023 99.7749 807.47 100.138C807.917 100.498 808.281 100.94 808.561 101.462C808.845 101.985 809.027 102.584 809.107 103.258ZM810.189 99.1839H812.945L815.598 104.195H815.712L818.365 99.1839H821.121L816.876 106.707V110.82H814.433V106.707L810.189 99.1839Z" fill="white"/>
<path opacity="0.3" d="M731.332 123.329C730.334 123.329 729.516 122.602 729.516 121.697C729.516 120.8 730.325 120.064 731.332 120.064C732.329 120.064 733.148 120.792 733.148 121.697C733.138 122.602 732.329 123.329 731.332 123.329Z" fill="white"/>
<path opacity="0.3" d="M748.394 123.329C747.397 123.329 746.578 122.602 746.578 121.697C746.578 120.8 747.387 120.064 748.394 120.064C749.392 120.064 750.21 120.792 750.21 121.697C750.21 122.602 749.392 123.329 748.394 123.329Z" fill="white"/>
<path opacity="0.5" d="M780.064 56.6367C771.761 56.6367 765.008 50.567 765.008 43.1055C765.008 35.6439 771.761 29.5742 780.064 29.5742C788.366 29.5742 795.12 35.6439 795.12 43.1055C795.128 50.5599 788.366 56.6367 780.064 56.6367ZM780.064 31.002C772.64 31.002 766.604 36.4259 766.604 43.0983C766.604 49.7707 772.64 55.1946 780.064 55.1946C787.488 55.1946 793.523 49.7707 793.523 43.0983C793.531 36.4331 787.488 31.002 780.064 31.002Z" fill="white"/>
<path opacity="0.2" d="M662.141 3.35754L721.919 34.3753L687.406 88.0996L656.919 72.2804L673.83 45.9558L644.539 30.7573L662.141 3.35754ZM720.032 34.8297L662.647 5.0534L646.426 30.3029L675.717 45.5014L658.806 71.826L686.901 86.4038L720.032 34.8297Z" fill="white"/>
<path opacity="0.2" d="M783.222 113.455L765.011 87.3802L794.023 71.0137L803.311 84.3118L789.095 92.3313L798.018 105.108L783.222 113.455ZM765.956 87.5745L783.438 112.605L797.073 104.913L788.15 92.137L802.366 84.1175L793.807 71.863L765.956 87.5745Z" fill="white"/>
</g>
<rect x="1104.92" y="44.8203" width="306" height="160" rx="10" fill="url(#paint9_linear_1364_7093)"/>
<rect width="306" height="160" rx="10" transform="matrix(1 0 0 -1 1104.92 204.82)" fill="url(#paint10_linear_1364_7093)"/>
<rect opacity="0.1" x="1240.92" y="118.82" width="78" height="36" rx="6" fill="white"/>
<path d="M1282.09 141.82V131.638H1286.1C1286.88 131.638 1287.53 131.786 1288.08 132.081C1288.62 132.373 1289.04 132.779 1289.32 133.299C1289.61 133.816 1289.75 134.413 1289.75 135.089C1289.75 135.765 1289.61 136.362 1289.32 136.879C1289.02 137.396 1288.6 137.798 1288.05 138.087C1287.5 138.375 1286.83 138.519 1286.05 138.519H1283.49V136.794H1285.7C1286.12 136.794 1286.46 136.723 1286.73 136.58C1287 136.434 1287.2 136.234 1287.33 135.979C1287.47 135.72 1287.54 135.424 1287.54 135.089C1287.54 134.751 1287.47 134.456 1287.33 134.204C1287.2 133.949 1287 133.751 1286.73 133.612C1286.45 133.47 1286.11 133.398 1285.69 133.398H1284.24V141.82H1282.09ZM1294.76 141.82H1291.15V131.638H1294.79C1295.81 131.638 1296.7 131.842 1297.44 132.25C1298.17 132.654 1298.74 133.236 1299.14 133.995C1299.54 134.754 1299.74 135.662 1299.74 136.719C1299.74 137.78 1299.54 138.692 1299.14 139.454C1298.74 140.216 1298.17 140.801 1297.43 141.209C1296.68 141.616 1295.8 141.82 1294.76 141.82ZM1293.3 139.976H1294.67C1295.31 139.976 1295.84 139.863 1296.28 139.638C1296.71 139.409 1297.04 139.056 1297.26 138.579C1297.48 138.098 1297.59 137.478 1297.59 136.719C1297.59 135.967 1297.48 135.352 1297.26 134.875C1297.04 134.398 1296.72 134.046 1296.28 133.821C1295.85 133.596 1295.31 133.483 1294.68 133.483H1293.3V139.976ZM1301.34 141.82V131.638H1308.08V133.413H1303.49V135.839H1307.63V137.614H1303.49V141.82H1301.34Z" fill="white"/>
<path d="M1269.65 134.036C1269.38 130.563 1266.46 127.82 1262.92 127.82C1259.89 127.82 1257.29 129.788 1256.45 132.659C1254.06 133.49 1252.42 135.758 1252.42 138.32C1252.42 141.629 1255.11 144.32 1258.42 144.32H1268.17C1271.07 144.32 1273.42 141.965 1273.42 139.07C1273.42 136.709 1271.87 134.681 1269.65 134.036ZM1266.45 138.101L1263.45 141.101C1263.31 141.247 1263.11 141.32 1262.92 141.32C1262.73 141.32 1262.54 141.247 1262.39 141.101L1259.39 138.101C1259.18 137.886 1259.11 137.564 1259.23 137.283C1259.35 137.003 1259.62 136.82 1259.92 136.82H1261.42V133.82C1261.42 132.992 1262.09 132.32 1262.92 132.32C1263.75 132.32 1264.42 132.992 1264.42 133.82V136.82H1265.92C1266.22 136.82 1266.5 137.003 1266.61 137.283C1266.73 137.564 1266.67 137.886 1266.45 138.101Z" fill="white"/>
<path d="M1241.54 93.2124V91.1839H1251.1V93.2124H1247.54V102.82H1245.11V93.2124H1241.54ZM1255.34 102.991C1254.44 102.991 1253.67 102.809 1253.02 102.445C1252.38 102.078 1251.88 101.559 1251.53 100.888C1251.19 100.214 1251.01 99.4169 1251.01 98.4964C1251.01 97.5987 1251.19 96.8108 1251.53 96.1328C1251.88 95.4548 1252.37 94.9264 1253.01 94.5476C1253.64 94.1688 1254.39 93.9794 1255.25 93.9794C1255.82 93.9794 1256.36 94.0722 1256.85 94.2578C1257.35 94.4396 1257.79 94.7143 1258.16 95.0817C1258.53 95.4491 1258.83 95.9112 1259.03 96.468C1259.24 97.0211 1259.35 97.6688 1259.35 98.4112V99.076H1251.98V97.576H1257.07C1257.07 97.2275 1256.99 96.9188 1256.84 96.6499C1256.69 96.3809 1256.48 96.1707 1256.21 96.0192C1255.95 95.8639 1255.64 95.7862 1255.28 95.7862C1254.92 95.7862 1254.59 95.8714 1254.31 96.0419C1254.03 96.2086 1253.81 96.4339 1253.65 96.718C1253.49 96.9983 1253.41 97.3108 1253.4 97.6555V99.0817C1253.4 99.5135 1253.48 99.8866 1253.64 100.201C1253.81 100.515 1254.03 100.758 1254.33 100.928C1254.63 101.099 1254.98 101.184 1255.38 101.184C1255.65 101.184 1255.9 101.146 1256.12 101.07C1256.34 100.995 1256.53 100.881 1256.69 100.729C1256.85 100.578 1256.97 100.392 1257.06 100.173L1259.3 100.32C1259.18 100.858 1258.95 101.328 1258.6 101.729C1258.25 102.127 1257.8 102.438 1257.25 102.661C1256.7 102.881 1256.06 102.991 1255.34 102.991ZM1260.93 102.82V94.093H1263.27V95.6158H1263.36C1263.52 95.0741 1263.79 94.665 1264.17 94.3885C1264.54 94.1082 1264.97 93.968 1265.46 93.968C1265.58 93.968 1265.71 93.9756 1265.85 93.9908C1265.99 94.0059 1266.12 94.0268 1266.22 94.0533V96.201C1266.11 96.1669 1265.95 96.1366 1265.75 96.1101C1265.55 96.0836 1265.37 96.0703 1265.2 96.0703C1264.84 96.0703 1264.53 96.148 1264.25 96.3033C1263.97 96.4548 1263.75 96.6669 1263.59 96.9396C1263.43 97.2124 1263.35 97.5268 1263.35 97.8828V102.82H1260.93ZM1267.47 102.82V94.093H1269.78V95.6328H1269.88C1270.06 95.1214 1270.37 94.718 1270.79 94.4226C1271.22 94.1271 1271.72 93.9794 1272.31 93.9794C1272.91 93.9794 1273.42 94.129 1273.84 94.4283C1274.26 94.7237 1274.54 95.1252 1274.68 95.6328H1274.77C1274.95 95.1328 1275.27 94.7332 1275.74 94.4339C1276.21 94.1309 1276.77 93.9794 1277.41 93.9794C1278.22 93.9794 1278.88 94.2389 1279.39 94.7578C1279.9 95.273 1280.16 96.004 1280.16 96.951V102.82H1277.74V97.4283C1277.74 96.9434 1277.61 96.5798 1277.35 96.3374C1277.1 96.0949 1276.77 95.9737 1276.39 95.9737C1275.95 95.9737 1275.61 96.1139 1275.36 96.3942C1275.11 96.6707 1274.99 97.0362 1274.99 97.4908V102.82H1272.64V97.3771C1272.64 96.9491 1272.52 96.6082 1272.27 96.3544C1272.03 96.1006 1271.71 95.9737 1271.31 95.9737C1271.05 95.9737 1270.8 96.0419 1270.59 96.1783C1270.38 96.3108 1270.21 96.4983 1270.08 96.7408C1269.96 96.9794 1269.89 97.2597 1269.89 97.5817V102.82H1267.47ZM1289.33 96.5817L1287.11 96.718C1287.08 96.5286 1286.99 96.3582 1286.87 96.2067C1286.74 96.0514 1286.58 95.9283 1286.37 95.8374C1286.17 95.7427 1285.93 95.6953 1285.65 95.6953C1285.28 95.6953 1284.96 95.7749 1284.7 95.9339C1284.45 96.0893 1284.32 96.2976 1284.32 96.5589C1284.32 96.7673 1284.4 96.9434 1284.57 97.0874C1284.73 97.2313 1285.02 97.3468 1285.43 97.4339L1287 97.7521C1287.85 97.9264 1288.49 98.2067 1288.9 98.593C1289.32 98.9794 1289.53 99.487 1289.53 100.116C1289.53 100.688 1289.36 101.19 1289.02 101.621C1288.69 102.053 1288.23 102.39 1287.65 102.633C1287.07 102.871 1286.4 102.991 1285.64 102.991C1284.49 102.991 1283.57 102.75 1282.88 102.269C1282.2 101.784 1281.8 101.125 1281.68 100.292L1284.06 100.167C1284.13 100.519 1284.31 100.788 1284.58 100.974C1284.86 101.156 1285.22 101.246 1285.65 101.246C1286.07 101.246 1286.41 101.165 1286.67 101.002C1286.93 100.835 1287.06 100.621 1287.07 100.36C1287.06 100.14 1286.97 99.9605 1286.79 99.8203C1286.61 99.6764 1286.33 99.5665 1285.95 99.4908L1284.44 99.1896C1283.58 99.0192 1282.95 98.7237 1282.53 98.3033C1282.12 97.8828 1281.91 97.3468 1281.91 96.6953C1281.91 96.1347 1282.07 95.6518 1282.37 95.2464C1282.68 94.8411 1283.11 94.5286 1283.66 94.3089C1284.22 94.0893 1284.87 93.9794 1285.61 93.9794C1286.72 93.9794 1287.58 94.2124 1288.22 94.6783C1288.85 95.1442 1289.22 95.7786 1289.33 96.5817ZM1305.49 97.0021C1305.49 98.2711 1305.25 99.3506 1304.77 100.241C1304.29 101.131 1303.64 101.811 1302.82 102.281C1302 102.746 1301.07 102.979 1300.04 102.979C1299.01 102.979 1298.08 102.745 1297.26 102.275C1296.44 101.805 1295.79 101.125 1295.31 100.235C1294.83 99.3449 1294.6 98.2673 1294.6 97.0021C1294.6 95.7332 1294.83 94.6536 1295.31 93.7635C1295.79 92.8733 1296.44 92.1953 1297.26 91.7294C1298.08 91.2597 1299.01 91.0249 1300.04 91.0249C1301.07 91.0249 1302 91.2597 1302.82 91.7294C1303.64 92.1953 1304.29 92.8733 1304.77 93.7635C1305.25 94.6536 1305.49 95.7332 1305.49 97.0021ZM1303 97.0021C1303 96.1802 1302.88 95.487 1302.63 94.9226C1302.39 94.3582 1302.04 93.9302 1301.6 93.6385C1301.16 93.3468 1300.64 93.201 1300.04 93.201C1299.45 93.201 1298.93 93.3468 1298.49 93.6385C1298.04 93.9302 1297.7 94.3582 1297.45 94.9226C1297.21 95.487 1297.09 96.1802 1297.09 97.0021C1297.09 97.8241 1297.21 98.5173 1297.45 99.0817C1297.7 99.6461 1298.04 100.074 1298.49 100.366C1298.93 100.657 1299.45 100.803 1300.04 100.803C1300.64 100.803 1301.16 100.657 1301.6 100.366C1302.04 100.074 1302.39 99.6461 1302.63 99.0817C1302.88 98.5173 1303 97.8241 1303 97.0021ZM1311.96 94.093V95.9112H1306.58V94.093H1311.96ZM1307.81 102.82V93.4624C1307.81 92.8298 1307.93 92.3052 1308.18 91.8885C1308.43 91.4718 1308.77 91.1593 1309.2 90.951C1309.63 90.7427 1310.12 90.6385 1310.67 90.6385C1311.05 90.6385 1311.38 90.6669 1311.69 90.7237C1312 90.7805 1312.23 90.8317 1312.38 90.8771L1311.95 92.6953C1311.86 92.665 1311.74 92.6366 1311.6 92.6101C1311.46 92.5836 1311.32 92.5703 1311.18 92.5703C1310.82 92.5703 1310.58 92.6536 1310.44 92.8203C1310.3 92.9832 1310.23 93.2124 1310.23 93.5078V102.82H1307.81ZM1323.5 94.5305C1323.46 94.0722 1323.26 93.7161 1322.92 93.4624C1322.57 93.2086 1322.11 93.0817 1321.51 93.0817C1321.11 93.0817 1320.77 93.1385 1320.5 93.2521C1320.22 93.362 1320.01 93.5154 1319.86 93.7124C1319.72 93.9093 1319.65 94.1328 1319.65 94.3828C1319.64 94.5911 1319.68 94.773 1319.78 94.9283C1319.87 95.0836 1320.01 95.218 1320.18 95.3317C1320.35 95.4415 1320.55 95.5381 1320.77 95.6214C1320.99 95.701 1321.23 95.7692 1321.49 95.826L1322.53 96.076C1323.04 96.1896 1323.51 96.3411 1323.93 96.5305C1324.35 96.7199 1324.72 96.9529 1325.03 97.2294C1325.34 97.5059 1325.58 97.8317 1325.75 98.2067C1325.93 98.5817 1326.02 99.0116 1326.02 99.4964C1326.02 100.209 1325.83 100.826 1325.48 101.349C1325.12 101.868 1324.6 102.271 1323.93 102.559C1323.26 102.843 1322.45 102.985 1321.5 102.985C1320.56 102.985 1319.75 102.841 1319.05 102.553C1318.36 102.265 1317.81 101.839 1317.42 101.275C1317.04 100.707 1316.83 100.004 1316.82 99.1669H1319.2C1319.22 99.5571 1319.33 99.8828 1319.53 100.144C1319.73 100.402 1320 100.597 1320.33 100.729C1320.67 100.858 1321.05 100.923 1321.48 100.923C1321.89 100.923 1322.25 100.862 1322.56 100.741C1322.87 100.62 1323.11 100.451 1323.28 100.235C1323.45 100.019 1323.54 99.7711 1323.54 99.4908C1323.54 99.2294 1323.46 99.0097 1323.3 98.8317C1323.15 98.6536 1322.93 98.5021 1322.63 98.3771C1322.34 98.2521 1321.98 98.1385 1321.56 98.0362L1320.29 97.718C1319.31 97.4794 1318.54 97.1063 1317.97 96.5987C1317.4 96.0911 1317.12 95.4074 1317.12 94.5476C1317.12 93.843 1317.31 93.2275 1317.69 92.701C1318.07 92.1745 1318.59 91.7635 1319.26 91.468C1319.93 91.1726 1320.68 91.0249 1321.53 91.0249C1322.4 91.0249 1323.15 91.1726 1323.79 91.468C1324.44 91.7635 1324.94 92.1745 1325.3 92.701C1325.66 93.2275 1325.85 93.8374 1325.86 94.5305H1323.5ZM1330.12 102.985C1329.56 102.985 1329.07 102.888 1328.63 102.695C1328.19 102.498 1327.85 102.209 1327.6 101.826C1327.35 101.44 1327.22 100.959 1327.22 100.383C1327.22 99.898 1327.31 99.4908 1327.49 99.1612C1327.67 98.8317 1327.91 98.5665 1328.22 98.3658C1328.52 98.165 1328.87 98.0135 1329.26 97.9112C1329.65 97.8089 1330.07 97.737 1330.5 97.6953C1331.01 97.6423 1331.42 97.593 1331.73 97.5476C1332.04 97.4983 1332.26 97.4264 1332.4 97.3317C1332.54 97.237 1332.61 97.0968 1332.61 96.9112V96.8771C1332.61 96.5173 1332.5 96.2389 1332.27 96.0419C1332.05 95.8449 1331.73 95.7464 1331.32 95.7464C1330.88 95.7464 1330.54 95.843 1330.28 96.0362C1330.02 96.2256 1329.85 96.4643 1329.77 96.7521L1327.53 96.5703C1327.64 96.04 1327.86 95.5817 1328.2 95.1953C1328.53 94.8052 1328.96 94.5059 1329.49 94.2976C1330.02 94.0855 1330.63 93.9794 1331.33 93.9794C1331.81 93.9794 1332.28 94.0362 1332.72 94.1499C1333.17 94.2635 1333.56 94.4396 1333.91 94.6783C1334.26 94.9169 1334.53 95.2237 1334.73 95.5987C1334.93 95.9699 1335.03 96.415 1335.03 96.9339V102.82H1332.74V101.61H1332.67C1332.53 101.883 1332.34 102.123 1332.11 102.332C1331.87 102.536 1331.59 102.697 1331.26 102.815C1330.93 102.928 1330.55 102.985 1330.12 102.985ZM1330.81 101.315C1331.17 101.315 1331.48 101.245 1331.75 101.104C1332.03 100.96 1332.24 100.767 1332.4 100.525C1332.55 100.282 1332.63 100.008 1332.63 99.701V98.7749C1332.55 98.8241 1332.45 98.8696 1332.32 98.9112C1332.19 98.9491 1332.04 98.9851 1331.88 99.0192C1331.72 99.0495 1331.55 99.0779 1331.39 99.1044C1331.23 99.1271 1331.08 99.148 1330.95 99.1669C1330.66 99.2086 1330.42 99.2749 1330.2 99.3658C1329.99 99.4567 1329.83 99.5798 1329.71 99.7351C1329.59 99.8866 1329.53 100.076 1329.53 100.303C1329.53 100.633 1329.65 100.885 1329.89 101.059C1330.13 101.229 1330.44 101.315 1330.81 101.315ZM1339.33 91.1839V102.82H1336.91V91.1839H1339.33ZM1345.25 102.991C1344.35 102.991 1343.58 102.809 1342.93 102.445C1342.29 102.078 1341.79 101.559 1341.44 100.888C1341.09 100.214 1340.92 99.4169 1340.92 98.4964C1340.92 97.5987 1341.09 96.8108 1341.44 96.1328C1341.79 95.4548 1342.28 94.9264 1342.91 94.5476C1343.55 94.1688 1344.3 93.9794 1345.15 93.9794C1345.73 93.9794 1346.26 94.0722 1346.76 94.2578C1347.26 94.4396 1347.69 94.7143 1348.07 95.0817C1348.44 95.4491 1348.73 95.9112 1348.94 96.468C1349.15 97.0211 1349.25 97.6688 1349.25 98.4112V99.076H1341.88V97.576H1346.98C1346.98 97.2275 1346.9 96.9188 1346.75 96.6499C1346.6 96.3809 1346.39 96.1707 1346.12 96.0192C1345.85 95.8639 1345.54 95.7862 1345.19 95.7862C1344.82 95.7862 1344.5 95.8714 1344.21 96.0419C1343.93 96.2086 1343.71 96.4339 1343.55 96.718C1343.4 96.9983 1343.31 97.3108 1343.31 97.6555V99.0817C1343.31 99.5135 1343.39 99.8866 1343.55 100.201C1343.71 100.515 1343.94 100.758 1344.24 100.928C1344.53 101.099 1344.88 101.184 1345.29 101.184C1345.56 101.184 1345.8 101.146 1346.03 101.07C1346.25 100.995 1346.44 100.881 1346.6 100.729C1346.76 100.578 1346.88 100.392 1346.96 100.173L1349.2 100.32C1349.09 100.858 1348.86 101.328 1348.5 101.729C1348.16 102.127 1347.7 102.438 1347.15 102.661C1346.6 102.881 1345.97 102.991 1345.25 102.991Z" fill="white"/>
<rect x="1080.92" y="2.82031" width="140" height="180" rx="10" fill="url(#paint11_linear_1364_7093)"/>
<mask id="mask3_1364_7093" style="mask-type:alpha" maskUnits="userSpaceOnUse" x="1080" y="2" width="141" height="181">
<rect x="1080.92" y="2.82031" width="140" height="180" rx="10" fill="url(#paint12_linear_1364_7093)"/>
<rect x="1080.92" y="2.82031" width="140" height="180" rx="10" fill="black" fill-opacity="0.2"/>
</mask>
<g mask="url(#mask3_1364_7093)">
<path opacity="0.2" d="M1160.02 158.158C1163.19 146.089 1154.88 133.994 1141.45 131.144C1128.02 128.294 1114.56 135.768 1111.39 147.838C1108.22 159.907 1116.54 172.002 1129.96 174.852C1143.39 177.702 1156.85 170.228 1160.02 158.158Z" stroke="white" stroke-miterlimit="10" stroke-dasharray="5 5"/>
<path d="M1116.39 65.2124V63.1839H1125.95V65.2124H1122.38V74.8203H1119.95V65.2124H1116.39ZM1127.52 74.8203V63.1839H1135.36V65.2124H1129.98V67.9851H1134.96V70.0135H1129.98V72.7919H1135.38V74.8203H1127.52ZM1137.32 74.8203V63.1839H1141.91C1142.79 63.1839 1143.54 63.3411 1144.16 63.6555C1144.78 63.9661 1145.26 64.4074 1145.58 64.9794C1145.91 65.5476 1146.08 66.2161 1146.08 66.9851C1146.08 67.7578 1145.91 68.4226 1145.58 68.9794C1145.24 69.5324 1144.76 69.9567 1144.13 70.2521C1143.5 70.5476 1142.74 70.6953 1141.84 70.6953H1138.77V68.718H1141.45C1141.92 68.718 1142.31 68.6536 1142.62 68.5249C1142.93 68.3961 1143.16 68.2029 1143.31 67.9453C1143.47 67.6877 1143.54 67.3677 1143.54 66.9851C1143.54 66.5987 1143.47 66.273 1143.31 66.0078C1143.16 65.7427 1142.93 65.5419 1142.61 65.4055C1142.3 65.2654 1141.91 65.1953 1141.44 65.1953H1139.78V74.8203H1137.32ZM1143.6 69.5249L1146.49 74.8203H1143.78L1140.95 69.5249H1143.6ZM1147.82 63.1839H1150.85L1154.05 71.0021H1154.19L1157.4 63.1839H1160.43V74.8203H1158.04V67.2464H1157.95L1154.94 74.7635H1153.31L1150.3 67.218H1150.2V74.8203H1147.82V63.1839ZM1176.85 69.0021C1176.85 70.2711 1176.61 71.3506 1176.13 72.2408C1175.65 73.1309 1175 73.8108 1174.18 74.2805C1173.35 74.7464 1172.43 74.9794 1171.4 74.9794C1170.37 74.9794 1169.44 74.7446 1168.62 74.2749C1167.8 73.8052 1167.15 73.1252 1166.67 72.2351C1166.19 71.3449 1165.96 70.2673 1165.96 69.0021C1165.96 67.7332 1166.19 66.6536 1166.67 65.7635C1167.15 64.8733 1167.8 64.1953 1168.62 63.7294C1169.44 63.2597 1170.37 63.0249 1171.4 63.0249C1172.43 63.0249 1173.35 63.2597 1174.18 63.7294C1175 64.1953 1175.65 64.8733 1176.13 65.7635C1176.61 66.6536 1176.85 67.7332 1176.85 69.0021ZM1174.36 69.0021C1174.36 68.1802 1174.24 67.487 1173.99 66.9226C1173.75 66.3582 1173.4 65.9302 1172.96 65.6385C1172.52 65.3468 1172 65.201 1171.4 65.201C1170.81 65.201 1170.29 65.3468 1169.85 65.6385C1169.4 65.9302 1169.06 66.3582 1168.81 66.9226C1168.57 67.487 1168.45 68.1802 1168.45 69.0021C1168.45 69.8241 1168.57 70.5173 1168.81 71.0817C1169.06 71.6461 1169.4 72.0741 1169.85 72.3658C1170.29 72.6574 1170.81 72.8033 1171.4 72.8033C1172 72.8033 1172.52 72.6574 1172.96 72.3658C1173.4 72.0741 1173.75 71.6461 1173.99 71.0817C1174.24 70.5173 1174.36 69.8241 1174.36 69.0021ZM1178.68 74.8203V63.1839H1186.38V65.2124H1181.14V67.9851H1185.87V70.0135H1181.14V74.8203H1178.68ZM1114.68 91.2578H1112.19C1112.14 90.9358 1112.05 90.6499 1111.91 90.3999C1111.77 90.1461 1111.59 89.9302 1111.37 89.7521C1111.15 89.5741 1110.9 89.4377 1110.61 89.343C1110.32 89.2483 1110.02 89.201 1109.68 89.201C1109.08 89.201 1108.56 89.3506 1108.11 89.6499C1107.66 89.9453 1107.32 90.3771 1107.07 90.9453C1106.82 91.5097 1106.7 92.1953 1106.7 93.0021C1106.7 93.8317 1106.82 94.5286 1107.07 95.093C1107.32 95.6574 1107.67 96.0836 1108.11 96.3714C1108.56 96.6593 1109.08 96.8033 1109.67 96.8033C1110 96.8033 1110.3 96.7597 1110.58 96.6726C1110.86 96.5855 1111.12 96.4586 1111.34 96.2919C1111.56 96.1214 1111.74 95.915 1111.88 95.6726C1112.03 95.4302 1112.13 95.1536 1112.19 94.843L1114.68 94.8544C1114.61 95.3885 1114.45 95.9036 1114.19 96.3999C1113.94 96.8923 1113.6 97.3336 1113.17 97.7237C1112.74 98.1101 1112.23 98.4169 1111.63 98.6442C1111.04 98.8677 1110.37 98.9794 1109.63 98.9794C1108.59 98.9794 1107.66 98.7446 1106.84 98.2749C1106.03 97.8052 1105.38 97.1252 1104.91 96.2351C1104.44 95.3449 1104.21 94.2673 1104.21 93.0021C1104.21 91.7332 1104.44 90.6536 1104.92 89.7635C1105.4 88.8733 1106.05 88.1953 1106.86 87.7294C1107.68 87.2597 1108.6 87.0249 1109.63 87.0249C1110.3 87.0249 1110.92 87.1196 1111.5 87.3089C1112.08 87.4983 1112.59 87.7749 1113.04 88.1385C1113.49 88.4983 1113.85 88.9396 1114.13 89.4624C1114.42 89.9851 1114.6 90.5836 1114.68 91.2578ZM1127.13 93.0021C1127.13 94.2711 1126.89 95.3506 1126.41 96.2408C1125.94 97.1309 1125.28 97.8108 1124.46 98.2805C1123.64 98.7464 1122.71 98.9794 1121.69 98.9794C1120.65 98.9794 1119.72 98.7446 1118.9 98.2749C1118.08 97.8052 1117.43 97.1252 1116.95 96.2351C1116.48 95.3449 1116.24 94.2673 1116.24 93.0021C1116.24 91.7332 1116.48 90.6536 1116.95 89.7635C1117.43 88.8733 1118.08 88.1953 1118.9 87.7294C1119.72 87.2597 1120.65 87.0249 1121.69 87.0249C1122.71 87.0249 1123.64 87.2597 1124.46 87.7294C1125.28 88.1953 1125.94 88.8733 1126.41 89.7635C1126.89 90.6536 1127.13 91.7332 1127.13 93.0021ZM1124.64 93.0021C1124.64 92.1802 1124.52 91.487 1124.27 90.9226C1124.03 90.3582 1123.69 89.9302 1123.24 89.6385C1122.8 89.3468 1122.28 89.201 1121.69 89.201C1121.09 89.201 1120.57 89.3468 1120.13 89.6385C1119.69 89.9302 1119.34 90.3582 1119.09 90.9226C1118.85 91.487 1118.73 92.1802 1118.73 93.0021C1118.73 93.8241 1118.85 94.5173 1119.09 95.0817C1119.34 95.6461 1119.69 96.0741 1120.13 96.3658C1120.57 96.6574 1121.09 96.8033 1121.69 96.8033C1122.28 96.8033 1122.8 96.6574 1123.24 96.3658C1123.69 96.0741 1124.03 95.6461 1124.27 95.0817C1124.52 94.5173 1124.64 93.8241 1124.64 93.0021ZM1131.42 87.1839V98.8203H1128.96V87.1839H1131.42ZM1143.17 87.1839V98.8203H1141.05L1135.99 91.4964H1135.9V98.8203H1133.44V87.1839H1135.6L1140.62 94.5021H1140.73V87.1839H1143.17ZM1155.22 90.5305C1155.18 90.0722 1154.98 89.7161 1154.64 89.4624C1154.29 89.2086 1153.82 89.0817 1153.23 89.0817C1152.83 89.0817 1152.49 89.1385 1152.22 89.2521C1151.94 89.362 1151.73 89.5154 1151.58 89.7124C1151.44 89.9093 1151.36 90.1328 1151.36 90.3828C1151.36 90.5911 1151.4 90.773 1151.5 90.9283C1151.59 91.0836 1151.73 91.218 1151.9 91.3317C1152.07 91.4415 1152.27 91.5381 1152.49 91.6214C1152.71 91.701 1152.95 91.7692 1153.21 91.826L1154.25 92.076C1154.76 92.1896 1155.22 92.3411 1155.65 92.5305C1156.07 92.7199 1156.44 92.9529 1156.75 93.2294C1157.06 93.5059 1157.3 93.8317 1157.47 94.2067C1157.65 94.5817 1157.74 95.0116 1157.74 95.4964C1157.74 96.2086 1157.55 96.826 1157.19 97.3487C1156.84 97.8677 1156.32 98.2711 1155.65 98.5589C1154.98 98.843 1154.17 98.9851 1153.22 98.9851C1152.28 98.9851 1151.46 98.8411 1150.77 98.5533C1150.07 98.2654 1149.53 97.8393 1149.14 97.2749C1148.76 96.7067 1148.55 96.004 1148.53 95.1669H1150.92C1150.94 95.5571 1151.05 95.8828 1151.25 96.1442C1151.45 96.4018 1151.72 96.5968 1152.05 96.7294C1152.39 96.8582 1152.77 96.9226 1153.19 96.9226C1153.61 96.9226 1153.97 96.862 1154.28 96.7408C1154.59 96.6196 1154.83 96.451 1155 96.2351C1155.17 96.0192 1155.26 95.7711 1155.26 95.4908C1155.26 95.2294 1155.18 95.0097 1155.02 94.8317C1154.87 94.6536 1154.65 94.5021 1154.35 94.3771C1154.06 94.2521 1153.7 94.1385 1153.28 94.0362L1152.01 93.718C1151.03 93.4794 1150.26 93.1063 1149.69 92.5987C1149.12 92.0911 1148.84 91.4074 1148.84 90.5476C1148.84 89.843 1149.03 89.2275 1149.4 88.701C1149.79 88.1745 1150.31 87.7635 1150.98 87.468C1151.64 87.1726 1152.4 87.0249 1153.25 87.0249C1154.11 87.0249 1154.87 87.1726 1155.51 87.468C1156.16 87.7635 1156.66 88.1745 1157.02 88.701C1157.38 89.2275 1157.57 89.8374 1157.58 90.5305H1155.22ZM1161.13 98.8203H1158.5L1162.51 87.1839H1165.69L1169.7 98.8203H1167.06L1164.15 89.843H1164.05L1161.13 98.8203ZM1160.97 94.2464H1167.2V96.1669H1160.97V94.2464ZM1171.1 98.8203V87.1839H1173.56V96.7919H1178.55V98.8203H1171.1ZM1180.18 98.8203V87.1839H1188.02V89.2124H1182.64V91.9851H1187.61V94.0135H1182.64V96.7919H1188.04V98.8203H1180.18ZM1196.28 90.5305C1196.24 90.0722 1196.04 89.7161 1195.7 89.4624C1195.35 89.2086 1194.89 89.0817 1194.3 89.0817C1193.89 89.0817 1193.56 89.1385 1193.28 89.2521C1193 89.362 1192.79 89.5154 1192.64 89.7124C1192.5 89.9093 1192.43 90.1328 1192.43 90.3828C1192.42 90.5911 1192.46 90.773 1192.56 90.9283C1192.66 91.0836 1192.79 91.218 1192.96 91.3317C1193.13 91.4415 1193.33 91.5381 1193.55 91.6214C1193.78 91.701 1194.01 91.7692 1194.27 91.826L1195.31 92.076C1195.82 92.1896 1196.29 92.3411 1196.71 92.5305C1197.14 92.7199 1197.5 92.9529 1197.81 93.2294C1198.12 93.5059 1198.36 93.8317 1198.53 94.2067C1198.71 94.5817 1198.8 95.0116 1198.8 95.4964C1198.8 96.2086 1198.62 96.826 1198.26 97.3487C1197.9 97.8677 1197.39 98.2711 1196.71 98.5589C1196.04 98.843 1195.23 98.9851 1194.28 98.9851C1193.35 98.9851 1192.53 98.8411 1191.83 98.5533C1191.14 98.2654 1190.6 97.8393 1190.21 97.2749C1189.82 96.7067 1189.62 96.004 1189.6 95.1669H1191.98C1192 95.5571 1192.12 95.8828 1192.31 96.1442C1192.51 96.4018 1192.78 96.5968 1193.11 96.7294C1193.45 96.8582 1193.83 96.9226 1194.26 96.9226C1194.67 96.9226 1195.03 96.862 1195.34 96.7408C1195.65 96.6196 1195.89 96.451 1196.06 96.2351C1196.23 96.0192 1196.32 95.7711 1196.32 95.4908C1196.32 95.2294 1196.24 95.0097 1196.09 94.8317C1195.93 94.6536 1195.71 94.5021 1195.42 94.3771C1195.12 94.2521 1194.77 94.1385 1194.34 94.0362L1193.07 93.718C1192.09 93.4794 1191.32 93.1063 1190.75 92.5987C1190.18 92.0911 1189.9 91.4074 1189.9 90.5476C1189.9 89.843 1190.09 89.2275 1190.47 88.701C1190.85 88.1745 1191.37 87.7635 1192.04 87.468C1192.71 87.1726 1193.46 87.0249 1194.31 87.0249C1195.18 87.0249 1195.93 87.1726 1196.57 87.468C1197.22 87.7635 1197.73 88.1745 1198.09 88.701C1198.45 89.2275 1198.63 89.8374 1198.64 90.5305H1196.28Z" fill="white"/>
<path opacity="0.3" d="M1087.15 123.329C1086.15 123.329 1085.34 122.602 1085.34 121.697C1085.34 120.8 1086.15 120.064 1087.15 120.064C1088.15 120.064 1088.97 120.792 1088.97 121.697C1088.97 122.602 1088.15 123.329 1087.15 123.329Z" fill="white"/>
<path opacity="0.5" d="M1118.82 56.6367C1110.52 56.6367 1103.77 50.567 1103.77 43.1055C1103.77 35.6439 1110.52 29.5742 1118.82 29.5742C1127.12 29.5742 1133.88 35.6439 1133.88 43.1055C1133.89 50.5599 1127.12 56.6367 1118.82 56.6367ZM1118.82 31.002C1111.4 31.002 1105.36 36.4259 1105.36 43.0983C1105.36 49.7707 1111.4 55.1946 1118.82 55.1946C1126.25 55.1946 1132.28 49.7707 1132.28 43.0983C1132.29 36.4331 1126.25 31.002 1118.82 31.002Z" fill="white"/>
<path opacity="0.2" d="M1121.98 113.455L1103.77 87.3802L1132.78 71.0137L1142.07 84.3118L1127.85 92.3313L1136.78 105.108L1121.98 113.455ZM1104.71 87.5745L1122.2 112.605L1135.83 104.913L1126.91 92.137L1141.12 84.1175L1132.57 71.863L1104.71 87.5745Z" fill="white"/>
</g>
<defs>
<linearGradient id="paint0_linear_1364_7093" x1="153" y1="0" x2="153" y2="139" gradientUnits="userSpaceOnUse">
<stop stop-color="#1A0F6A"/>
<stop offset="1" stop-color="#BE19B8"/>
</linearGradient>
<linearGradient id="paint1_linear_1364_7093" x1="0.921875" y1="1.98698" x2="125.253" y2="192.227" gradientUnits="userSpaceOnUse">
<stop stop-color="#0652C5"/>
<stop offset="1" stop-color="#D4418E"/>
</linearGradient>
<linearGradient id="paint2_linear_1364_7093" x1="0.921875" y1="1.98698" x2="125.253" y2="192.227" gradientUnits="userSpaceOnUse">
<stop stop-color="#0652C5"/>
<stop offset="1" stop-color="#D4418E"/>
</linearGradient>
<linearGradient id="paint3_linear_1364_7093" x1="153" y1="0" x2="153" y2="139" gradientUnits="userSpaceOnUse">
<stop stop-color="#1A0F6A"/>
<stop offset="1" stop-color="#BE19B8"/>
</linearGradient>
<linearGradient id="paint4_linear_1364_7093" x1="360.922" y1="1.98698" x2="485.253" y2="192.227" gradientUnits="userSpaceOnUse">
<stop stop-color="#CB218E"/>
<stop offset="1" stop-color="#6617CB"/>
</linearGradient>
<linearGradient id="paint5_linear_1364_7093" x1="360.922" y1="1.98698" x2="485.253" y2="192.227" gradientUnits="userSpaceOnUse">
<stop stop-color="#D65BCA"/>
<stop offset="1" stop-color="#21D190"/>
</linearGradient>
<linearGradient id="paint6_linear_1364_7093" x1="153" y1="0" x2="153" y2="139" gradientUnits="userSpaceOnUse">
<stop stop-color="#1A0F6A"/>
<stop offset="1" stop-color="#BE19B8"/>
</linearGradient>
<linearGradient id="paint7_linear_1364_7093" x1="720.922" y1="1.98698" x2="845.253" y2="192.227" gradientUnits="userSpaceOnUse">
<stop stop-color="#EE696B"/>
<stop offset="1" stop-color="#523A78"/>
</linearGradient>
<linearGradient id="paint8_linear_1364_7093" x1="720.922" y1="1.98698" x2="845.253" y2="192.227" gradientUnits="userSpaceOnUse">
<stop stop-color="#05D6D9"/>
<stop offset="1" stop-color="#F907FC"/>
</linearGradient>
<linearGradient id="paint9_linear_1364_7093" x1="1257.92" y1="44.8203" x2="1257.92" y2="183.82" gradientUnits="userSpaceOnUse">
<stop stop-color="#1A0F6A"/>
<stop offset="1" stop-color="#1A0F6A"/>
</linearGradient>
<linearGradient id="paint10_linear_1364_7093" x1="153" y1="0" x2="153" y2="139" gradientUnits="userSpaceOnUse">
<stop stop-color="#1A0F6A"/>
<stop offset="1" stop-color="#BE19B8"/>
</linearGradient>
<linearGradient id="paint11_linear_1364_7093" x1="1080.92" y1="1.98698" x2="1205.25" y2="192.227" gradientUnits="userSpaceOnUse">
<stop stop-color="#37D5D6"/>
<stop offset="1" stop-color="#36096D"/>
</linearGradient>
<linearGradient id="paint12_linear_1364_7093" x1="1080.92" y1="1.98698" x2="1205.25" y2="192.227" gradientUnits="userSpaceOnUse">
<stop stop-color="#0652C5"/>
<stop offset="1" stop-color="#D4418E"/>
</linearGradient>
</defs>
</svg>
