<svg width="59" height="72" viewBox="0 0 59 72" fill="none" xmlns="http://www.w3.org/2000/svg">
<path d="M32.252 43.3333C32.252 41.9526 31.1327 40.8333 29.752 40.8333C28.3713 40.8333 27.252 41.9526 27.252 43.3333H32.252ZM27.252 54.3333C27.252 55.714 28.3713 56.8333 29.752 56.8333C31.1327 56.8333 32.252 55.714 32.252 54.3333H27.252ZM25.9381 5.5H33.5659V0.5H25.9381V5.5ZM42.5077 14V25H47.5077V14H42.5077ZM45.0077 22.5H14.4964V27.5H45.0077V22.5ZM16.9964 25V14H11.9964V25H16.9964ZM53.9494 36V58H58.9494V36H53.9494ZM45.0077 66.5H14.4964V71.5H45.0077V66.5ZM5.55469 58V36H0.554688V58H5.55469ZM14.4964 66.5C9.46435 66.5 5.55469 62.6026 5.55469 58H0.554688C0.554688 65.5477 6.89029 71.5 14.4964 71.5V66.5ZM53.9494 58C53.9494 62.6026 50.0397 66.5 45.0077 66.5V71.5C52.6138 71.5 58.9494 65.5477 58.9494 58H53.9494ZM45.0077 27.5C50.0397 27.5 53.9494 31.3974 53.9494 36H58.9494C58.9494 28.4523 52.6138 22.5 45.0077 22.5V27.5ZM14.4964 22.5C6.89029 22.5 0.554688 28.4523 0.554688 36H5.55469C5.55469 31.3974 9.46435 27.5 14.4964 27.5V22.5ZM31.0659 43.3333C31.0659 43.8858 30.5714 44.5 29.752 44.5V49.5C33.1454 49.5 36.0659 46.8309 36.0659 43.3333H31.0659ZM29.752 44.5C28.9327 44.5 28.4381 43.8858 28.4381 43.3333H23.4381C23.4381 46.8309 26.3586 49.5 29.752 49.5V44.5ZM28.4381 43.3333C28.4381 42.7809 28.9327 42.1667 29.752 42.1667V37.1667C26.3586 37.1667 23.4381 39.8357 23.4381 43.3333H28.4381ZM29.752 42.1667C30.5714 42.1667 31.0659 42.7809 31.0659 43.3333H36.0659C36.0659 39.8357 33.1454 37.1667 29.752 37.1667V42.1667ZM27.252 43.3333V54.3333H32.252V43.3333H27.252ZM33.5659 5.5C38.598 5.5 42.5077 9.39744 42.5077 14H47.5077C47.5077 6.4523 41.1721 0.5 33.5659 0.5V5.5ZM25.9381 0.5C18.332 0.5 11.9964 6.4523 11.9964 14H16.9964C16.9964 9.39744 20.9061 5.5 25.9381 5.5V0.5Z" fill="#DFD7D7"/>
</svg>
