<svg width="157" height="109" viewBox="0 0 157 109" fill="none" xmlns="http://www.w3.org/2000/svg">
<rect x="2.62029" y="1.72966" width="151.664" height="105.215" rx="2.27034" fill="white" stroke="#F3F3F3" stroke-width="3.45932"/>
<path d="M92.6532 78.7253H64.9688V28.5605H92.6532V78.7253Z" fill="#FF5F00"/>
<path d="M66.7484 53.6374C66.7484 43.4612 71.474 34.3966 78.8328 28.555C73.4515 24.2833 66.6599 21.7337 59.2789 21.7337C41.8051 21.7337 27.6406 36.0172 27.6406 53.6374C27.6406 71.2575 41.8051 85.541 59.2789 85.541C66.6599 85.541 73.4515 82.9914 78.8328 78.7197C71.474 72.8781 66.7484 63.8135 66.7484 53.6374" fill="#EB001B"/>
<path d="M129.991 53.6374C129.991 71.2575 115.827 85.541 98.3528 85.541C90.9718 85.541 84.1802 82.9914 78.7969 78.7197C86.1578 72.8781 90.8833 63.8135 90.8833 53.6374C90.8833 43.4612 86.1578 34.3966 78.7969 28.555C84.1802 24.2833 90.9718 21.7337 98.3528 21.7337C115.827 21.7337 129.991 36.0172 129.991 53.6374" fill="#F79E1B"/>
</svg>
