<svg width="25" height="25" viewBox="0 0 25 25" fill="none" xmlns="http://www.w3.org/2000/svg">
<path fill-rule="evenodd" clip-rule="evenodd" d="M12.2031 4.8457C10.2509 4.8457 8.45129 5.00671 7.00683 5.19748C5.70685 5.36917 4.72659 6.34943 4.5549 7.64941C4.36413 9.09387 4.20312 10.8935 4.20312 12.8457C4.20312 14.7979 4.36413 16.5975 4.5549 18.042C4.72659 19.342 5.70685 20.3222 7.00683 20.4939C8.45129 20.6847 10.2509 20.8457 12.2031 20.8457C14.1554 20.8457 15.955 20.6847 17.3994 20.4939C18.6994 20.3222 19.6797 19.342 19.8514 18.042C20.0421 16.5975 20.2031 14.7979 20.2031 12.8457C20.2031 10.8935 20.0421 9.09387 19.8514 7.64941C19.6797 6.34943 18.6994 5.36917 17.3994 5.19748C15.955 5.00671 14.1554 4.8457 12.2031 4.8457ZM6.74496 3.2147C4.54817 3.50483 2.86225 5.19075 2.57212 7.38754C2.37266 8.89779 2.20312 10.787 2.20312 12.8457C2.20312 14.9044 2.37266 16.7936 2.57212 18.3039C2.86225 20.5007 4.54817 22.1866 6.74496 22.4767C8.25521 22.6762 10.1444 22.8457 12.2031 22.8457C14.2619 22.8457 16.151 22.6762 17.6613 22.4767C19.8581 22.1866 21.544 20.5007 21.8341 18.3039C22.0336 16.7936 22.2031 14.9044 22.2031 12.8457C22.2031 10.787 22.0336 8.89779 21.8341 7.38754C21.544 5.19075 19.8581 3.50483 17.6613 3.2147C16.151 3.01524 14.2619 2.8457 12.2031 2.8457C10.1444 2.8457 8.25521 3.01524 6.74496 3.2147Z" fill="#B1B5C4"/>
<path fill-rule="evenodd" clip-rule="evenodd" d="M12.2031 17.8457C12.7554 17.8457 13.2031 17.398 13.2031 16.8457V13.8457H16.2031C16.7554 13.8457 17.2031 13.398 17.2031 12.8457C17.2031 12.2934 16.7554 11.8457 16.2031 11.8457H13.2031V8.8457C13.2031 8.29342 12.7554 7.8457 12.2031 7.8457C11.6508 7.8457 11.2031 8.29342 11.2031 8.8457V11.8457H8.20312C7.65084 11.8457 7.20312 12.2934 7.20312 12.8457C7.20312 13.398 7.65084 13.8457 8.20312 13.8457H11.2031V16.8457C11.2031 17.398 11.6508 17.8457 12.2031 17.8457Z" fill="#B1B5C4"/>
</svg>
