<svg width="1622" height="79" viewBox="0 0 1622 79" fill="none" xmlns="http://www.w3.org/2000/svg">
<g filter="url(#filter0_ii_1480_7372)">
<path d="M-98 0.89858C-98 0.89858 32.6444 48.1029 118.794 48.1029C204.943 48.1029 249.438 0.89858 335.588 0.89858C421.737 0.89858 466.232 47.9233 552.381 48.1029C639.364 48.2843 684.364 0.532349 771.345 0.89858C856.661 1.2578 900.653 47.9216 985.969 48.1029C1072.12 48.286 1116.61 0.89858 1202.76 0.89858C1288.91 0.89858 1333.41 48.1029 1419.56 48.1029C1505.71 48.1029 1636.35 0.89858 1636.35 0.89858V31.029C1636.35 31.029 1505.71 78.2334 1419.56 78.2334C1333.41 78.2334 1288.91 31.029 1202.76 31.029C1116.61 31.029 1072.12 78.4165 985.969 78.2334C900.653 78.052 856.661 31.3882 771.345 31.029C684.364 30.6628 639.364 78.4147 552.381 78.2334C466.232 78.0538 421.737 31.029 335.588 31.029C249.438 31.029 204.943 78.2334 118.794 78.2334C32.6444 78.2334 -98 31.029 -98 31.029V0.89858Z" fill="#192120"/>
</g>
<g filter="url(#filter1_ii_1480_7372)">
<path d="M-98 0.89858V31.028C-98 31.028 32.7121 78.2308 118.906 78.2308C205.1 78.2308 249.618 31.028 335.812 31.028C422.006 31.028 466.525 78.0512 552.719 78.2308C639.746 78.4121 684.769 30.6618 771.796 31.028V0.89858C684.769 0.532361 639.746 48.2827 552.719 48.1013C466.525 47.9217 422.006 0.89858 335.812 0.89858C249.618 0.89858 205.1 48.1013 118.906 48.1013C32.7121 48.1013 -98 0.89858 -98 0.89858Z" fill="#19D184"/>
</g>
<defs>
<filter id="filter0_ii_1480_7372" x="-98" y="0.896484" width="1737.35" height="94.3379" filterUnits="userSpaceOnUse" color-interpolation-filters="sRGB">
<feFlood flood-opacity="0" result="BackgroundImageFix"/>
<feBlend mode="normal" in="SourceGraphic" in2="BackgroundImageFix" result="shape"/>
<feColorMatrix in="SourceAlpha" type="matrix" values="0 0 0 0 0 0 0 0 0 0 0 0 0 0 0 0 0 0 127 0" result="hardAlpha"/>
<feOffset/>
<feGaussianBlur stdDeviation="2.5"/>
<feComposite in2="hardAlpha" operator="arithmetic" k2="-1" k3="1"/>
<feColorMatrix type="matrix" values="0 0 0 0 1 0 0 0 0 1 0 0 0 0 1 0 0 0 0.1 0"/>
<feBlend mode="normal" in2="shape" result="effect1_innerShadow_1480_7372"/>
<feColorMatrix in="SourceAlpha" type="matrix" values="0 0 0 0 0 0 0 0 0 0 0 0 0 0 0 0 0 0 127 0" result="hardAlpha"/>
<feOffset dx="3" dy="17"/>
<feGaussianBlur stdDeviation="18.5"/>
<feComposite in2="hardAlpha" operator="arithmetic" k2="-1" k3="1"/>
<feColorMatrix type="matrix" values="0 0 0 0 0.0125 0 0 0 0 0.0125 0 0 0 0 0.0125 0 0 0 0.6 0"/>
<feBlend mode="normal" in2="effect1_innerShadow_1480_7372" result="effect2_innerShadow_1480_7372"/>
</filter>
<filter id="filter1_ii_1480_7372" x="-98" y="0.896484" width="872.797" height="94.334" filterUnits="userSpaceOnUse" color-interpolation-filters="sRGB">
<feFlood flood-opacity="0" result="BackgroundImageFix"/>
<feBlend mode="normal" in="SourceGraphic" in2="BackgroundImageFix" result="shape"/>
<feColorMatrix in="SourceAlpha" type="matrix" values="0 0 0 0 0 0 0 0 0 0 0 0 0 0 0 0 0 0 127 0" result="hardAlpha"/>
<feOffset/>
<feGaussianBlur stdDeviation="2.5"/>
<feComposite in2="hardAlpha" operator="arithmetic" k2="-1" k3="1"/>
<feColorMatrix type="matrix" values="0 0 0 0 1 0 0 0 0 1 0 0 0 0 1 0 0 0 0.1 0"/>
<feBlend mode="normal" in2="shape" result="effect1_innerShadow_1480_7372"/>
<feColorMatrix in="SourceAlpha" type="matrix" values="0 0 0 0 0 0 0 0 0 0 0 0 0 0 0 0 0 0 127 0" result="hardAlpha"/>
<feOffset dx="3" dy="17"/>
<feGaussianBlur stdDeviation="18.5"/>
<feComposite in2="hardAlpha" operator="arithmetic" k2="-1" k3="1"/>
<feColorMatrix type="matrix" values="0 0 0 0 0.0125 0 0 0 0 0.0125 0 0 0 0 0.0125 0 0 0 0.6 0"/>
<feBlend mode="normal" in2="effect1_innerShadow_1480_7372" result="effect2_innerShadow_1480_7372"/>
</filter>
</defs>
</svg>
