<svg width="40" height="41" viewBox="0 0 40 41" fill="none" xmlns="http://www.w3.org/2000/svg">
<path fill-rule="evenodd" clip-rule="evenodd" d="M22.0909 15.6109C22.4968 15.2363 23.1294 15.2616 23.504 15.6674L26.7348 19.1674C27.0884 19.5504 27.0884 20.1409 26.7348 20.5239L23.504 24.024C23.1294 24.4298 22.4968 24.4551 22.091 24.0805C21.6851 23.7059 21.6598 23.0733 22.0344 22.6674L23.716 20.8457L14 20.8457C13.4477 20.8457 13 20.398 13 19.8457C13 19.2934 13.4477 18.8457 14 18.8457L23.716 18.8457L22.0344 17.024C21.6598 16.6182 21.6851 15.9855 22.0909 15.6109Z" fill="#777E91"/>
<rect x="1" y="1.3457" width="38" height="38" rx="19" stroke="#E6E8EC" stroke-width="2"/>
</svg>
