<svg width="23" height="26" viewBox="0 0 23 26" fill="none" xmlns="http://www.w3.org/2000/svg">
<path fill-rule="evenodd" clip-rule="evenodd" d="M1.04688 3.67564C1.04688 2.52614 1.85927 1.70117 2.73735 1.70117C3.61543 1.70117 4.42783 2.52614 4.42783 3.67564C4.42783 4.82513 3.61543 5.6501 2.73735 5.6501C1.85927 5.6501 1.04688 4.82513 1.04688 3.67564ZM2.73735 0.701172C1.1959 0.701172 0.046875 2.09192 0.046875 3.67564C0.046875 5.25935 1.1959 6.6501 2.73735 6.6501C4.27881 6.6501 5.42783 5.25935 5.42783 3.67564C5.42783 2.09192 4.27881 0.701172 2.73735 0.701172ZM15.8802 9.12456C14.291 9.12456 12.7525 9.8372 11.6079 11.1302C10.4615 12.4253 9.80878 14.1934 9.80878 16.048V24.2086H13.1897V16.048C13.1897 15.2774 13.4601 14.528 13.9569 13.9668C14.4555 13.4037 15.1456 13.0735 15.8802 13.0735C16.6148 13.0735 17.305 13.4037 17.8035 13.9668C18.3003 14.528 18.5707 15.2774 18.5707 16.048V24.2086H21.9516V16.048C21.9516 14.1934 21.2989 12.4253 20.1525 11.1302C19.0079 9.8372 17.4694 9.12456 15.8802 9.12456ZM15.8802 8.12456C13.9837 8.12456 12.1792 8.97614 10.8591 10.4674C9.54075 11.9567 8.80878 13.9649 8.80878 16.048V24.7086C8.80878 24.9847 9.03264 25.2086 9.30878 25.2086H13.6897C13.9659 25.2086 14.1897 24.9847 14.1897 24.7086V16.048C14.1897 15.5059 14.3809 14.9966 14.7057 14.6297C15.0287 14.2647 15.4529 14.0735 15.8802 14.0735C16.3075 14.0735 16.7317 14.2647 17.0547 14.6297C17.3795 14.9966 17.5707 15.5059 17.5707 16.048V24.7086C17.5707 24.9847 17.7945 25.2086 18.0707 25.2086H22.4516C22.7278 25.2086 22.9516 24.9847 22.9516 24.7086V16.048C22.9516 13.9649 22.2197 11.9567 20.9013 10.4674C19.5812 8.97614 17.7767 8.12456 15.8802 8.12456ZM0.046875 9.8618C0.046875 9.58565 0.270733 9.3618 0.546875 9.3618H4.92783C5.20397 9.3618 5.42783 9.58565 5.42783 9.8618V24.7086C5.42783 24.9847 5.20397 25.2086 4.92783 25.2086H0.546875C0.270733 25.2086 0.046875 24.9847 0.046875 24.7086V9.8618ZM1.04688 10.3618V24.2086H4.42783V10.3618H1.04688Z" fill="white"/>
</svg>
