<svg width="22" height="26" viewBox="0 0 22 26" fill="none" xmlns="http://www.w3.org/2000/svg">
<path fill-rule="evenodd" clip-rule="evenodd" d="M5.76153 1.67188C3.1984 1.67188 1.02344 4.02888 1.02344 7.06346V18.8466C1.02344 21.8812 3.1984 24.2382 5.76153 24.2382H16.2377C18.8009 24.2382 20.9758 21.8812 20.9758 18.8466V7.06346C20.9758 4.02888 18.8009 1.67188 16.2377 1.67188H5.76153ZM0.0234375 7.06346C0.0234375 3.59037 2.53883 0.671875 5.76153 0.671875H16.2377C19.4604 0.671875 21.9758 3.59037 21.9758 7.06346V18.8466C21.9758 22.3197 19.4604 25.2382 16.2377 25.2382H5.76153C2.53883 25.2382 0.0234375 22.3197 0.0234375 18.8466V7.06346ZM11.5774 8.73474C10.8237 8.60904 10.0512 8.75274 9.36697 9.15207C8.68138 9.55219 8.11506 10.1917 7.75826 10.989C7.40133 11.7866 7.27573 12.6946 7.40266 13.5818C7.52958 14.469 7.90108 15.2808 8.45551 15.9044C9.00926 16.5272 9.71507 16.9289 10.4683 17.0652C11.2206 17.2014 11.9945 17.0684 12.6826 16.6788C13.3721 16.2884 13.9451 15.6572 14.3105 14.8652C14.676 14.0729 14.8116 13.1668 14.6944 12.2778C14.5748 11.371 14.2 10.5394 13.6344 9.90328C13.0696 9.26797 12.3468 8.86308 11.5774 8.73474ZM8.86292 8.2884C9.74339 7.77454 10.7518 7.58322 11.7419 7.74836C12.7511 7.91669 13.6751 8.44403 14.3817 9.23883C15.0877 10.0328 15.5416 11.0534 15.6858 12.1471C15.8272 13.2194 15.6649 14.3164 15.2185 15.2841C14.772 16.252 14.0604 17.0479 13.1753 17.549C12.2888 18.0508 11.2782 18.2281 10.2902 18.0492C9.30292 17.8706 8.40091 17.348 7.70817 16.5688C7.01609 15.7904 6.56587 14.7938 6.41274 13.7234C6.2596 12.6531 6.40986 11.554 6.84549 10.5806C7.28123 9.60684 7.98379 8.80147 8.86292 8.2884ZM16.7615 5.9743C16.4854 5.9743 16.2615 6.19815 16.2615 6.4743C16.2615 6.75044 16.4854 6.9743 16.7615 6.9743H16.7715C17.0477 6.9743 17.2715 6.75044 17.2715 6.4743C17.2715 6.19815 17.0477 5.9743 16.7715 5.9743H16.7615Z" fill="white"/>
</svg>
