<svg width="31" height="28" viewBox="0 0 31 28" fill="none" xmlns="http://www.w3.org/2000/svg">
<path d="M28.4139 6.23021C28.2627 5.53966 27.9548 4.90695 27.5213 4.39598C27.0878 3.88502 26.544 3.5139 25.9449 3.32011C23.7559 2.70898 15 2.70898 15 2.70898C15 2.70898 6.24409 2.70898 4.05511 3.37831C3.45601 3.5721 2.91224 3.94322 2.47873 4.45418C2.04522 4.96515 1.73733 5.59786 1.58615 6.28842C1.18554 8.82829 0.989574 11.4048 1.00073 13.9857C0.986447 16.5859 1.18242 19.1821 1.58615 21.7411C1.75282 22.4102 2.06761 23.0188 2.50011 23.5082C2.9326 23.9976 3.46819 24.3512 4.05511 24.5348C6.24409 25.2041 15 25.2041 15 25.2041C15 25.2041 23.7559 25.2041 25.9449 24.5348C26.544 24.341 27.0878 23.9699 27.5213 23.4589C27.9548 22.9479 28.2627 22.3152 28.4139 21.6247C28.8114 19.1039 29.0073 16.547 28.9993 13.9857C29.0136 11.3854 28.8176 8.78921 28.4139 6.23021V6.23021Z" stroke="white" stroke-linecap="round" stroke-linejoin="round"/>
<path d="M12 18.4551L20 13.9561L12 9.45703V18.4551Z" stroke="white" stroke-linecap="round" stroke-linejoin="round"/>
</svg>
