<svg width="156" height="110" viewBox="0 0 156 110" fill="none" xmlns="http://www.w3.org/2000/svg">
<rect x="1.49765" y="0.872646" width="153.503" height="108.305" rx="5.67102" fill="white" stroke="#F3F3F3" stroke-width="1.62029"/>
<path fill-rule="evenodd" clip-rule="evenodd" d="M82.6815 39.3635L75.2225 41.0454V34.6917L82.6815 33.041V39.3635ZM98.203 42.8834C95.2907 42.8834 93.4185 44.316 92.3784 45.3127L91.9921 43.3817H85.4543V79.6973L92.8836 78.0466L92.9133 69.2324C93.9832 70.0422 95.5582 71.1946 98.1733 71.1946C103.493 71.1946 108.337 66.7097 108.337 56.8365C108.307 47.8043 103.403 42.8834 98.203 42.8834ZM96.4212 64.343C94.6679 64.343 93.6278 63.689 92.9146 62.8792L92.8849 51.3242C93.6575 50.421 94.7274 49.7981 96.4212 49.7981C99.1255 49.7981 100.998 52.9749 100.998 57.055C100.998 61.2285 99.1552 64.343 96.4212 64.343ZM131.747 57.148C131.747 49.1747 128.062 42.8834 121.019 42.8834C113.946 42.8834 109.667 49.1747 109.667 57.0857C109.667 66.4605 114.719 71.1946 121.97 71.1946C125.506 71.1946 128.181 70.3537 130.202 69.1702V62.9411C128.181 64 125.863 64.6541 122.921 64.6541C120.038 64.6541 117.483 63.5951 117.156 59.9199H131.688C131.688 59.7483 131.698 59.3583 131.71 58.909L131.711 58.9078C131.727 58.2976 131.747 57.5783 131.747 57.148ZM117.072 54.1896C117.072 50.6701 119.123 49.2063 120.995 49.2063C122.808 49.2063 124.739 50.6701 124.739 54.1896H117.072ZM75.2225 43.4115H82.6815V70.6638H75.2225V43.4115ZM66.755 43.4138L67.2305 45.7186C68.9838 42.3549 72.4607 43.0401 73.4116 43.4138V50.5773C72.4904 50.2347 69.5187 49.7987 67.7654 52.1969V70.6661H60.3361V43.4138H66.755ZM52.3759 36.655L45.1249 38.2746L45.0952 63.2221C45.0952 67.8317 48.3938 71.2265 52.792 71.2265C55.2288 71.2265 57.0118 70.7593 57.9925 70.1987V63.8762C57.0415 64.2811 52.3462 65.7138 52.3462 61.1042V50.0476H57.9925V43.4136H52.3462L52.3759 36.655ZM34.81 49.6416C33.235 49.6416 32.2841 50.1088 32.2841 51.3235C32.2841 52.6497 33.9207 53.2331 35.951 53.9568C39.261 55.1368 43.6176 56.6897 43.636 62.4424C43.636 68.0174 39.3864 71.2254 33.2053 71.2254C30.6496 71.2254 27.8562 70.6959 25.0925 69.4501V62.0375C27.5888 63.4702 30.7388 64.5291 33.2053 64.5291C34.8694 64.5291 36.0581 64.062 36.0581 62.6293C36.0581 61.1602 34.284 60.4887 32.1422 59.6781C28.8803 58.4435 24.7656 56.8861 24.7656 51.6972C24.7656 46.1844 28.7774 42.883 34.81 42.883C37.2765 42.883 39.7133 43.2879 42.1799 44.3157V51.6349C39.9214 50.3579 37.0685 49.6416 34.81 49.6416Z" fill="#6772E5"/>
</svg>
