<svg width="24" height="6" viewBox="0 0 24 6" fill="none" xmlns="http://www.w3.org/2000/svg">
<path d="M3.46679 0.494141C2.07545 0.494141 0.9375 1.68055 0.9375 3.13067C0.9375 4.58062 2.07545 5.76703 3.46679 5.76703C4.85661 5.76703 5.99459 4.58062 5.99459 3.13067C5.99459 1.68055 4.85661 0.494141 3.46679 0.494141ZM21.1674 0.494141C19.7775 0.494141 18.6395 1.68055 18.6395 3.13067C18.6395 4.58062 19.7775 5.76703 21.1674 5.76703C22.5587 5.76703 23.6966 4.58062 23.6966 3.13067C23.6966 1.68055 22.5587 0.494141 21.1674 0.494141ZM12.3171 0.494141C10.9257 0.494141 9.78778 1.68055 9.78778 3.13067C9.78778 4.58062 10.9257 5.76703 12.3171 5.76703C13.7084 5.76703 14.8464 4.58062 14.8464 3.13067C14.8464 1.68055 13.7084 0.494141 12.3171 0.494141Z" fill="#777E91"/>
</svg>
