<svg width="157" height="109" viewBox="0 0 157 109" fill="none" xmlns="http://www.w3.org/2000/svg">
<rect x="2.67497" y="2.05583" width="151.664" height="105.215" rx="2.27034" fill="white" stroke="#F3F3F3" stroke-width="3.45932"/>
<path d="M69.8199 74.8582H59.4922L65.9519 36.8203H76.279L69.8199 74.8582Z" fill="#15195A"/>
<path d="M107.254 37.7503C105.217 36.9806 101.986 36.1309 97.9906 36.1309C87.7916 36.1309 80.6096 41.3102 80.5656 48.7151C80.4809 54.1785 85.7077 57.2129 89.6169 59.0346C93.6126 60.896 94.9708 62.111 94.9708 63.7702C94.9302 66.3185 91.7421 67.4931 88.7687 67.4931C84.6454 67.4931 82.4361 66.8875 79.0786 65.4698L77.7186 64.862L76.2734 73.4007C78.6957 74.4516 83.1584 75.3842 87.7916 75.4251C98.6282 75.4251 105.683 70.3259 105.767 62.4348C105.808 58.1047 103.048 54.7868 97.0977 52.0755C93.4855 50.3351 91.2734 49.1615 91.2734 47.3808C91.3157 45.7619 93.1444 44.1037 97.2219 44.1037C100.579 44.0225 103.046 44.7911 104.915 45.5602L105.849 45.9641L107.254 37.7503Z" fill="#15195A"/>
<path fill-rule="evenodd" clip-rule="evenodd" d="M125.738 36.8184H133.727L142.059 74.8557H132.496C132.496 74.8557 131.56 70.4852 131.264 69.1498H118.004C117.621 70.1609 115.837 74.8557 115.837 74.8557H105L120.34 39.9744C121.403 37.5057 123.275 36.8184 125.738 36.8184ZM125.1 50.7381C125.1 50.7381 121.827 59.1956 120.977 61.3808H129.561C129.136 59.4791 127.18 50.374 127.18 50.374L126.459 47.0965C126.155 47.9405 125.715 49.1008 125.419 49.8835C125.218 50.414 125.083 50.771 125.1 50.7381Z" fill="#15195A"/>
<path fill-rule="evenodd" clip-rule="evenodd" d="M14.7481 36.8184H31.3644C33.6166 36.8985 35.4442 37.5864 36.0389 40.0158L39.6446 57.4665C39.6477 57.4763 39.6507 57.4862 39.6537 57.496L40.759 62.7565L50.8732 36.8184H61.7939L45.5605 74.8159H34.6393L25.4347 41.7661C22.2579 39.997 18.6321 38.5742 14.5781 37.5869L14.7481 36.8184Z" fill="#15195A"/>
</svg>
