<svg width="57" height="48" viewBox="0 0 57 48" fill="none" xmlns="http://www.w3.org/2000/svg">
<path d="M52.242 10.2613C51.9641 9.0334 51.398 7.90834 50.6009 6.99976C49.8038 6.09118 48.8039 5.43127 47.7023 5.08668C43.6774 4 27.5779 4 27.5779 4C27.5779 4 11.4783 4 7.45341 5.19017C6.35182 5.53476 5.35198 6.19467 4.55489 7.10325C3.7578 8.01183 3.19167 9.1369 2.9137 10.3648C2.17709 14.8811 1.81677 19.4626 1.83728 24.0517C1.81102 28.6754 2.17136 33.2919 2.9137 37.8422C3.22015 39.0319 3.79896 40.1142 4.5942 40.9844C5.38943 41.8546 6.37422 42.4833 7.45341 42.8098C11.4783 44 27.5779 44 27.5779 44C27.5779 44 43.6774 44 47.7023 42.8098C48.8039 42.4652 49.8038 41.8053 50.6009 40.8968C51.398 39.9882 51.9641 38.8631 52.242 37.6352C52.973 33.1529 53.3333 28.6063 53.3185 24.0517C53.3447 19.4281 52.9844 14.8116 52.242 10.2613V10.2613Z" stroke="black" stroke-linecap="round" stroke-linejoin="round"/>
<path d="M22.0625 32L36.7722 24L22.0625 16V32Z" stroke="black" stroke-linecap="round" stroke-linejoin="round"/>
</svg>
